AbyssinicaSIL-Regular.ufo
<glyph name="exclam" format="2">
  <advance width="1106"/>
  <unicode hex="0021"/>
  <outline>
    <contour>
      <point x="627" y="1106" type="curve" smooth="yes"/>
      <point x="627" y="1280"/>
      <point x="580" y="1337"/>
      <point x="492" y="1337" type="curve" smooth="yes"/>
      <point x="403" y="1337"/>
      <point x="352" y="1266"/>
      <point x="352" y="1108" type="curve" smooth="yes"/>
      <point x="352" y="1034"/>
      <point x="365" y="973"/>
      <point x="377" y="879" type="curve"/>
      <point x="442" y="410" type="line"/>
      <point x="539" y="410" type="line"/>
      <point x="609" y="918" type="line"/>
      <point x="619" y="989"/>
      <point x="627" y="1044"/>
    </contour>
    <contour>
      <point x="649" y="158" type="curve" smooth="yes"/>
      <point x="649" y="244"/>
      <point x="580" y="313"/>
      <point x="494" y="313" type="curve" smooth="yes"/>
      <point x="406" y="313"/>
      <point x="336" y="244"/>
      <point x="336" y="158" type="curve" smooth="yes"/>
      <point x="336" y="70"/>
      <point x="406" y="0"/>
      <point x="494" y="0" type="curve" smooth="yes"/>
      <point x="580" y="0"/>
      <point x="649" y="70"/>
    </contour>
  </outline>
</glyph>
<glyph name="quotedbl" format="2">
  <advance width="930"/>
  <unicode hex="0022"/>
  <outline>
    <contour>
      <point x="760" y="1262" type="curve" smooth="yes"/>
      <point x="760" y="1321"/>
      <point x="721" y="1372"/>
      <point x="655" y="1372" type="curve" smooth="yes"/>
      <point x="588" y="1372"/>
      <point x="549" y="1335"/>
      <point x="549" y="1247" type="curve" smooth="yes"/>
      <point x="549" y="1214"/>
      <point x="557" y="1157"/>
      <point x="573" y="1069" type="curve" smooth="yes"/>
      <point x="629" y="766" type="line"/>
      <point x="680" y="766" type="line"/>
      <point x="737" y="1069" type="line" smooth="yes"/>
      <point x="756" y="1171"/>
      <point x="760" y="1233"/>
    </contour>
    <contour>
      <point x="379" y="1260" type="curve" smooth="yes"/>
      <point x="379" y="1327"/>
      <point x="334" y="1372"/>
      <point x="272" y="1372" type="curve" smooth="yes"/>
      <point x="213" y="1372"/>
      <point x="170" y="1341"/>
      <point x="170" y="1247" type="curve" smooth="yes"/>
      <point x="170" y="1214"/>
      <point x="176" y="1157"/>
      <point x="193" y="1073" type="curve" smooth="yes"/>
      <point x="250" y="766" type="line"/>
      <point x="293" y="766" type="line"/>
      <point x="350" y="1071" type="line" smooth="yes"/>
      <point x="369" y="1169"/>
      <point x="379" y="1233"/>
    </contour>
  </outline>
</glyph>
<glyph name="dollar" format="2">
  <advance width="1106"/>
  <unicode hex="0024"/>
  <outline>
    <contour>
      <point x="987" y="354" type="curve" smooth="yes"/>
      <point x="987" y="522"/>
      <point x="881" y="641"/>
      <point x="688" y="707" type="curve"/>
      <point x="688" y="1130" type="line"/>
      <point x="754" y="1094"/>
      <point x="797" y="1034"/>
      <point x="809" y="967" type="curve"/>
      <point x="977" y="967" type="line"/>
      <point x="958" y="1133"/>
      <point x="844" y="1239"/>
      <point x="688" y="1280" type="curve"/>
      <point x="688" y="1405" type="line"/>
      <point x="578" y="1405" type="line"/>
      <point x="578" y="1296" type="line"/>
      <point x="563" y="1298"/>
      <point x="549" y="1298"/>
      <point x="535" y="1298" type="curve" smooth="yes"/>
      <point x="498" y="1298" type="line"/>
      <point x="498" y="1405" type="line"/>
      <point x="387" y="1405" type="line"/>
      <point x="387" y="1284" type="line"/>
      <point x="211" y="1245"/>
      <point x="88" y="1135"/>
      <point x="88" y="965" type="curve" smooth="yes"/>
      <point x="88" y="782"/>
      <point x="213" y="692"/>
      <point x="387" y="637" type="curve"/>
      <point x="387" y="188" type="line"/>
      <point x="317" y="236"/>
      <point x="279" y="317"/>
      <point x="279" y="401" type="curve"/>
      <point x="90" y="401" type="line"/>
      <point x="90" y="201"/>
      <point x="215" y="66"/>
      <point x="387" y="18" type="curve"/>
      <point x="387" y="-104" type="line"/>
      <point x="498" y="-104" type="line"/>
      <point x="498" y="0" type="line"/>
      <point x="526" y="0" type="line" smooth="yes"/>
      <point x="545" y="0"/>
      <point x="561" y="0"/>
      <point x="578" y="2" type="curve"/>
      <point x="578" y="-104" type="line"/>
      <point x="688" y="-104" type="line"/>
      <point x="688" y="20" type="line"/>
      <point x="872" y="72"/>
      <point x="987" y="211"/>
    </contour>
    <contour>
      <point x="578" y="147" type="line"/>
      <point x="561" y="145"/>
      <point x="545" y="145"/>
      <point x="528" y="145" type="curve" smooth="yes"/>
      <point x="518" y="145"/>
      <point x="508" y="145"/>
      <point x="498" y="147" type="curve"/>
      <point x="498" y="608" type="line"/>
      <point x="578" y="584" type="line"/>
    </contour>
    <contour>
      <point x="578" y="739" type="curve"/>
      <point x="549" y="748"/>
      <point x="522" y="756"/>
      <point x="498" y="766" type="curve"/>
      <point x="498" y="1169" type="line"/>
      <point x="528" y="1169" type="line" smooth="yes"/>
      <point x="541" y="1169"/>
      <point x="553" y="1167"/>
      <point x="566" y="1165" type="curve"/>
      <point x="567" y="1165"/>
      <point x="568" y="1165"/>
      <point x="569" y="1165" type="curve" smooth="yes"/>
      <point x="571" y="1165" type="line"/>
      <point x="577" y="1098"/>
      <point x="577" y="919"/>
    </contour>
    <contour>
      <point x="387" y="811" type="line"/>
      <point x="305" y="856"/>
      <point x="283" y="903"/>
      <point x="283" y="971" type="curve" smooth="yes"/>
      <point x="283" y="1044"/>
      <point x="315" y="1108"/>
      <point x="387" y="1143" type="curve"/>
    </contour>
    <contour>
      <point x="784" y="367" type="curve" smooth="yes"/>
      <point x="784" y="299"/>
      <point x="756" y="229"/>
      <point x="688" y="186" type="curve"/>
      <point x="688" y="530" type="line"/>
      <point x="758" y="485"/>
      <point x="784" y="430"/>
    </contour>
  </outline>
</glyph>
<glyph name="percent" format="2">
  <advance width="1616"/>
  <unicode hex="0025"/>
  <outline>
    <contour>
      <point x="1528" y="328" type="curve" smooth="yes"/>
      <point x="1528" y="553"/>
      <point x="1389" y="662"/>
      <point x="1217" y="662" type="curve" smooth="yes"/>
      <point x="1047" y="662"/>
      <point x="907" y="553"/>
      <point x="907" y="328" type="curve" smooth="yes"/>
      <point x="907" y="102"/>
      <point x="1047" y="-6"/>
      <point x="1217" y="-6" type="curve" smooth="yes"/>
      <point x="1389" y="-6"/>
      <point x="1528" y="102"/>
    </contour>
    <contour>
      <point x="1288" y="1282" type="line"/>
      <point x="1085" y="1282" type="line"/>
      <point x="344" y="-25" type="line"/>
      <point x="547" y="-25" type="line"/>
    </contour>
    <contour>
      <point x="709" y="930" type="curve" smooth="yes"/>
      <point x="709" y="1155"/>
      <point x="569" y="1264"/>
      <point x="397" y="1264" type="curve" smooth="yes"/>
      <point x="227" y="1264"/>
      <point x="88" y="1155"/>
      <point x="88" y="930" type="curve" smooth="yes"/>
      <point x="88" y="705"/>
      <point x="227" y="596"/>
      <point x="397" y="596" type="curve" smooth="yes"/>
      <point x="569" y="596"/>
      <point x="709" y="705"/>
    </contour>
    <contour>
      <point x="1358" y="328" type="curve" smooth="yes"/>
      <point x="1358" y="209"/>
      <point x="1327" y="129"/>
      <point x="1217" y="129" type="curve" smooth="yes"/>
      <point x="1104" y="129"/>
      <point x="1075" y="209"/>
      <point x="1075" y="328" type="curve" smooth="yes"/>
      <point x="1075" y="449"/>
      <point x="1110" y="528"/>
      <point x="1217" y="528" type="curve" smooth="yes"/>
      <point x="1327" y="528"/>
      <point x="1358" y="449"/>
    </contour>
    <contour>
      <point x="539" y="930" type="curve" smooth="yes"/>
      <point x="539" y="811"/>
      <point x="508" y="731"/>
      <point x="397" y="731" type="curve" smooth="yes"/>
      <point x="285" y="731"/>
      <point x="256" y="811"/>
      <point x="256" y="930" type="curve" smooth="yes"/>
      <point x="256" y="1051"/>
      <point x="291" y="1130"/>
      <point x="397" y="1130" type="curve" smooth="yes"/>
      <point x="508" y="1130"/>
      <point x="539" y="1051"/>
    </contour>
  </outline>
</glyph>
<glyph name="quotesingle" format="2">
  <advance width="385"/>
  <unicode hex="0027"/>
  <outline>
    <contour>
      <point x="297" y="1262" type="curve" smooth="yes"/>
      <point x="297" y="1311"/>
      <point x="264" y="1372"/>
      <point x="186" y="1372" type="curve" smooth="yes"/>
      <point x="121" y="1372"/>
      <point x="88" y="1333"/>
      <point x="88" y="1247" type="curve" smooth="yes"/>
      <point x="88" y="1217"/>
      <point x="94" y="1159"/>
      <point x="111" y="1073" type="curve"/>
      <point x="166" y="766" type="line"/>
      <point x="213" y="766" type="line"/>
      <point x="268" y="1071" type="line" smooth="yes"/>
      <point x="287" y="1174"/>
      <point x="297" y="1237"/>
    </contour>
  </outline>
</glyph>
<glyph name="parenleft" format="2">
  <advance width="680"/>
  <unicode hex="0028"/>
  <outline>
    <contour>
      <point x="557" y="-8" type="curve" smooth="yes"/>
      <point x="557" y="80"/>
      <point x="340" y="121"/>
      <point x="340" y="680" type="curve" smooth="yes"/>
      <point x="340" y="1241"/>
      <point x="557" y="1296"/>
      <point x="557" y="1372" type="curve" smooth="yes"/>
      <point x="557" y="1399"/>
      <point x="541" y="1407"/>
      <point x="524" y="1407" type="curve" smooth="yes"/>
      <point x="406" y="1407"/>
      <point x="123" y="1044"/>
      <point x="123" y="684" type="curve" smooth="yes"/>
      <point x="123" y="324"/>
      <point x="416" y="-41"/>
      <point x="518" y="-41" type="curve" smooth="yes"/>
      <point x="547" y="-41"/>
      <point x="557" y="-29"/>
    </contour>
  </outline>
</glyph>
<glyph name="parenright" format="2">
  <advance width="680"/>
  <unicode hex="0029"/>
  <outline>
    <contour>
      <point x="557" y="682" type="curve" smooth="yes"/>
      <point x="557" y="1042"/>
      <point x="264" y="1407"/>
      <point x="162" y="1407" type="curve" smooth="yes"/>
      <point x="133" y="1407"/>
      <point x="123" y="1395"/>
      <point x="123" y="1374" type="curve" smooth="yes"/>
      <point x="123" y="1286"/>
      <point x="340" y="1245"/>
      <point x="340" y="686" type="curve" smooth="yes"/>
      <point x="340" y="125"/>
      <point x="123" y="70"/>
      <point x="123" y="-6" type="curve" smooth="yes"/>
      <point x="123" y="-33"/>
      <point x="139" y="-41"/>
      <point x="156" y="-41" type="curve" smooth="yes"/>
      <point x="274" y="-41"/>
      <point x="557" y="322"/>
    </contour>
  </outline>
</glyph>
<glyph name="asterisk" format="2">
  <advance width="997"/>
  <unicode hex="002A"/>
  <outline>
    <contour>
      <point x="854" y="1171" type="curve" smooth="yes"/>
      <point x="844" y="1201"/>
      <point x="799" y="1253"/>
      <point x="741" y="1253" type="curve" smooth="yes"/>
      <point x="731" y="1253"/>
      <point x="720" y="1251"/>
      <point x="709" y="1247" type="curve" smooth="yes"/>
      <point x="635" y="1223"/>
      <point x="573" y="1118"/>
      <point x="557" y="1112" type="curve" smooth="yes"/>
      <point x="551" y="1110"/>
      <point x="546" y="1109"/>
      <point x="541" y="1109" type="curve" smooth="yes"/>
      <point x="525" y="1109"/>
      <point x="520" y="1121"/>
      <point x="520" y="1139" type="curve" smooth="yes"/>
      <point x="520" y="1159"/>
      <point x="592" y="1249"/>
      <point x="592" y="1323" type="curve" smooth="yes"/>
      <point x="592" y="1405"/>
      <point x="514" y="1440"/>
      <point x="477" y="1440" type="curve" smooth="yes"/>
      <point x="440" y="1440"/>
      <point x="360" y="1403"/>
      <point x="360" y="1325" type="curve" smooth="yes"/>
      <point x="360" y="1247"/>
      <point x="442" y="1157"/>
      <point x="442" y="1139" type="curve" smooth="yes"/>
      <point x="442" y="1121"/>
      <point x="434" y="1110"/>
      <point x="419" y="1110" type="curve" smooth="yes"/>
      <point x="415" y="1110"/>
      <point x="411" y="1110"/>
      <point x="406" y="1112" type="curve" smooth="yes"/>
      <point x="387" y="1118"/>
      <point x="324" y="1214"/>
      <point x="252" y="1237" type="curve" smooth="yes"/>
      <point x="240" y="1241"/>
      <point x="227" y="1243"/>
      <point x="216" y="1243" type="curve" smooth="yes"/>
      <point x="157" y="1243"/>
      <point x="115" y="1194"/>
      <point x="106" y="1163" type="curve" smooth="yes"/>
      <point x="103" y="1155"/>
      <point x="102" y="1145"/>
      <point x="102" y="1133" type="curve" smooth="yes"/>
      <point x="102" y="1093"/>
      <point x="121" y="1037"/>
      <point x="178" y="1018" type="curve" smooth="yes"/>
      <point x="194" y="1013"/>
      <point x="211" y="1011"/>
      <point x="228" y="1011" type="curve" smooth="yes"/>
      <point x="292" y="1011"/>
      <point x="361" y="1038"/>
      <point x="379" y="1038" type="curve"/>
      <point x="397" y="1033"/>
      <point x="404" y="1026"/>
      <point x="404" y="1017" type="curve" smooth="yes"/>
      <point x="404" y="1011"/>
      <point x="401" y="1003"/>
      <point x="395" y="995" type="curve"/>
      <point x="385" y="977"/>
      <point x="272" y="948"/>
      <point x="229" y="889" type="curve" smooth="yes"/>
      <point x="213" y="867"/>
      <point x="207" y="844"/>
      <point x="207" y="823" type="curve" smooth="yes"/>
      <point x="207" y="779"/>
      <point x="233" y="740"/>
      <point x="254" y="725" type="curve" smooth="yes"/>
      <point x="268" y="715"/>
      <point x="295" y="707"/>
      <point x="324" y="707" type="curve" smooth="yes"/>
      <point x="356" y="707"/>
      <point x="391" y="717"/>
      <point x="415" y="750" type="curve"/>
      <point x="461" y="813"/>
      <point x="449" y="934"/>
      <point x="459" y="948" type="curve" smooth="yes"/>
      <point x="466" y="958"/>
      <point x="474" y="964"/>
      <point x="482" y="964" type="curve" smooth="yes"/>
      <point x="490" y="964"/>
      <point x="498" y="958"/>
      <point x="504" y="948" type="curve" smooth="yes"/>
      <point x="514" y="932"/>
      <point x="512" y="817"/>
      <point x="555" y="758" type="curve" smooth="yes"/>
      <point x="580" y="723"/>
      <point x="615" y="711"/>
      <point x="647" y="711" type="curve" smooth="yes"/>
      <point x="675" y="711"/>
      <point x="701" y="721"/>
      <point x="715" y="731" type="curve" smooth="yes"/>
      <point x="736" y="745"/>
      <point x="762" y="787"/>
      <point x="762" y="832" type="curve" smooth="yes"/>
      <point x="762" y="852"/>
      <point x="757" y="873"/>
      <point x="742" y="893" type="curve"/>
      <point x="696" y="954"/>
      <point x="578" y="979"/>
      <point x="567" y="995" type="curve" smooth="yes"/>
      <point x="561" y="1004"/>
      <point x="558" y="1011"/>
      <point x="558" y="1017" type="curve" smooth="yes"/>
      <point x="558" y="1027"/>
      <point x="566" y="1033"/>
      <point x="582" y="1038" type="curve"/>
      <point x="583" y="1038"/>
      <point x="585" y="1039"/>
      <point x="587" y="1039" type="curve"/>
      <point x="609" y="1039"/>
      <point x="671" y="1019"/>
      <point x="728" y="1019" type="curve" smooth="yes"/>
      <point x="746" y="1019"/>
      <point x="763" y="1021"/>
      <point x="778" y="1026" type="curve" smooth="yes"/>
      <point x="839" y="1047"/>
      <point x="858" y="1102"/>
      <point x="858" y="1142" type="curve" smooth="yes"/>
      <point x="858" y="1153"/>
      <point x="857" y="1163"/>
    </contour>
  </outline>
</glyph>
<glyph name="plus" format="2">
  <advance width="1202"/>
  <unicode hex="002B"/>
  <outline>
    <contour>
      <point x="1081" y="479" type="line"/>
      <point x="1081" y="696" type="line"/>
      <point x="707" y="696" type="line"/>
      <point x="707" y="1063" type="line"/>
      <point x="492" y="1063" type="line"/>
      <point x="492" y="696" type="line"/>
      <point x="125" y="696" type="line"/>
      <point x="125" y="479" type="line"/>
      <point x="492" y="479" type="line"/>
      <point x="492" y="111" type="line"/>
      <point x="707" y="111" type="line"/>
      <point x="707" y="479" type="line"/>
    </contour>
  </outline>
</glyph>
<glyph name="comma" format="2">
  <advance width="696"/>
  <unicode hex="002C"/>
  <outline>
    <contour>
      <point x="489" y="90" type="curve" smooth="yes"/>
      <point x="489" y="268"/>
      <point x="416" y="313"/>
      <point x="319" y="313" type="curve" smooth="yes"/>
      <point x="223" y="313"/>
      <point x="164" y="246"/>
      <point x="164" y="147" type="curve" smooth="yes"/>
      <point x="164" y="49"/>
      <point x="229" y="0"/>
      <point x="313" y="0" type="curve"/>
      <point x="313" y="-111"/>
      <point x="276" y="-186"/>
      <point x="193" y="-266" type="curve" smooth="yes"/>
      <point x="166" y="-293"/>
      <point x="150" y="-309"/>
      <point x="150" y="-317" type="curve" smooth="yes"/>
      <point x="150" y="-332"/>
      <point x="158" y="-342"/>
      <point x="180" y="-342" type="curve" smooth="yes"/>
      <point x="266" y="-342"/>
      <point x="489" y="-170"/>
    </contour>
  </outline>
</glyph>
<glyph name="hyphenminus" format="2">
  <advance width="752"/>
  <unicode hex="002D"/>
  <outline>
    <contour>
      <point x="627" y="395" type="line"/>
      <point x="627" y="545" type="line"/>
      <point x="123" y="545" type="line"/>
      <point x="123" y="395" type="line"/>
    </contour>
  </outline>
</glyph>
<glyph name="period" format="2">
  <advance width="653"/>
  <unicode hex="002E"/>
  <outline>
    <contour>
      <point x="436" y="158" type="curve" smooth="yes"/>
      <point x="436" y="246"/>
      <point x="367" y="315"/>
      <point x="279" y="315" type="curve" smooth="yes"/>
      <point x="190" y="315"/>
      <point x="121" y="246"/>
      <point x="121" y="158" type="curve" smooth="yes"/>
      <point x="121" y="70"/>
      <point x="190" y="0"/>
      <point x="279" y="0" type="curve" smooth="yes"/>
      <point x="367" y="0"/>
      <point x="436" y="70"/>
    </contour>
  </outline>
</glyph>
<glyph name="slash" format="2">
  <advance width="834"/>
  <unicode hex="002F"/>
  <outline>
    <contour>
      <point x="831" y="1434" type="line"/>
      <point x="610" y="1434" type="line"/>
      <point x="-0" y="-10" type="line"/>
      <point x="223" y="-12" type="line"/>
    </contour>
  </outline>
</glyph>
<glyph name="zero" format="2">
  <advance width="1106"/>
  <unicode hex="0030"/>
  <outline>
    <contour>
      <point x="983" y="649" type="curve" smooth="yes"/>
      <point x="983" y="1010"/>
      <point x="862" y="1300"/>
      <point x="532" y="1300" type="curve" smooth="yes"/>
      <point x="207" y="1300"/>
      <point x="84" y="1010"/>
      <point x="84" y="649" type="curve" smooth="yes"/>
      <point x="84" y="289"/>
      <point x="205" y="-2"/>
      <point x="532" y="-2" type="curve" smooth="yes"/>
      <point x="866" y="-2"/>
      <point x="983" y="289"/>
    </contour>
    <contour>
      <point x="760" y="649" type="curve" smooth="yes"/>
      <point x="760" y="377"/>
      <point x="721" y="156"/>
      <point x="532" y="156" type="curve" smooth="yes"/>
      <point x="342" y="156"/>
      <point x="305" y="377"/>
      <point x="305" y="649" type="curve" smooth="yes"/>
      <point x="305" y="922"/>
      <point x="344" y="1141"/>
      <point x="532" y="1141" type="curve" smooth="yes"/>
      <point x="725" y="1141"/>
      <point x="760" y="922"/>
    </contour>
  </outline>
</glyph>
<glyph name="one" format="2">
  <advance width="1106"/>
  <unicode hex="0031"/>
  <outline>
    <contour>
      <point x="899" y="0" type="line"/>
      <point x="899" y="95" type="line"/>
      <point x="710" y="103" type="line" smooth="yes"/>
      <point x="685" y="104"/>
      <point x="665" y="124"/>
      <point x="665" y="148" type="curve" smooth="yes"/>
      <point x="665" y="1262" type="line"/>
      <point x="584" y="1262" type="line"/>
      <point x="142" y="1125" type="line"/>
      <point x="142" y="1030" type="line"/>
      <point x="456" y="1085" type="line"/>
      <point x="456" y="148" type="line" smooth="yes"/>
      <point x="456" y="124"/>
      <point x="436" y="104"/>
      <point x="411" y="103" type="curve" smooth="yes"/>
      <point x="207" y="95" type="line"/>
      <point x="207" y="0" type="line"/>
    </contour>
  </outline>
</glyph>
<glyph name="two" format="2">
  <advance width="1106"/>
  <unicode hex="0032"/>
  <outline>
    <contour>
      <point x="996" y="0" type="line"/>
      <point x="996" y="322" type="line"/>
      <point x="898" y="322" type="line"/>
      <point x="865" y="159" type="line"/>
      <point x="329" y="159" type="line"/>
      <point x="688" y="437"/>
      <point x="973" y="682"/>
      <point x="973" y="931" type="curve" smooth="yes"/>
      <point x="973" y="1150"/>
      <point x="808" y="1300"/>
      <point x="551" y="1300" type="curve" smooth="yes"/>
      <point x="330" y="1300"/>
      <point x="135" y="1177"/>
      <point x="135" y="1018" type="curve" smooth="yes"/>
      <point x="135" y="942"/>
      <point x="190" y="906"/>
      <point x="249" y="906" type="curve" smooth="yes"/>
      <point x="291" y="906"/>
      <point x="327" y="924"/>
      <point x="341" y="938" type="curve"/>
      <point x="341" y="1138" type="line"/>
      <point x="357" y="1148"/>
      <point x="424" y="1187"/>
      <point x="508" y="1187" type="curve" smooth="yes"/>
      <point x="636" y="1187"/>
      <point x="759" y="1083"/>
      <point x="759" y="911" type="curve" smooth="yes"/>
      <point x="759" y="682"/>
      <point x="520" y="470"/>
      <point x="204" y="214" type="curve" smooth="yes"/>
      <point x="109" y="137" type="line"/>
      <point x="109" y="0" type="line"/>
    </contour>
  </outline>
</glyph>
<glyph name="three" format="2">
  <advance width="1106"/>
  <unicode hex="0033"/>
  <outline>
    <contour>
      <point x="993" y="371" type="curve" smooth="yes"/>
      <point x="993" y="575"/>
      <point x="815" y="664"/>
      <point x="659" y="672" type="curve"/>
      <point x="843" y="723"/>
      <point x="942" y="841"/>
      <point x="942" y="980" type="curve" smooth="yes"/>
      <point x="942" y="1176"/>
      <point x="770" y="1300"/>
      <point x="555" y="1300" type="curve" smooth="yes"/>
      <point x="333" y="1300"/>
      <point x="146" y="1182"/>
      <point x="146" y="1041" type="curve" smooth="yes"/>
      <point x="146" y="961"/>
      <point x="209" y="937"/>
      <point x="253" y="937" type="curve" smooth="yes"/>
      <point x="294" y="937"/>
      <point x="327" y="955"/>
      <point x="336" y="961" type="curve"/>
      <point x="336" y="1136" type="line"/>
      <point x="366" y="1159"/>
      <point x="431" y="1188"/>
      <point x="503" y="1188" type="curve" smooth="yes"/>
      <point x="629" y="1188"/>
      <point x="737" y="1101"/>
      <point x="737" y="956" type="curve" smooth="yes"/>
      <point x="737" y="803"/>
      <point x="605" y="720"/>
      <point x="449" y="720" type="curve" smooth="yes"/>
      <point x="431" y="720"/>
      <point x="405" y="721"/>
      <point x="402" y="722" type="curve"/>
      <point x="402" y="684"/>
      <point x="402" y="625"/>
      <point x="402" y="587" type="curve"/>
      <point x="422" y="590"/>
      <point x="467" y="595"/>
      <point x="515" y="595" type="curve" smooth="yes"/>
      <point x="637" y="595"/>
      <point x="782" y="541"/>
      <point x="782" y="371" type="curve" smooth="yes"/>
      <point x="782" y="223"/>
      <point x="676" y="99"/>
      <point x="503" y="99" type="curve" smooth="yes"/>
      <point x="444" y="99"/>
      <point x="387" y="119"/>
      <point x="339" y="147" type="curve"/>
      <point x="287" y="294" type="line"/>
      <point x="271" y="304"/>
      <point x="238" y="306"/>
      <point x="223" y="306" type="curve" smooth="yes"/>
      <point x="149" y="306"/>
      <point x="114" y="257"/>
      <point x="114" y="207" type="curve" smooth="yes"/>
      <point x="114" y="116"/>
      <point x="248" y="-12"/>
      <point x="497" y="-12" type="curve" smooth="yes"/>
      <point x="764" y="-12"/>
      <point x="993" y="147"/>
    </contour>
  </outline>
</glyph>
<glyph name="four" format="2">
  <advance width="1106"/>
  <unicode hex="0034"/>
  <outline>
    <contour>
      <point x="1018" y="270" type="line"/>
      <point x="1018" y="453" type="line"/>
      <point x="883" y="453" type="line"/>
      <point x="883" y="1262" type="line"/>
      <point x="596" y="1262" type="line"/>
      <point x="74" y="514" type="line"/>
      <point x="74" y="270" type="line"/>
      <point x="676" y="270" type="line"/>
      <point x="676" y="0" type="line"/>
      <point x="883" y="0" type="line"/>
      <point x="883" y="270" type="line"/>
    </contour>
    <contour>
      <point x="676" y="453" type="line"/>
      <point x="229" y="453" type="line"/>
      <point x="676" y="1110" type="line"/>
    </contour>
  </outline>
</glyph>
<glyph name="five" format="2">
  <advance width="1106"/>
  <unicode hex="0035"/>
  <outline>
    <contour>
      <point x="987" y="417" type="curve" smooth="yes"/>
      <point x="987" y="655"/>
      <point x="827" y="804"/>
      <point x="571" y="804" type="curve" smooth="yes"/>
      <point x="471" y="804"/>
      <point x="362" y="775"/>
      <point x="327" y="762" type="curve"/>
      <point x="327" y="1103" type="line"/>
      <point x="903" y="1103" type="line"/>
      <point x="903" y="1264" type="line"/>
      <point x="187" y="1264" type="line"/>
      <point x="187" y="615" type="line"/>
      <point x="261" y="642"/>
      <point x="397" y="677"/>
      <point x="485" y="677" type="curve" smooth="yes"/>
      <point x="663" y="677"/>
      <point x="789" y="580"/>
      <point x="789" y="373" type="curve" smooth="yes"/>
      <point x="789" y="242"/>
      <point x="690" y="99"/>
      <point x="495" y="99" type="curve" smooth="yes"/>
      <point x="453" y="99"/>
      <point x="378" y="124"/>
      <point x="348" y="152" type="curve"/>
      <point x="293" y="301" type="line"/>
      <point x="286" y="304"/>
      <point x="254" y="309"/>
      <point x="234" y="309" type="curve" smooth="yes"/>
      <point x="167" y="309"/>
      <point x="118" y="272"/>
      <point x="118" y="206" type="curve" smooth="yes"/>
      <point x="118" y="109"/>
      <point x="276" y="-12"/>
      <point x="468" y="-12" type="curve" smooth="yes"/>
      <point x="806" y="-12"/>
      <point x="987" y="167"/>
    </contour>
  </outline>
</glyph>
<glyph name="six" format="2">
  <advance width="1106"/>
  <unicode hex="0036"/>
  <outline>
    <contour>
      <point x="999" y="451" type="curve" smooth="yes"/>
      <point x="999" y="671"/>
      <point x="847" y="838"/>
      <point x="614" y="838" type="curve" smooth="yes"/>
      <point x="511" y="838"/>
      <point x="418" y="805"/>
      <point x="316" y="731" type="curve"/>
      <point x="354" y="1010"/>
      <point x="549" y="1182"/>
      <point x="769" y="1182" type="curve"/>
      <point x="845" y="1182" type="line"/>
      <point x="845" y="1300" type="line"/>
      <point x="376" y="1300"/>
      <point x="106" y="1000"/>
      <point x="106" y="559" type="curve" smooth="yes"/>
      <point x="106" y="143"/>
      <point x="300" y="-12"/>
      <point x="549" y="-12" type="curve" smooth="yes"/>
      <point x="799" y="-12"/>
      <point x="999" y="171"/>
    </contour>
    <contour>
      <point x="800" y="427" type="curve" smooth="yes"/>
      <point x="800" y="243"/>
      <point x="727" y="95"/>
      <point x="549" y="95" type="curve" smooth="yes"/>
      <point x="382" y="95"/>
      <point x="307" y="270"/>
      <point x="307" y="522" type="curve" smooth="yes"/>
      <point x="307" y="550"/>
      <point x="307" y="581"/>
      <point x="310" y="620" type="curve"/>
      <point x="382" y="676"/>
      <point x="470" y="713"/>
      <point x="549" y="713" type="curve" smooth="yes"/>
      <point x="713" y="713"/>
      <point x="800" y="608"/>
    </contour>
  </outline>
</glyph>
<glyph name="seven" format="2">
  <advance width="1106"/>
  <unicode hex="0037"/>
  <outline>
    <contour>
      <point x="944" y="1069" type="line"/>
      <point x="944" y="1264" type="line"/>
      <point x="111" y="1264" type="line"/>
      <point x="111" y="1069" type="line"/>
      <point x="766" y="1069" type="line"/>
      <point x="252" y="0" type="line"/>
      <point x="526" y="0" type="line"/>
    </contour>
  </outline>
</glyph>
<glyph name="eight" format="2">
  <advance width="1106"/>
  <unicode hex="0038"/>
  <outline>
    <contour>
      <point x="998" y="355" type="curve" smooth="yes"/>
      <point x="998" y="541"/>
      <point x="842" y="628"/>
      <point x="745" y="669" type="curve"/>
      <point x="818" y="719"/>
      <point x="948" y="825"/>
      <point x="948" y="982" type="curve" smooth="yes"/>
      <point x="948" y="1161"/>
      <point x="778" y="1300"/>
      <point x="552" y="1300" type="curve" smooth="yes"/>
      <point x="316" y="1300"/>
      <point x="157" y="1165"/>
      <point x="157" y="952" type="curve" smooth="yes"/>
      <point x="157" y="806"/>
      <point x="268" y="712"/>
      <point x="348" y="675" type="curve"/>
      <point x="233" y="617"/>
      <point x="107" y="519"/>
      <point x="107" y="351" type="curve" smooth="yes"/>
      <point x="107" y="141"/>
      <point x="280" y="-12"/>
      <point x="552" y="-12" type="curve" smooth="yes"/>
      <point x="808" y="-12"/>
      <point x="998" y="143"/>
    </contour>
    <contour>
      <point x="768" y="965" type="curve" smooth="yes"/>
      <point x="768" y="852"/>
      <point x="719" y="767"/>
      <point x="643" y="712" type="curve"/>
      <point x="453" y="782"/>
      <point x="350" y="866"/>
      <point x="350" y="995" type="curve" smooth="yes"/>
      <point x="350" y="1096"/>
      <point x="427" y="1196"/>
      <point x="552" y="1196" type="curve" smooth="yes"/>
      <point x="675" y="1196"/>
      <point x="768" y="1107"/>
    </contour>
    <contour>
      <point x="801" y="325" type="curve" smooth="yes"/>
      <point x="801" y="211"/>
      <point x="712" y="98"/>
      <point x="552" y="98" type="curve" smooth="yes"/>
      <point x="373" y="98"/>
      <point x="289" y="216"/>
      <point x="289" y="365" type="curve" smooth="yes"/>
      <point x="289" y="498"/>
      <point x="353" y="574"/>
      <point x="446" y="625" type="curve"/>
      <point x="687" y="530"/>
      <point x="801" y="470"/>
    </contour>
  </outline>
</glyph>
<glyph name="nine" format="2">
  <advance width="1106"/>
  <unicode hex="0039"/>
  <outline>
    <contour>
      <point x="106" y="837" type="curve" smooth="yes"/>
      <point x="106" y="617"/>
      <point x="258" y="450"/>
      <point x="491" y="450" type="curve" smooth="yes"/>
      <point x="594" y="450"/>
      <point x="687" y="483"/>
      <point x="789" y="557" type="curve"/>
      <point x="751" y="278"/>
      <point x="556" y="106"/>
      <point x="336" y="106" type="curve"/>
      <point x="258" y="106" type="line"/>
      <point x="258" y="-12" type="line"/>
      <point x="727" y="-12"/>
      <point x="999" y="286"/>
      <point x="999" y="729" type="curve" smooth="yes"/>
      <point x="999" y="1135"/>
      <point x="805" y="1300"/>
      <point x="556" y="1300" type="curve" smooth="yes"/>
      <point x="306" y="1300"/>
      <point x="106" y="1107"/>
    </contour>
    <contour>
      <point x="305" y="861" type="curve" smooth="yes"/>
      <point x="305" y="1035"/>
      <point x="378" y="1193"/>
      <point x="556" y="1193" type="curve" smooth="yes"/>
      <point x="723" y="1193"/>
      <point x="798" y="1008"/>
      <point x="798" y="766" type="curve" smooth="yes"/>
      <point x="798" y="738"/>
      <point x="798" y="707"/>
      <point x="795" y="668" type="curve"/>
      <point x="723" y="612"/>
      <point x="635" y="575"/>
      <point x="556" y="575" type="curve" smooth="yes"/>
      <point x="392" y="575"/>
      <point x="305" y="680"/>
    </contour>
  </outline>
</glyph>
<glyph name="less" format="2">
  <advance width="1706"/>
  <unicode hex="003C"/>
  <outline>
    <contour>
      <point x="1442" y="76" type="line"/>
      <point x="1442" y="205" type="line"/>
      <point x="442" y="610" type="line"/>
      <point x="1442" y="1018" type="line"/>
      <point x="1442" y="1145" type="line"/>
      <point x="264" y="662" type="line"/>
      <point x="264" y="557" type="line"/>
    </contour>
  </outline>
</glyph>
<glyph name="equal" format="2">
  <advance width="1214"/>
  <unicode hex="003D"/>
  <outline>
    <contour>
      <point x="1063" y="698" type="line"/>
      <point x="1063" y="913" type="line"/>
      <point x="150" y="913" type="line"/>
      <point x="150" y="698" type="line"/>
    </contour>
    <contour>
      <point x="1063" y="262" type="line"/>
      <point x="1063" y="477" type="line"/>
      <point x="150" y="477" type="line"/>
      <point x="150" y="262" type="line"/>
    </contour>
  </outline>
</glyph>
<glyph name="greater" format="2">
  <advance width="1706"/>
  <unicode hex="003E"/>
  <outline>
    <contour>
      <point x="1442" y="557" type="line"/>
      <point x="1442" y="662" type="line"/>
      <point x="264" y="1145" type="line"/>
      <point x="264" y="1018" type="line"/>
      <point x="1264" y="610" type="line"/>
      <point x="264" y="205" type="line"/>
      <point x="264" y="76" type="line"/>
    </contour>
  </outline>
</glyph>
<glyph name="question" format="2">
  <advance width="1200"/>
  <unicode hex="003F"/>
  <outline>
    <contour>
      <point x="831" y="1024" type="curve" smooth="yes"/>
      <point x="831" y="1182"/>
      <point x="709" y="1337"/>
      <point x="487" y="1337" type="curve" smooth="yes"/>
      <point x="266" y="1337"/>
      <point x="176" y="1221"/>
      <point x="176" y="1141" type="curve" smooth="yes"/>
      <point x="176" y="1110"/>
      <point x="195" y="1065"/>
      <point x="225" y="1038" type="curve"/>
      <point x="299" y="1038" type="line"/>
      <point x="313" y="1075"/>
      <point x="344" y="1120"/>
      <point x="424" y="1120" type="curve" smooth="yes"/>
      <point x="508" y="1120"/>
      <point x="557" y="1067"/>
      <point x="557" y="997" type="curve" smooth="yes"/>
      <point x="557" y="903"/>
      <point x="395" y="752"/>
      <point x="395" y="590" type="curve" smooth="yes"/>
      <point x="395" y="510"/>
      <point x="412" y="461"/>
      <point x="436" y="412" type="curve"/>
      <point x="561" y="410" type="line"/>
      <point x="561" y="410"/>
      <point x="553" y="446"/>
      <point x="553" y="461" type="curve" smooth="yes"/>
      <point x="553" y="655"/>
      <point x="831" y="770"/>
    </contour>
    <contour>
      <point x="649" y="158" type="curve" smooth="yes"/>
      <point x="649" y="244"/>
      <point x="580" y="313"/>
      <point x="494" y="313" type="curve" smooth="yes"/>
      <point x="406" y="313"/>
      <point x="336" y="244"/>
      <point x="336" y="158" type="curve" smooth="yes"/>
      <point x="336" y="70"/>
      <point x="406" y="0"/>
      <point x="494" y="0" type="curve" smooth="yes"/>
      <point x="580" y="0"/>
      <point x="649" y="70"/>
    </contour>
  </outline>
</glyph>
<glyph name="A" format="2">
  <advance width="1380"/>
  <unicode hex="0041"/>
  <outline>
    <contour>
      <point x="1370" y="-0" type="line"/>
      <point x="1370" y="88" type="line"/>
      <point x="1278" y="104" type="line" smooth="yes"/>
      <point x="1247" y="109"/>
      <point x="1245" y="115"/>
      <point x="1235" y="143" type="curve" smooth="yes"/>
      <point x="760" y="1407" type="line"/>
      <point x="606" y="1407" type="line"/>
      <point x="129" y="113" type="line"/>
      <point x="10" y="88" type="line"/>
      <point x="10" y="-0" type="line"/>
      <point x="422" y="-0" type="line"/>
      <point x="422" y="88" type="line"/>
      <point x="301" y="98" type="line"/>
      <point x="289" y="98"/>
      <point x="271" y="117"/>
      <point x="271" y="133" type="curve"/>
      <point x="271" y="135"/>
      <point x="271" y="137"/>
      <point x="272" y="139" type="curve" smooth="yes"/>
      <point x="408" y="508" type="line"/>
      <point x="881" y="508" type="line"/>
      <point x="1022" y="133" type="line"/>
      <point x="1023" y="132"/>
      <point x="1023" y="130"/>
      <point x="1023" y="128" type="curve"/>
      <point x="1023" y="116"/>
      <point x="1012" y="98"/>
      <point x="1001" y="98" type="curve"/>
      <point x="883" y="88" type="line"/>
      <point x="883" y="-0" type="line"/>
    </contour>
    <contour>
      <point x="844" y="606" type="line"/>
      <point x="444" y="606" type="line"/>
      <point x="643" y="1143" type="line"/>
    </contour>
  </outline>
</glyph>
<glyph name="V" format="2">
  <advance width="1364"/>
  <unicode hex="0056"/>
  <outline>
    <contour>
      <point x="1343" y="1286" type="line"/>
      <point x="1343" y="1374" type="line"/>
      <point x="936" y="1374" type="line"/>
      <point x="936" y="1286" type="line"/>
      <point x="1049" y="1276" type="line" smooth="yes"/>
      <point x="1064" y="1275"/>
      <point x="1078" y="1257"/>
      <point x="1078" y="1242" type="curve" smooth="yes"/>
      <point x="1078" y="1239"/>
      <point x="1078" y="1237"/>
      <point x="1077" y="1235" type="curve"/>
      <point x="731" y="227" type="line"/>
      <point x="371" y="1239" type="line"/>
      <point x="370" y="1241"/>
      <point x="370" y="1243"/>
      <point x="370" y="1246" type="curve" smooth="yes"/>
      <point x="370" y="1258"/>
      <point x="377" y="1274"/>
      <point x="389" y="1276" type="curve"/>
      <point x="510" y="1286" type="line"/>
      <point x="510" y="1374" type="line"/>
      <point x="20" y="1374" type="line"/>
      <point x="20" y="1286" type="line"/>
      <point x="141" y="1266" type="line"/>
      <point x="610" y="-33" type="line"/>
      <point x="766" y="-33" type="line"/>
      <point x="1225" y="1264" type="line"/>
    </contour>
  </outline>
</glyph>
<glyph name="W" format="2">
  <advance width="1907"/>
  <unicode hex="0057"/>
  <outline>
    <contour>
      <point x="1886" y="1286" type="line"/>
      <point x="1886" y="1374" type="line"/>
      <point x="1468" y="1374" type="line"/>
      <point x="1468" y="1286" type="line"/>
      <point x="1597" y="1274" type="line" smooth="yes"/>
      <point x="1615" y="1272"/>
      <point x="1627" y="1256"/>
      <point x="1627" y="1240" type="curve"/>
      <point x="1627" y="1238"/>
      <point x="1627" y="1235"/>
      <point x="1626" y="1233" type="curve" smooth="yes"/>
      <point x="1399" y="276" type="line"/>
      <point x="1069" y="1374" type="line"/>
      <point x="911" y="1374" type="line"/>
      <point x="590" y="309" type="line"/>
      <point x="346" y="1233" type="line"/>
      <point x="345" y="1237"/>
      <point x="344" y="1240"/>
      <point x="344" y="1244" type="curve" smooth="yes"/>
      <point x="344" y="1258"/>
      <point x="352" y="1272"/>
      <point x="367" y="1274" type="curve" smooth="yes"/>
      <point x="489" y="1286" type="line"/>
      <point x="489" y="1374" type="line"/>
      <point x="20" y="1374" type="line"/>
      <point x="20" y="1286" type="line"/>
      <point x="139" y="1262" type="line"/>
      <point x="473" y="-33" type="line"/>
      <point x="621" y="-33" type="line"/>
      <point x="956" y="1102" type="line"/>
      <point x="1298" y="-33" type="line"/>
      <point x="1448" y="-33" type="line"/>
      <point x="1761" y="1262" type="line"/>
    </contour>
  </outline>
</glyph>
<glyph name="X" format="2">
  <advance width="1298"/>
  <unicode hex="0058"/>
  <outline>
    <contour>
      <point x="1278" y="0" type="line"/>
      <point x="1278" y="88" type="line"/>
      <point x="1151" y="113" type="line"/>
      <point x="748" y="743" type="line"/>
      <point x="1128" y="1266" type="line"/>
      <point x="1260" y="1286" type="line"/>
      <point x="1260" y="1374" type="line"/>
      <point x="831" y="1374" type="line"/>
      <point x="831" y="1286" type="line"/>
      <point x="936" y="1272" type="line"/>
      <point x="951" y="1271"/>
      <point x="964" y="1259"/>
      <point x="964" y="1245" type="curve" smooth="yes"/>
      <point x="964" y="1240"/>
      <point x="962" y="1234"/>
      <point x="958" y="1229" type="curve" smooth="yes"/>
      <point x="682" y="850" type="line"/>
      <point x="432" y="1235" type="line" smooth="yes"/>
      <point x="429" y="1240"/>
      <point x="427" y="1246"/>
      <point x="427" y="1252" type="curve" smooth="yes"/>
      <point x="427" y="1264"/>
      <point x="435" y="1275"/>
      <point x="457" y="1276" type="curve"/>
      <point x="561" y="1286" type="line"/>
      <point x="561" y="1374" type="line"/>
      <point x="47" y="1374" type="line"/>
      <point x="47" y="1286" type="line"/>
      <point x="182" y="1262" type="line"/>
      <point x="555" y="678" type="line"/>
      <point x="143" y="113" type="line"/>
      <point x="20" y="88" type="line"/>
      <point x="20" y="0" type="line"/>
      <point x="455" y="0" type="line"/>
      <point x="455" y="88" type="line"/>
      <point x="332" y="98" type="line"/>
      <point x="310" y="100"/>
      <point x="302" y="110"/>
      <point x="302" y="121" type="curve" smooth="yes"/>
      <point x="302" y="126"/>
      <point x="304" y="132"/>
      <point x="307" y="137" type="curve" smooth="yes"/>
      <point x="623" y="571" type="line"/>
      <point x="895" y="143" type="line" smooth="yes"/>
      <point x="898" y="138"/>
      <point x="899" y="134"/>
      <point x="899" y="129" type="curve" smooth="yes"/>
      <point x="899" y="114"/>
      <point x="886" y="102"/>
      <point x="870" y="100" type="curve" smooth="yes"/>
      <point x="752" y="88" type="line"/>
      <point x="752" y="0" type="line"/>
    </contour>
  </outline>
</glyph>
<glyph name="bracketleft" format="2">
  <advance width="680"/>
  <unicode hex="005B"/>
  <outline>
    <contour>
      <point x="584" y="-158" type="line"/>
      <point x="584" y="-41" type="line"/>
      <point x="367" y="-41" type="line"/>
      <point x="367" y="1364" type="line"/>
      <point x="584" y="1364" type="line"/>
      <point x="584" y="1487" type="line"/>
      <point x="176" y="1487" type="line"/>
      <point x="176" y="-158" type="line"/>
    </contour>
  </outline>
</glyph>
<glyph name="backslash" format="2">
  <advance width="831"/>
  <unicode hex="005C"/>
  <outline>
    <contour>
      <point x="221" y="1432" type="line"/>
      <point x="0" y="1432" type="line"/>
      <point x="608" y="-12" type="line"/>
      <point x="834" y="-12" type="line"/>
    </contour>
  </outline>
</glyph>
<glyph name="bracketright" format="2">
  <advance width="680"/>
  <unicode hex="005D"/>
  <outline>
    <contour>
      <point x="489" y="-158" type="line"/>
      <point x="489" y="1487" type="line"/>
      <point x="82" y="1487" type="line"/>
      <point x="82" y="1370" type="line"/>
      <point x="299" y="1370" type="line"/>
      <point x="299" y="-35" type="line"/>
      <point x="82" y="-35" type="line"/>
      <point x="82" y="-158" type="line"/>
    </contour>
  </outline>
</glyph>
<glyph name="asciicircum" format="2">
  <advance width="1962"/>
  <unicode hex="005E"/>
  <outline>
    <contour>
      <point x="1516" y="23" type="line"/>
      <point x="1034" y="1200" type="line"/>
      <point x="930" y="1200" type="line"/>
      <point x="446" y="23" type="line"/>
      <point x="573" y="23" type="line"/>
      <point x="981" y="1022" type="line"/>
      <point x="1386" y="23" type="line"/>
    </contour>
  </outline>
</glyph>
<glyph name="underscore" format="2">
  <advance width="1229"/>
  <unicode hex="005F"/>
  <outline>
    <contour>
      <point x="1229" y="-682" type="line"/>
      <point x="1229" y="-479" type="line"/>
      <point x="-0" y="-479" type="line"/>
      <point x="-0" y="-682" type="line"/>
    </contour>
  </outline>
</glyph>
<glyph name="grave" format="2">
  <advance width="717"/>
  <unicode hex="0060"/>
  <outline>
    <contour>
      <point x="475" y="1128" type="line"/>
      <point x="201" y="1446" type="line"/>
      <point x="171" y="1480"/>
      <point x="150" y="1501"/>
      <point x="94" y="1501" type="curve" smooth="yes"/>
      <point x="23" y="1501"/>
      <point x="-0" y="1450"/>
      <point x="-0" y="1409" type="curve" smooth="yes"/>
      <point x="-0" y="1372"/>
      <point x="18" y="1346"/>
      <point x="47" y="1327" type="curve" smooth="yes"/>
      <point x="358" y="1128" type="line"/>
    </contour>
  </outline>
</glyph>
<glyph name="k" format="2">
  <advance width="1094"/>
  <unicode hex="006B"/>
  <outline>
    <contour>
      <point x="1073" y="-0" type="line"/>
      <point x="1073" y="80" type="line"/>
      <point x="965" y="92" type="line"/>
      <point x="612" y="604" type="line"/>
      <point x="883" y="893" type="line"/>
      <point x="1014" y="907" type="line"/>
      <point x="1014" y="987" type="line"/>
      <point x="616" y="987" type="line"/>
      <point x="616" y="907" type="line"/>
      <point x="700" y="899" type="line" smooth="yes"/>
      <point x="713" y="898"/>
      <point x="721" y="888"/>
      <point x="721" y="877" type="curve" smooth="yes"/>
      <point x="721" y="873"/>
      <point x="720" y="868"/>
      <point x="717" y="864" type="curve"/>
      <point x="416" y="524" type="line"/>
      <point x="375" y="524" type="line"/>
      <point x="375" y="1509" type="line"/>
      <point x="291" y="1509" type="line"/>
      <point x="29" y="1430" type="line"/>
      <point x="29" y="1362" type="line"/>
      <point x="184" y="1362" type="line"/>
      <point x="184" y="131" type="line" smooth="yes"/>
      <point x="184" y="106"/>
      <point x="166" y="88"/>
      <point x="141" y="86" type="curve" smooth="yes"/>
      <point x="41" y="80" type="line"/>
      <point x="41" y="-0" type="line"/>
      <point x="506" y="-0" type="line"/>
      <point x="506" y="80" type="line"/>
      <point x="418" y="86" type="line" smooth="yes"/>
      <point x="393" y="88"/>
      <point x="375" y="106"/>
      <point x="375" y="131" type="curve" smooth="yes"/>
      <point x="375" y="465" type="line"/>
      <point x="489" y="465" type="line"/>
      <point x="745" y="80" type="line"/>
      <point x="745" y="-0" type="line"/>
    </contour>
  </outline>
</glyph>
<glyph name="l" format="2">
  <advance width="608"/>
  <unicode hex="006C"/>
  <outline>
    <contour>
      <point x="553" y="0" type="line"/>
      <point x="553" y="80" type="line"/>
      <point x="442" y="86" type="line"/>
      <point x="424" y="86"/>
      <point x="399" y="111"/>
      <point x="399" y="129" type="curve" smooth="yes"/>
      <point x="399" y="1509" type="line"/>
      <point x="315" y="1509" type="line"/>
      <point x="53" y="1430" type="line"/>
      <point x="53" y="1362" type="line"/>
      <point x="209" y="1362" type="line"/>
      <point x="209" y="129" type="line" smooth="yes"/>
      <point x="209" y="111"/>
      <point x="182" y="86"/>
      <point x="164" y="86" type="curve"/>
      <point x="55" y="80" type="line"/>
      <point x="55" y="0" type="line"/>
    </contour>
  </outline>
</glyph>
<glyph name="u" format="2">
  <advance width="1165"/>
  <unicode hex="0075"/>
  <outline>
    <contour>
      <point x="1122" y="0" type="line"/>
      <point x="1122" y="80" type="line"/>
      <point x="1032" y="86" type="line" smooth="yes"/>
      <point x="1008" y="88"/>
      <point x="987" y="106"/>
      <point x="987" y="131" type="curve" smooth="yes"/>
      <point x="987" y="1012" type="line"/>
      <point x="903" y="1012" type="line"/>
      <point x="653" y="932" type="line"/>
      <point x="653" y="862" type="line"/>
      <point x="797" y="862" type="line"/>
      <point x="797" y="176" type="line"/>
      <point x="748" y="152"/>
      <point x="659" y="115"/>
      <point x="575" y="115" type="curve" smooth="yes"/>
      <point x="430" y="115"/>
      <point x="377" y="201"/>
      <point x="377" y="346" type="curve" smooth="yes"/>
      <point x="377" y="1012" type="line"/>
      <point x="295" y="1012" type="line"/>
      <point x="43" y="932" type="line"/>
      <point x="43" y="862" type="line"/>
      <point x="186" y="862" type="line"/>
      <point x="186" y="307" type="line" smooth="yes"/>
      <point x="186" y="76"/>
      <point x="293" y="-25"/>
      <point x="469" y="-25" type="curve" smooth="yes"/>
      <point x="590" y="-25"/>
      <point x="727" y="63"/>
      <point x="797" y="117" type="curve"/>
      <point x="797" y="0" type="line"/>
    </contour>
  </outline>
</glyph>
<glyph name="v" format="2">
  <advance width="1083"/>
  <unicode hex="0076"/>
  <outline>
    <contour>
      <point x="1063" y="907" type="line"/>
      <point x="1063" y="987" type="line"/>
      <point x="705" y="987" type="line"/>
      <point x="705" y="907" type="line"/>
      <point x="797" y="901" type="line" smooth="yes"/>
      <point x="815" y="900"/>
      <point x="828" y="885"/>
      <point x="828" y="869" type="curve" smooth="yes"/>
      <point x="828" y="865"/>
      <point x="827" y="860"/>
      <point x="825" y="856" type="curve"/>
      <point x="573" y="215" type="line"/>
      <point x="344" y="856" type="line" smooth="yes"/>
      <point x="343" y="860"/>
      <point x="342" y="864"/>
      <point x="342" y="868" type="curve" smooth="yes"/>
      <point x="342" y="886"/>
      <point x="356" y="899"/>
      <point x="375" y="901" type="curve"/>
      <point x="473" y="907" type="line"/>
      <point x="473" y="987" type="line"/>
      <point x="20" y="987" type="line"/>
      <point x="20" y="907" type="line"/>
      <point x="133" y="895" type="line"/>
      <point x="463" y="0" type="line"/>
      <point x="596" y="0" type="line"/>
      <point x="954" y="895" type="line"/>
    </contour>
  </outline>
</glyph>
<glyph name="w" format="2">
  <advance width="1604"/>
  <unicode hex="0077"/>
  <outline>
    <contour>
      <point x="1583" y="907" type="line"/>
      <point x="1583" y="987" type="line"/>
      <point x="1225" y="987" type="line"/>
      <point x="1225" y="907" type="line"/>
      <point x="1319" y="901" type="line" smooth="yes"/>
      <point x="1337" y="900"/>
      <point x="1349" y="883"/>
      <point x="1349" y="866" type="curve" smooth="yes"/>
      <point x="1349" y="863"/>
      <point x="1349" y="859"/>
      <point x="1348" y="856" type="curve" smooth="yes"/>
      <point x="1159" y="219" type="line"/>
      <point x="922" y="987" type="line"/>
      <point x="776" y="987" type="line"/>
      <point x="512" y="219" type="line"/>
      <point x="342" y="856" type="line" smooth="yes"/>
      <point x="341" y="860"/>
      <point x="341" y="864"/>
      <point x="341" y="867" type="curve" smooth="yes"/>
      <point x="341" y="885"/>
      <point x="354" y="899"/>
      <point x="373" y="901" type="curve"/>
      <point x="469" y="907" type="line"/>
      <point x="469" y="987" type="line"/>
      <point x="20" y="987" type="line"/>
      <point x="20" y="907" type="line"/>
      <point x="133" y="895" type="line"/>
      <point x="395" y="0" type="line"/>
      <point x="541" y="0" type="line"/>
      <point x="811" y="766" type="line"/>
      <point x="1053" y="0" type="line"/>
      <point x="1198" y="0" type="line"/>
      <point x="1479" y="895" type="line"/>
    </contour>
  </outline>
</glyph>
<glyph name="braceleft" format="2">
  <advance width="999"/>
  <unicode hex="007B"/>
  <outline>
    <contour>
      <point x="858" y="-168" type="line"/>
      <point x="823" y="-168"/>
      <point x="700" y="-162"/>
      <point x="649" y="-106" type="curve" smooth="yes"/>
      <point x="604" y="-58"/>
      <point x="600" y="29"/>
      <point x="600" y="120" type="curve" smooth="yes"/>
      <point x="600" y="197" type="line" smooth="yes"/>
      <point x="600" y="291"/>
      <point x="596" y="408"/>
      <point x="542" y="477" type="curve"/>
      <point x="487" y="547"/>
      <point x="408" y="578"/>
      <point x="324" y="596" type="curve"/>
      <point x="408" y="614"/>
      <point x="487" y="643"/>
      <point x="542" y="713" type="curve"/>
      <point x="596" y="782"/>
      <point x="600" y="899"/>
      <point x="600" y="993" type="curve" smooth="yes"/>
      <point x="600" y="1070" type="line" smooth="yes"/>
      <point x="600" y="1161"/>
      <point x="604" y="1248"/>
      <point x="649" y="1296" type="curve" smooth="yes"/>
      <point x="700" y="1352"/>
      <point x="823" y="1358"/>
      <point x="858" y="1358" type="curve"/>
      <point x="858" y="1442" type="line"/>
      <point x="713" y="1442"/>
      <point x="569" y="1423"/>
      <point x="502" y="1352" type="curve" smooth="yes"/>
      <point x="424" y="1269"/>
      <point x="418" y="1161"/>
      <point x="418" y="1047" type="curve" smooth="yes"/>
      <point x="418" y="941" type="line" smooth="yes"/>
      <point x="418" y="855"/>
      <point x="414" y="748"/>
      <point x="360" y="696" type="curve" smooth="yes"/>
      <point x="311" y="649"/>
      <point x="242" y="641"/>
      <point x="123" y="641" type="curve"/>
      <point x="123" y="549" type="line"/>
      <point x="242" y="549"/>
      <point x="311" y="541"/>
      <point x="360" y="494" type="curve" smooth="yes"/>
      <point x="414" y="442"/>
      <point x="418" y="335"/>
      <point x="418" y="249" type="curve" smooth="yes"/>
      <point x="418" y="143" type="line" smooth="yes"/>
      <point x="418" y="29"/>
      <point x="424" y="-80"/>
      <point x="502" y="-162" type="curve" smooth="yes"/>
      <point x="569" y="-233"/>
      <point x="713" y="-252"/>
      <point x="858" y="-252" type="curve"/>
    </contour>
  </outline>
</glyph>
<glyph name="bar" format="2">
  <advance width="1024"/>
  <unicode hex="007C"/>
  <outline>
    <contour>
      <point x="584" y="-483" type="line"/>
      <point x="584" y="1565" type="line"/>
      <point x="440" y="1565" type="line"/>
      <point x="440" y="-483" type="line"/>
    </contour>
  </outline>
</glyph>
<glyph name="braceright" format="2">
  <advance width="999"/>
  <unicode hex="007D"/>
  <outline>
    <contour>
      <point x="877" y="641" type="line"/>
      <point x="635" y="641"/>
      <point x="582" y="689"/>
      <point x="582" y="935" type="curve" smooth="yes"/>
      <point x="582" y="1047" type="line" smooth="yes"/>
      <point x="582" y="1161"/>
      <point x="576" y="1269"/>
      <point x="498" y="1352" type="curve" smooth="yes"/>
      <point x="430" y="1423"/>
      <point x="287" y="1442"/>
      <point x="141" y="1442" type="curve"/>
      <point x="141" y="1358" type="line"/>
      <point x="176" y="1358"/>
      <point x="299" y="1352"/>
      <point x="350" y="1296" type="curve" smooth="yes"/>
      <point x="394" y="1249"/>
      <point x="400" y="1165"/>
      <point x="400" y="1076" type="curve" smooth="yes"/>
      <point x="400" y="1048"/>
      <point x="399" y="1020"/>
      <point x="399" y="993" type="curve" smooth="yes"/>
      <point x="399" y="764"/>
      <point x="436" y="647"/>
      <point x="676" y="596" type="curve"/>
      <point x="437" y="545"/>
      <point x="399" y="424"/>
      <point x="399" y="197" type="curve" smooth="yes"/>
      <point x="399" y="170"/>
      <point x="400" y="142"/>
      <point x="400" y="114" type="curve" smooth="yes"/>
      <point x="400" y="25"/>
      <point x="394" y="-59"/>
      <point x="350" y="-106" type="curve" smooth="yes"/>
      <point x="299" y="-162"/>
      <point x="176" y="-168"/>
      <point x="141" y="-168" type="curve"/>
      <point x="141" y="-252" type="line"/>
      <point x="287" y="-252"/>
      <point x="430" y="-233"/>
      <point x="498" y="-162" type="curve" smooth="yes"/>
      <point x="576" y="-80"/>
      <point x="582" y="29"/>
      <point x="582" y="143" type="curve" smooth="yes"/>
      <point x="582" y="255" type="line" smooth="yes"/>
      <point x="582" y="501"/>
      <point x="635" y="549"/>
      <point x="877" y="549" type="curve"/>
    </contour>
  </outline>
</glyph>
<glyph name="exclamdown" format="2">
  <advance width="1106"/>
  <unicode hex="00A1"/>
  <outline>
    <contour>
      <point x="645" y="952" type="curve" smooth="yes"/>
      <point x="645" y="1038"/>
      <point x="575" y="1107"/>
      <point x="489" y="1107" type="curve" smooth="yes"/>
      <point x="401" y="1107"/>
      <point x="332" y="1038"/>
      <point x="332" y="952" type="curve" smooth="yes"/>
      <point x="332" y="864"/>
      <point x="401" y="794"/>
      <point x="489" y="794" type="curve" smooth="yes"/>
      <point x="575" y="794"/>
      <point x="645" y="864"/>
    </contour>
    <contour>
      <point x="629" y="-1" type="curve" smooth="yes"/>
      <point x="629" y="73"/>
      <point x="616" y="135"/>
      <point x="539" y="698" type="curve"/>
      <point x="442" y="698" type="line"/>
      <point x="362" y="128"/>
      <point x="354" y="68"/>
      <point x="354" y="1" type="curve" smooth="yes"/>
      <point x="354" y="-173"/>
      <point x="401" y="-230"/>
      <point x="489" y="-230" type="curve" smooth="yes"/>
      <point x="578" y="-230"/>
      <point x="629" y="-158"/>
    </contour>
  </outline>
</glyph>
<glyph name="currency" format="2">
  <advance width="1241"/>
  <unicode hex="00A4"/>
  <outline>
    <contour>
      <point x="1155" y="420" type="line"/>
      <point x="948" y="627" type="line"/>
      <point x="1006" y="698"/>
      <point x="1038" y="788"/>
      <point x="1038" y="887" type="curve" smooth="yes"/>
      <point x="1038" y="983"/>
      <point x="1008" y="1071"/>
      <point x="952" y="1141" type="curve"/>
      <point x="1155" y="1346" type="line"/>
      <point x="1083" y="1417" type="line"/>
      <point x="879" y="1214" type="line"/>
      <point x="807" y="1270"/>
      <point x="719" y="1303"/>
      <point x="623" y="1303" type="curve" smooth="yes"/>
      <point x="524" y="1303"/>
      <point x="434" y="1270"/>
      <point x="362" y="1212" type="curve"/>
      <point x="160" y="1417" type="line"/>
      <point x="86" y="1346" type="line"/>
      <point x="291" y="1141" type="line"/>
      <point x="238" y="1071"/>
      <point x="205" y="983"/>
      <point x="205" y="887" type="curve" smooth="yes"/>
      <point x="205" y="791"/>
      <point x="240" y="700"/>
      <point x="295" y="629" type="curve"/>
      <point x="86" y="422" type="line"/>
      <point x="160" y="348" type="line"/>
      <point x="367" y="555" type="line"/>
      <point x="436" y="500"/>
      <point x="526" y="469"/>
      <point x="623" y="469" type="curve" smooth="yes"/>
      <point x="719" y="469"/>
      <point x="807" y="502"/>
      <point x="877" y="555" type="curve"/>
      <point x="1083" y="348" type="line"/>
    </contour>
    <contour>
      <point x="936" y="887" type="curve" smooth="yes"/>
      <point x="936" y="713"/>
      <point x="797" y="571"/>
      <point x="623" y="571" type="curve" smooth="yes"/>
      <point x="449" y="571"/>
      <point x="307" y="713"/>
      <point x="307" y="887" type="curve" smooth="yes"/>
      <point x="307" y="1061"/>
      <point x="449" y="1200"/>
      <point x="623" y="1200" type="curve" smooth="yes"/>
      <point x="797" y="1200"/>
      <point x="936" y="1061"/>
    </contour>
  </outline>
</glyph>
<glyph name="yen" format="2">
  <advance width="1221"/>
  <unicode hex="00A5"/>
  <outline>
    <contour>
      <point x="1200" y="1288" type="line"/>
      <point x="1200" y="1374" type="line"/>
      <point x="809" y="1374" type="line"/>
      <point x="809" y="1288" type="line"/>
      <point x="907" y="1272" type="line" smooth="yes"/>
      <point x="931" y="1268"/>
      <point x="939" y="1255"/>
      <point x="939" y="1243" type="curve" smooth="yes"/>
      <point x="939" y="1237"/>
      <point x="937" y="1231"/>
      <point x="934" y="1227" type="curve"/>
      <point x="637" y="700" type="line"/>
      <point x="367" y="1229" type="line"/>
      <point x="365" y="1234"/>
      <point x="363" y="1239"/>
      <point x="363" y="1244" type="curve" smooth="yes"/>
      <point x="363" y="1259"/>
      <point x="374" y="1271"/>
      <point x="391" y="1274" type="curve" smooth="yes"/>
      <point x="479" y="1288" type="line"/>
      <point x="479" y="1374" type="line"/>
      <point x="20" y="1374" type="line"/>
      <point x="20" y="1288" type="line"/>
      <point x="141" y="1264" type="line"/>
      <point x="344" y="874" type="line"/>
      <point x="66" y="874" type="line"/>
      <point x="66" y="784" type="line"/>
      <point x="393" y="784" type="line"/>
      <point x="504" y="575" type="line"/>
      <point x="66" y="575" type="line"/>
      <point x="66" y="485" type="line"/>
      <point x="508" y="485" type="line"/>
      <point x="508" y="141" type="line" smooth="yes"/>
      <point x="508" y="127"/>
      <point x="494" y="98"/>
      <point x="457" y="96" type="curve"/>
      <point x="336" y="86" type="line"/>
      <point x="336" y="0" type="line"/>
      <point x="870" y="0" type="line"/>
      <point x="870" y="86" type="line"/>
      <point x="752" y="96" type="line"/>
      <point x="715" y="99"/>
      <point x="698" y="127"/>
      <point x="698" y="141" type="curve" smooth="yes"/>
      <point x="698" y="485" type="line"/>
      <point x="1155" y="485" type="line"/>
      <point x="1155" y="575" type="line"/>
      <point x="696" y="575" type="line"/>
      <point x="815" y="784" type="line"/>
      <point x="1155" y="784" type="line"/>
      <point x="1155" y="874" type="line"/>
      <point x="866" y="874" type="line"/>
      <point x="1085" y="1262" type="line"/>
    </contour>
  </outline>
</glyph>
<glyph name="brokenbar" format="2">
  <advance width="1024"/>
  <unicode hex="00A6"/>
  <outline>
    <contour>
      <point x="582" y="674" type="line"/>
      <point x="582" y="1434" type="line"/>
      <point x="442" y="1434" type="line"/>
      <point x="442" y="674" type="line"/>
    </contour>
    <contour>
      <point x="582" y="-350" type="line"/>
      <point x="582" y="410" type="line"/>
      <point x="442" y="410" type="line"/>
      <point x="442" y="-350" type="line"/>
    </contour>
  </outline>
</glyph>
<glyph name="dieresis" format="2">
  <advance width="647"/>
  <unicode hex="00A8"/>
  <outline>
    <contour>
      <point x="647" y="1313" type="curve" smooth="yes"/>
      <point x="647" y="1374"/>
      <point x="598" y="1425"/>
      <point x="537" y="1425" type="curve" smooth="yes"/>
      <point x="479" y="1425"/>
      <point x="424" y="1370"/>
      <point x="424" y="1313" type="curve" smooth="yes"/>
      <point x="424" y="1251"/>
      <point x="475" y="1198"/>
      <point x="537" y="1198" type="curve" smooth="yes"/>
      <point x="598" y="1198"/>
      <point x="647" y="1251"/>
    </contour>
    <contour>
      <point x="223" y="1313" type="curve" smooth="yes"/>
      <point x="223" y="1374"/>
      <point x="172" y="1425"/>
      <point x="111" y="1425" type="curve" smooth="yes"/>
      <point x="51" y="1425"/>
      <point x="-0" y="1370"/>
      <point x="-0" y="1311" type="curve" smooth="yes"/>
      <point x="-0" y="1251"/>
      <point x="51" y="1198"/>
      <point x="111" y="1198" type="curve" smooth="yes"/>
      <point x="172" y="1198"/>
      <point x="223" y="1251"/>
    </contour>
  </outline>
</glyph>
<glyph name="copyright" format="2">
  <advance width="1778"/>
  <unicode hex="00A9"/>
  <outline>
    <contour>
      <point x="1655" y="739" type="curve" smooth="yes"/>
      <point x="1655" y="1163"/>
      <point x="1313" y="1507"/>
      <point x="889" y="1507" type="curve" smooth="yes"/>
      <point x="465" y="1507"/>
      <point x="123" y="1163"/>
      <point x="123" y="739" type="curve" smooth="yes"/>
      <point x="123" y="315"/>
      <point x="465" y="-29"/>
      <point x="889" y="-29" type="curve" smooth="yes"/>
      <point x="1313" y="-29"/>
      <point x="1655" y="315"/>
    </contour>
    <contour>
      <point x="1552" y="739" type="curve" smooth="yes"/>
      <point x="1552" y="371"/>
      <point x="1255" y="74"/>
      <point x="889" y="74" type="curve" smooth="yes"/>
      <point x="522" y="74"/>
      <point x="225" y="371"/>
      <point x="225" y="739" type="curve" smooth="yes"/>
      <point x="225" y="1106"/>
      <point x="522" y="1405"/>
      <point x="889" y="1405" type="curve" smooth="yes"/>
      <point x="1255" y="1405"/>
      <point x="1552" y="1106"/>
    </contour>
    <contour>
      <point x="1288" y="592" type="curve"/>
      <point x="1124" y="592" type="line"/>
      <point x="1116" y="510"/>
      <point x="1061" y="383"/>
      <point x="897" y="383" type="curve" smooth="yes"/>
      <point x="739" y="383"/>
      <point x="629" y="471"/>
      <point x="629" y="735" type="curve" smooth="yes"/>
      <point x="629" y="999"/>
      <point x="745" y="1112"/>
      <point x="866" y="1112" type="curve" smooth="yes"/>
      <point x="1040" y="1112"/>
      <point x="1116" y="1036"/>
      <point x="1116" y="911" type="curve"/>
      <point x="1280" y="911" type="line"/>
      <point x="1280" y="1053"/>
      <point x="1206" y="1223"/>
      <point x="879" y="1223" type="curve" smooth="yes"/>
      <point x="575" y="1223"/>
      <point x="461" y="1024"/>
      <point x="461" y="735" type="curve" smooth="yes"/>
      <point x="461" y="352"/>
      <point x="680" y="256"/>
      <point x="895" y="256" type="curve" smooth="yes"/>
      <point x="1161" y="256"/>
      <point x="1272" y="408"/>
    </contour>
  </outline>
</glyph>
<glyph name="guillemotleft" format="2">
  <advance width="1229"/>
  <unicode hex="00AB"/>
  <outline>
    <contour>
      <point x="1135" y="1149" type="line"/>
      <point x="877" y="1118" type="line"/>
      <point x="616" y="647" type="line"/>
      <point x="868" y="233" type="line"/>
      <point x="1104" y="266" type="line"/>
      <point x="852" y="662" type="line"/>
    </contour>
    <contour>
      <point x="725" y="1149" type="line"/>
      <point x="467" y="1118" type="line"/>
      <point x="207" y="647" type="line"/>
      <point x="459" y="233" type="line"/>
      <point x="694" y="266" type="line"/>
      <point x="442" y="662" type="line"/>
    </contour>
  </outline>
</glyph>
<glyph name="logicalnot" format="2">
  <advance width="1706"/>
  <unicode hex="00AC"/>
  <outline>
    <contour>
      <point x="1442" y="387" type="line"/>
      <point x="1442" y="860" type="line"/>
      <point x="264" y="860" type="line"/>
      <point x="264" y="737" type="line"/>
      <point x="1319" y="737" type="line"/>
      <point x="1319" y="387" type="line"/>
    </contour>
  </outline>
</glyph>
<glyph name="uni00AD" format="2">
  <advance width="655"/>
  <unicode hex="00AD"/>
  <outline>
    <contour>
      <point x="565" y="416" type="line"/>
      <point x="565" y="569" type="line"/>
      <point x="90" y="569" type="line"/>
      <point x="90" y="416" type="line"/>
    </contour>
  </outline>
</glyph>
<glyph name="macron" format="2">
  <advance width="686"/>
  <unicode hex="00AF"/>
  <outline>
    <contour>
      <point x="686" y="1198" type="line"/>
      <point x="686" y="1329" type="line"/>
      <point x="0" y="1329" type="line"/>
      <point x="0" y="1198" type="line"/>
    </contour>
  </outline>
</glyph>
<glyph name="degree" format="2">
  <advance width="655"/>
  <unicode hex="00B0"/>
  <outline>
    <contour>
      <point x="575" y="1249" type="curve" smooth="yes"/>
      <point x="575" y="1386"/>
      <point x="465" y="1497"/>
      <point x="328" y="1497" type="curve" smooth="yes"/>
      <point x="190" y="1497"/>
      <point x="80" y="1386"/>
      <point x="80" y="1249" type="curve" smooth="yes"/>
      <point x="80" y="1112"/>
      <point x="190" y="1001"/>
      <point x="328" y="1001" type="curve" smooth="yes"/>
      <point x="465" y="1001"/>
      <point x="575" y="1112"/>
    </contour>
    <contour>
      <point x="455" y="1249" type="curve" smooth="yes"/>
      <point x="455" y="1180"/>
      <point x="397" y="1122"/>
      <point x="328" y="1122" type="curve" smooth="yes"/>
      <point x="258" y="1122"/>
      <point x="201" y="1180"/>
      <point x="201" y="1249" type="curve" smooth="yes"/>
      <point x="201" y="1319"/>
      <point x="258" y="1376"/>
      <point x="328" y="1376" type="curve" smooth="yes"/>
      <point x="397" y="1376"/>
      <point x="455" y="1319"/>
    </contour>
  </outline>
</glyph>
<glyph name="plusminus" format="2">
  <advance width="1706"/>
  <unicode hex="00B1"/>
  <outline>
    <contour>
      <point x="1452" y="719" type="line"/>
      <point x="1452" y="836" type="line"/>
      <point x="913" y="836" type="line"/>
      <point x="913" y="1180" type="line"/>
      <point x="795" y="1180" type="line"/>
      <point x="795" y="836" type="line"/>
      <point x="254" y="836" type="line"/>
      <point x="254" y="719" type="line"/>
      <point x="795" y="719" type="line"/>
      <point x="795" y="375" type="line"/>
      <point x="913" y="375" type="line"/>
      <point x="913" y="719" type="line"/>
    </contour>
    <contour>
      <point x="1452" y="41" type="line"/>
      <point x="1452" y="158" type="line"/>
      <point x="254" y="158" type="line"/>
      <point x="254" y="41" type="line"/>
    </contour>
  </outline>
</glyph>
<glyph name="twosuperior" format="2">
  <advance width="829"/>
  <unicode hex="00B2"/>
  <outline>
    <contour>
      <point x="726" y="614" type="line"/>
      <point x="726" y="827" type="line"/>
      <point x="656" y="827" type="line"/>
      <point x="633" y="727" type="line"/>
      <point x="251" y="727" type="line"/>
      <point x="269" y="739"/>
      <point x="287" y="752"/>
      <point x="304" y="765" type="curve" smooth="yes"/>
      <point x="523" y="923"/>
      <point x="710" y="1065"/>
      <point x="710" y="1227" type="curve" smooth="yes"/>
      <point x="710" y="1370"/>
      <point x="585" y="1460"/>
      <point x="413" y="1460" type="curve" smooth="yes"/>
      <point x="257" y="1460"/>
      <point x="120" y="1388"/>
      <point x="120" y="1284" type="curve" smooth="yes"/>
      <point x="120" y="1235"/>
      <point x="159" y="1210"/>
      <point x="200" y="1210" type="curve" smooth="yes"/>
      <point x="230" y="1210"/>
      <point x="255" y="1223"/>
      <point x="265" y="1233" type="curve"/>
      <point x="265" y="1368" type="line"/>
      <point x="278" y="1374"/>
      <point x="324" y="1394"/>
      <point x="376" y="1394" type="curve" smooth="yes"/>
      <point x="478" y="1394"/>
      <point x="556" y="1333"/>
      <point x="556" y="1214" type="curve" smooth="yes"/>
      <point x="556" y="1061"/>
      <point x="403" y="935"/>
      <point x="166" y="755" type="curve"/>
      <point x="103" y="707" type="line"/>
      <point x="103" y="614" type="line"/>
    </contour>
  </outline>
</glyph>
<glyph name="threesuperior" format="2">
  <advance width="800"/>
  <unicode hex="00B3"/>
  <outline>
    <contour>
      <point x="711" y="848" type="curve" smooth="yes"/>
      <point x="711" y="983"/>
      <point x="586" y="1045"/>
      <point x="474" y="1050" type="curve"/>
      <point x="605" y="1084"/>
      <point x="676" y="1161"/>
      <point x="676" y="1253" type="curve" smooth="yes"/>
      <point x="676" y="1384"/>
      <point x="557" y="1460"/>
      <point x="404" y="1460" type="curve" smooth="yes"/>
      <point x="244" y="1460"/>
      <point x="111" y="1388"/>
      <point x="111" y="1294" type="curve" smooth="yes"/>
      <point x="111" y="1241"/>
      <point x="156" y="1224"/>
      <point x="187" y="1224" type="curve" smooth="yes"/>
      <point x="220" y="1224"/>
      <point x="240" y="1237"/>
      <point x="246" y="1243" type="curve"/>
      <point x="246" y="1354" type="line"/>
      <point x="267" y="1367"/>
      <point x="314" y="1384"/>
      <point x="367" y="1384" type="curve" smooth="yes"/>
      <point x="457" y="1384"/>
      <point x="531" y="1331"/>
      <point x="531" y="1239" type="curve" smooth="yes"/>
      <point x="531" y="1135"/>
      <point x="441" y="1081"/>
      <point x="328" y="1081" type="curve" smooth="yes"/>
      <point x="316" y="1081"/>
      <point x="299" y="1082"/>
      <point x="293" y="1083" type="curve"/>
      <point x="293" y="995" type="line"/>
      <point x="307" y="998"/>
      <point x="339" y="1002"/>
      <point x="373" y="1002" type="curve" smooth="yes"/>
      <point x="461" y="1002"/>
      <point x="564" y="962"/>
      <point x="564" y="848" type="curve" smooth="yes"/>
      <point x="564" y="760"/>
      <point x="490" y="669"/>
      <point x="367" y="669" type="curve" smooth="yes"/>
      <point x="324" y="669"/>
      <point x="284" y="678"/>
      <point x="249" y="696" type="curve"/>
      <point x="211" y="797" type="line"/>
      <point x="201" y="803"/>
      <point x="177" y="805"/>
      <point x="166" y="805" type="curve" smooth="yes"/>
      <point x="113" y="805"/>
      <point x="88" y="770"/>
      <point x="88" y="737" type="curve" smooth="yes"/>
      <point x="88" y="678"/>
      <point x="183" y="596"/>
      <point x="363" y="596" type="curve" smooth="yes"/>
      <point x="555" y="596"/>
      <point x="711" y="698"/>
    </contour>
  </outline>
</glyph>
<glyph name="acute" format="2">
  <advance width="719"/>
  <unicode hex="00B4"/>
  <outline>
    <contour>
      <point x="719" y="1409" type="curve" smooth="yes"/>
      <point x="719" y="1450"/>
      <point x="696" y="1501"/>
      <point x="625" y="1501" type="curve" smooth="yes"/>
      <point x="569" y="1501"/>
      <point x="545" y="1481"/>
      <point x="514" y="1446" type="curve"/>
      <point x="244" y="1128" type="line"/>
      <point x="358" y="1128" type="line"/>
      <point x="672" y="1327" type="line"/>
      <point x="701" y="1345"/>
      <point x="719" y="1372"/>
    </contour>
  </outline>
</glyph>
<glyph name="paragraph" format="2">
  <advance width="1147"/>
  <unicode hex="00B6"/>
  <outline>
    <contour>
      <point x="1024" y="1399" type="line"/>
      <point x="1024" y="1479" type="line"/>
      <point x="512" y="1479" type="line" smooth="yes"/>
      <point x="354" y="1479"/>
      <point x="123" y="1401"/>
      <point x="123" y="1133" type="curve" smooth="yes"/>
      <point x="123" y="864"/>
      <point x="354" y="782"/>
      <point x="512" y="782" type="curve"/>
      <point x="512" y="-0" type="line"/>
      <point x="614" y="-0" type="line"/>
      <point x="614" y="1399" type="line"/>
      <point x="799" y="1399" type="line"/>
      <point x="799" y="-0" type="line"/>
      <point x="901" y="-0" type="line"/>
      <point x="901" y="1399" type="line"/>
    </contour>
  </outline>
</glyph>
<glyph name="periodcentered" format="2">
  <advance width="575"/>
  <unicode hex="00B7"/>
  <outline>
    <contour>
      <point x="426" y="686" type="curve" smooth="yes"/>
      <point x="426" y="762"/>
      <point x="362" y="825"/>
      <point x="287" y="825" type="curve" smooth="yes"/>
      <point x="211" y="825"/>
      <point x="150" y="762"/>
      <point x="150" y="686" type="curve" smooth="yes"/>
      <point x="150" y="610"/>
      <point x="211" y="549"/>
      <point x="287" y="549" type="curve" smooth="yes"/>
      <point x="362" y="549"/>
      <point x="426" y="608"/>
    </contour>
  </outline>
</glyph>
<glyph name="cedilla" format="2">
  <advance width="473"/>
  <unicode hex="00B8"/>
  <outline>
    <contour>
      <point x="473" y="-266" type="curve" smooth="yes"/>
      <point x="473" y="-162"/>
      <point x="406" y="-121"/>
      <point x="324" y="-121" type="curve" smooth="yes"/>
      <point x="301" y="-121"/>
      <point x="291" y="-127"/>
      <point x="276" y="-129" type="curve"/>
      <point x="276" y="-0" type="line"/>
      <point x="197" y="-0" type="line"/>
      <point x="197" y="-229" type="line"/>
      <point x="197" y="-229"/>
      <point x="223" y="-217"/>
      <point x="244" y="-217" type="curve" smooth="yes"/>
      <point x="297" y="-217"/>
      <point x="340" y="-244"/>
      <point x="340" y="-293" type="curve" smooth="yes"/>
      <point x="340" y="-356"/>
      <point x="272" y="-377"/>
      <point x="207" y="-377" type="curve" smooth="yes"/>
      <point x="156" y="-377"/>
      <point x="84" y="-360"/>
      <point x="84" y="-360" type="curve"/>
      <point x="84" y="-440" type="line"/>
      <point x="84" y="-440"/>
      <point x="164" y="-461"/>
      <point x="236" y="-461" type="curve" smooth="yes"/>
      <point x="373" y="-461"/>
      <point x="473" y="-393"/>
    </contour>
  </outline>
</glyph>
<glyph name="onesuperior" format="2">
  <advance width="829"/>
  <unicode hex="00B9"/>
  <outline>
    <contour>
      <point x="640" y="614" type="line"/>
      <point x="640" y="680" type="line"/>
      <point x="520" y="680" type="line" smooth="yes"/>
      <point x="504" y="680"/>
      <point x="489" y="696"/>
      <point x="489" y="710" type="curve" smooth="yes"/>
      <point x="489" y="1436" type="line"/>
      <point x="425" y="1436" type="line"/>
      <point x="146" y="1354" type="line"/>
      <point x="146" y="1296" type="line"/>
      <point x="348" y="1329" type="line"/>
      <point x="348" y="710" type="line" smooth="yes"/>
      <point x="348" y="696"/>
      <point x="336" y="684"/>
      <point x="320" y="684" type="curve" smooth="yes"/>
      <point x="189" y="684" type="line"/>
      <point x="189" y="614" type="line"/>
    </contour>
  </outline>
</glyph>
<glyph name="guillemotright" format="2">
  <advance width="1229"/>
  <unicode hex="00BB"/>
  <outline>
    <contour>
      <point x="1022" y="735" type="line"/>
      <point x="770" y="1149" type="line"/>
      <point x="535" y="1116" type="line"/>
      <point x="786" y="721" type="line"/>
      <point x="504" y="233" type="line"/>
      <point x="762" y="264" type="line"/>
    </contour>
    <contour>
      <point x="612" y="735" type="line"/>
      <point x="360" y="1149" type="line"/>
      <point x="125" y="1116" type="line"/>
      <point x="377" y="721" type="line"/>
      <point x="94" y="233" type="line"/>
      <point x="352" y="264" type="line"/>
    </contour>
  </outline>
</glyph>
<glyph name="questiondown" format="2">
  <advance width="995"/>
  <unicode hex="00BF"/>
  <outline>
    <contour>
      <point x="711" y="1075" type="curve" smooth="yes"/>
      <point x="711" y="1145"/>
      <point x="655" y="1202"/>
      <point x="586" y="1202" type="curve" smooth="yes"/>
      <point x="516" y="1202"/>
      <point x="459" y="1147"/>
      <point x="459" y="1077" type="curve" smooth="yes"/>
      <point x="459" y="1007"/>
      <point x="514" y="950"/>
      <point x="586" y="950" type="curve" smooth="yes"/>
      <point x="655" y="950"/>
      <point x="711" y="1005"/>
    </contour>
    <contour>
      <point x="893" y="-29" type="curve" smooth="yes"/>
      <point x="893" y="49"/>
      <point x="834" y="84"/>
      <point x="760" y="84" type="curve" smooth="yes"/>
      <point x="756" y="84"/>
      <point x="725" y="80"/>
      <point x="725" y="80" type="curve"/>
      <point x="641" y="-127" type="line"/>
      <point x="455" y="-127"/>
      <point x="348" y="-37"/>
      <point x="348" y="153" type="curve" smooth="yes"/>
      <point x="348" y="356"/>
      <point x="516" y="471"/>
      <point x="645" y="514" type="curve"/>
      <point x="645" y="811" type="line"/>
      <point x="530" y="811" type="line"/>
      <point x="530" y="581" type="line"/>
      <point x="373" y="512"/>
      <point x="141" y="397"/>
      <point x="141" y="137" type="curve" smooth="yes"/>
      <point x="141" y="-86"/>
      <point x="326" y="-230"/>
      <point x="567" y="-230" type="curve" smooth="yes"/>
      <point x="791" y="-230"/>
      <point x="893" y="-125"/>
    </contour>
  </outline>
</glyph>
<glyph name="Atilde" format="2">
  <advance width="1380"/>
  <unicode hex="00C3"/>
  <outline>
    <contour>
      <point x="1028" y="1812" type="curve"/>
      <point x="946" y="1812" type="line"/>
      <point x="940" y="1763"/>
      <point x="895" y="1714"/>
      <point x="840" y="1714" type="curve" smooth="yes"/>
      <point x="707" y="1714"/>
      <point x="664" y="1812"/>
      <point x="555" y="1812" type="curve" smooth="yes"/>
      <point x="422" y="1812"/>
      <point x="348" y="1708"/>
      <point x="317" y="1587" type="curve"/>
      <point x="399" y="1587" type="line"/>
      <point x="406" y="1636"/>
      <point x="453" y="1686"/>
      <point x="508" y="1686" type="curve" smooth="yes"/>
      <point x="641" y="1686"/>
      <point x="682" y="1587"/>
      <point x="791" y="1587" type="curve" smooth="yes"/>
      <point x="924" y="1587"/>
      <point x="997" y="1692"/>
    </contour>
    <contour>
      <point x="1370" y="-0" type="line"/>
      <point x="1370" y="88" type="line"/>
      <point x="1278" y="104" type="line" smooth="yes"/>
      <point x="1247" y="109"/>
      <point x="1245" y="115"/>
      <point x="1235" y="143" type="curve" smooth="yes"/>
      <point x="760" y="1407" type="line"/>
      <point x="606" y="1407" type="line"/>
      <point x="129" y="113" type="line"/>
      <point x="10" y="88" type="line"/>
      <point x="10" y="-0" type="line"/>
      <point x="422" y="-0" type="line"/>
      <point x="422" y="88" type="line"/>
      <point x="301" y="98" type="line"/>
      <point x="289" y="98"/>
      <point x="271" y="117"/>
      <point x="271" y="133" type="curve"/>
      <point x="271" y="135"/>
      <point x="271" y="137"/>
      <point x="272" y="139" type="curve" smooth="yes"/>
      <point x="408" y="508" type="line"/>
      <point x="881" y="508" type="line"/>
      <point x="1022" y="133" type="line"/>
      <point x="1023" y="132"/>
      <point x="1023" y="130"/>
      <point x="1023" y="128" type="curve"/>
      <point x="1023" y="116"/>
      <point x="1012" y="98"/>
      <point x="1001" y="98" type="curve"/>
      <point x="883" y="88" type="line"/>
      <point x="883" y="-0" type="line"/>
    </contour>
    <contour>
      <point x="844" y="606" type="line"/>
      <point x="444" y="606" type="line"/>
      <point x="643" y="1143" type="line"/>
    </contour>
  </outline>
</glyph>
<glyph name="Ccedilla" format="2">
  <advance width="1284"/>
  <unicode hex="00C7"/>
  <outline>
    <contour>
      <point x="1204" y="379" type="line"/>
      <point x="1085" y="379" type="line"/>
      <point x="1038" y="156" type="line" smooth="yes"/>
      <point x="1034" y="139"/>
      <point x="1020" y="123"/>
      <point x="999" y="115" type="curve"/>
      <point x="995" y="113"/>
      <point x="930" y="80"/>
      <point x="834" y="80" type="curve" smooth="yes"/>
      <point x="510" y="80"/>
      <point x="315" y="315"/>
      <point x="315" y="696" type="curve" smooth="yes"/>
      <point x="315" y="1090"/>
      <point x="528" y="1292"/>
      <point x="807" y="1292" type="curve" smooth="yes"/>
      <point x="901" y="1292"/>
      <point x="973" y="1259"/>
      <point x="1008" y="1243" type="curve" smooth="yes"/>
      <point x="1016" y="1239" type="line" smooth="yes"/>
      <point x="1028" y="1233"/>
      <point x="1049" y="1210"/>
      <point x="1051" y="1192" type="curve"/>
      <point x="1081" y="1006" type="line"/>
      <point x="1204" y="1006" type="line"/>
      <point x="1204" y="1327" type="line"/>
      <point x="1038" y="1378"/>
      <point x="930" y="1407"/>
      <point x="797" y="1407" type="curve" smooth="yes"/>
      <point x="369" y="1407"/>
      <point x="80" y="1114"/>
      <point x="80" y="690" type="curve" smooth="yes"/>
      <point x="80" y="332"/>
      <point x="311" y="0"/>
      <point x="729" y="-31" type="curve"/>
      <point x="729" y="-229" type="line"/>
      <point x="729" y="-229"/>
      <point x="756" y="-217"/>
      <point x="776" y="-217" type="curve" smooth="yes"/>
      <point x="829" y="-217"/>
      <point x="872" y="-244"/>
      <point x="872" y="-293" type="curve" smooth="yes"/>
      <point x="872" y="-356"/>
      <point x="807" y="-377"/>
      <point x="741" y="-377" type="curve" smooth="yes"/>
      <point x="690" y="-377"/>
      <point x="616" y="-360"/>
      <point x="616" y="-360" type="curve"/>
      <point x="616" y="-440" type="line"/>
      <point x="616" y="-440"/>
      <point x="696" y="-461"/>
      <point x="768" y="-461" type="curve" smooth="yes"/>
      <point x="905" y="-461"/>
      <point x="1008" y="-393"/>
      <point x="1008" y="-266" type="curve" smooth="yes"/>
      <point x="1008" y="-162"/>
      <point x="940" y="-121"/>
      <point x="858" y="-121" type="curve" smooth="yes"/>
      <point x="836" y="-121"/>
      <point x="825" y="-127"/>
      <point x="811" y="-129" type="curve"/>
      <point x="811" y="-33" type="line"/>
      <point x="1014" y="-31"/>
      <point x="1194" y="43"/>
      <point x="1204" y="47" type="curve"/>
    </contour>
  </outline>
</glyph>
<glyph name="Eacute" format="2">
  <advance width="1194"/>
  <unicode hex="00C9"/>
  <outline>
    <contour>
      <point x="1128" y="0" type="line"/>
      <point x="1128" y="342" type="line"/>
      <point x="1018" y="342" type="line"/>
      <point x="981" y="139" type="line"/>
      <point x="979" y="125"/>
      <point x="961" y="100"/>
      <point x="944" y="100" type="curve" smooth="yes"/>
      <point x="426" y="100" type="line"/>
      <point x="426" y="664" type="line"/>
      <point x="733" y="664" type="line" smooth="yes"/>
      <point x="750" y="664"/>
      <point x="770" y="641"/>
      <point x="770" y="627" type="curve"/>
      <point x="791" y="485" type="line"/>
      <point x="895" y="485" type="line"/>
      <point x="895" y="942" type="line"/>
      <point x="791" y="942" type="line"/>
      <point x="770" y="801" type="line"/>
      <point x="770" y="786"/>
      <point x="752" y="766"/>
      <point x="733" y="766" type="curve" smooth="yes"/>
      <point x="426" y="766" type="line"/>
      <point x="426" y="1276" type="line"/>
      <point x="870" y="1276" type="line" smooth="yes"/>
      <point x="889" y="1276"/>
      <point x="905" y="1257"/>
      <point x="907" y="1237" type="curve"/>
      <point x="938" y="1069" type="line"/>
      <point x="1061" y="1069" type="line"/>
      <point x="1061" y="1374" type="line"/>
      <point x="66" y="1374" type="line"/>
      <point x="66" y="1286" type="line"/>
      <point x="172" y="1278" type="line" smooth="yes"/>
      <point x="201" y="1276"/>
      <point x="217" y="1253"/>
      <point x="217" y="1233" type="curve" smooth="yes"/>
      <point x="217" y="141" type="line" smooth="yes"/>
      <point x="217" y="121"/>
      <point x="201" y="98"/>
      <point x="172" y="96" type="curve" smooth="yes"/>
      <point x="66" y="88" type="line"/>
      <point x="66" y="0" type="line"/>
    </contour>
    <contour>
      <point x="961" y="1806" type="curve" smooth="yes"/>
      <point x="961" y="1847"/>
      <point x="938" y="1896"/>
      <point x="866" y="1896" type="curve" smooth="yes"/>
      <point x="811" y="1896"/>
      <point x="791" y="1876"/>
      <point x="760" y="1841" type="curve" smooth="yes"/>
      <point x="485" y="1524" type="line"/>
      <point x="602" y="1524" type="line"/>
      <point x="913" y="1722" type="line" smooth="yes"/>
      <point x="942" y="1741"/>
      <point x="961" y="1769"/>
    </contour>
  </outline>
</glyph>
<glyph name="Igrave" format="2">
  <advance width="676"/>
  <unicode hex="00CC"/>
  <outline>
    <contour>
      <point x="473" y="1524" type="line"/>
      <point x="199" y="1841" type="line"/>
      <point x="169" y="1875"/>
      <point x="147" y="1896"/>
      <point x="92" y="1896" type="curve" smooth="yes"/>
      <point x="20" y="1896"/>
      <point x="-2" y="1847"/>
      <point x="-2" y="1806" type="curve" smooth="yes"/>
      <point x="-2" y="1769"/>
      <point x="16" y="1741"/>
      <point x="45" y="1722" type="curve" smooth="yes"/>
      <point x="356" y="1524" type="line"/>
    </contour>
    <contour>
      <point x="608" y="0" type="line"/>
      <point x="608" y="88" type="line"/>
      <point x="483" y="96" type="line" smooth="yes"/>
      <point x="455" y="98"/>
      <point x="440" y="121"/>
      <point x="440" y="141" type="curve" smooth="yes"/>
      <point x="440" y="1233" type="line" smooth="yes"/>
      <point x="440" y="1253"/>
      <point x="455" y="1274"/>
      <point x="483" y="1276" type="curve" smooth="yes"/>
      <point x="608" y="1284" type="line"/>
      <point x="608" y="1374" type="line"/>
      <point x="68" y="1374" type="line"/>
      <point x="68" y="1284" type="line"/>
      <point x="190" y="1276" type="line" smooth="yes"/>
      <point x="219" y="1274"/>
      <point x="233" y="1253"/>
      <point x="233" y="1233" type="curve" smooth="yes"/>
      <point x="233" y="141" type="line" smooth="yes"/>
      <point x="233" y="121"/>
      <point x="219" y="98"/>
      <point x="190" y="96" type="curve" smooth="yes"/>
      <point x="68" y="88" type="line"/>
      <point x="68" y="0" type="line"/>
    </contour>
  </outline>
</glyph>
<glyph name="Iacute" format="2">
  <advance width="676"/>
  <unicode hex="00CD"/>
  <outline>
    <contour>
      <point x="662" y="1806" type="curve" smooth="yes"/>
      <point x="662" y="1847"/>
      <point x="639" y="1896"/>
      <point x="567" y="1896" type="curve" smooth="yes"/>
      <point x="512" y="1896"/>
      <point x="492" y="1876"/>
      <point x="461" y="1841" type="curve" smooth="yes"/>
      <point x="186" y="1524" type="line"/>
      <point x="303" y="1524" type="line"/>
      <point x="614" y="1722" type="line" smooth="yes"/>
      <point x="643" y="1741"/>
      <point x="662" y="1769"/>
    </contour>
    <contour>
      <point x="608" y="0" type="line"/>
      <point x="608" y="88" type="line"/>
      <point x="483" y="96" type="line" smooth="yes"/>
      <point x="455" y="98"/>
      <point x="440" y="121"/>
      <point x="440" y="141" type="curve" smooth="yes"/>
      <point x="440" y="1233" type="line" smooth="yes"/>
      <point x="440" y="1253"/>
      <point x="455" y="1274"/>
      <point x="483" y="1276" type="curve" smooth="yes"/>
      <point x="608" y="1284" type="line"/>
      <point x="608" y="1374" type="line"/>
      <point x="68" y="1374" type="line"/>
      <point x="68" y="1284" type="line"/>
      <point x="190" y="1276" type="line" smooth="yes"/>
      <point x="219" y="1274"/>
      <point x="233" y="1253"/>
      <point x="233" y="1233" type="curve" smooth="yes"/>
      <point x="233" y="141" type="line" smooth="yes"/>
      <point x="233" y="121"/>
      <point x="219" y="98"/>
      <point x="190" y="96" type="curve" smooth="yes"/>
      <point x="68" y="88" type="line"/>
      <point x="68" y="0" type="line"/>
    </contour>
  </outline>
</glyph>
<glyph name="Idieresis" format="2">
  <advance width="676"/>
  <unicode hex="00CF"/>
  <outline>
    <contour>
      <point x="662" y="1702" type="curve" smooth="yes"/>
      <point x="662" y="1763"/>
      <point x="610" y="1815"/>
      <point x="549" y="1815" type="curve" smooth="yes"/>
      <point x="492" y="1815"/>
      <point x="438" y="1759"/>
      <point x="438" y="1702" type="curve" smooth="yes"/>
      <point x="438" y="1640"/>
      <point x="489" y="1587"/>
      <point x="551" y="1587" type="curve" smooth="yes"/>
      <point x="612" y="1587"/>
      <point x="662" y="1640"/>
    </contour>
    <contour>
      <point x="238" y="1702" type="curve" smooth="yes"/>
      <point x="238" y="1763"/>
      <point x="186" y="1815"/>
      <point x="125" y="1815" type="curve" smooth="yes"/>
      <point x="66" y="1815"/>
      <point x="14" y="1759"/>
      <point x="14" y="1700" type="curve" smooth="yes"/>
      <point x="14" y="1640"/>
      <point x="66" y="1587"/>
      <point x="125" y="1587" type="curve" smooth="yes"/>
      <point x="186" y="1587"/>
      <point x="238" y="1640"/>
    </contour>
    <contour>
      <point x="608" y="0" type="line"/>
      <point x="608" y="88" type="line"/>
      <point x="483" y="96" type="line" smooth="yes"/>
      <point x="455" y="98"/>
      <point x="440" y="121"/>
      <point x="440" y="141" type="curve" smooth="yes"/>
      <point x="440" y="1233" type="line" smooth="yes"/>
      <point x="440" y="1253"/>
      <point x="455" y="1274"/>
      <point x="483" y="1276" type="curve" smooth="yes"/>
      <point x="608" y="1284" type="line"/>
      <point x="608" y="1374" type="line"/>
      <point x="68" y="1374" type="line"/>
      <point x="68" y="1284" type="line"/>
      <point x="190" y="1276" type="line" smooth="yes"/>
      <point x="219" y="1274"/>
      <point x="233" y="1253"/>
      <point x="233" y="1233" type="curve" smooth="yes"/>
      <point x="233" y="141" type="line" smooth="yes"/>
      <point x="233" y="121"/>
      <point x="219" y="98"/>
      <point x="190" y="96" type="curve" smooth="yes"/>
      <point x="68" y="88" type="line"/>
      <point x="68" y="0" type="line"/>
    </contour>
  </outline>
</glyph>
<glyph name="Eth" format="2">
  <advance width="1425"/>
  <unicode hex="00D0"/>
  <outline>
    <contour>
      <point x="1346" y="686" type="curve" smooth="yes"/>
      <point x="1346" y="1178"/>
      <point x="1010" y="1374"/>
      <point x="592" y="1374" type="curve" smooth="yes"/>
      <point x="66" y="1374" type="line"/>
      <point x="66" y="1286" type="line"/>
      <point x="174" y="1276" type="line" smooth="yes"/>
      <point x="195" y="1274"/>
      <point x="217" y="1253"/>
      <point x="217" y="1233" type="curve" smooth="yes"/>
      <point x="217" y="772" type="line"/>
      <point x="31" y="772" type="line"/>
      <point x="31" y="668" type="line"/>
      <point x="217" y="668" type="line"/>
      <point x="217" y="141" type="line" smooth="yes"/>
      <point x="217" y="123"/>
      <point x="201" y="98"/>
      <point x="174" y="96" type="curve" smooth="yes"/>
      <point x="66" y="88" type="line"/>
      <point x="66" y="-0" type="line"/>
      <point x="637" y="-0" type="line" smooth="yes"/>
      <point x="1108" y="-0"/>
      <point x="1346" y="297"/>
    </contour>
    <contour>
      <point x="1114" y="686" type="curve" smooth="yes"/>
      <point x="1114" y="287"/>
      <point x="924" y="98"/>
      <point x="584" y="98" type="curve" smooth="yes"/>
      <point x="424" y="98" type="line"/>
      <point x="424" y="668" type="line"/>
      <point x="752" y="668" type="line"/>
      <point x="752" y="772" type="line"/>
      <point x="424" y="772" type="line"/>
      <point x="424" y="1276" type="line"/>
      <point x="582" y="1276" type="line" smooth="yes"/>
      <point x="920" y="1276"/>
      <point x="1114" y="1100"/>
    </contour>
  </outline>
</glyph>
<glyph name="Ntilde" format="2">
  <advance width="1477"/>
  <unicode hex="00D1"/>
  <outline>
    <contour>
      <point x="1114" y="1812" type="curve"/>
      <point x="1032" y="1812" type="line"/>
      <point x="1026" y="1763"/>
      <point x="981" y="1714"/>
      <point x="926" y="1714" type="curve" smooth="yes"/>
      <point x="793" y="1714"/>
      <point x="750" y="1812"/>
      <point x="641" y="1812" type="curve" smooth="yes"/>
      <point x="508" y="1812"/>
      <point x="436" y="1708"/>
      <point x="406" y="1587" type="curve"/>
      <point x="487" y="1587" type="line"/>
      <point x="494" y="1636"/>
      <point x="539" y="1686"/>
      <point x="594" y="1686" type="curve" smooth="yes"/>
      <point x="727" y="1686"/>
      <point x="770" y="1587"/>
      <point x="879" y="1587" type="curve" smooth="yes"/>
      <point x="1012" y="1587"/>
      <point x="1083" y="1692"/>
    </contour>
    <contour>
      <point x="1417" y="1286" type="line"/>
      <point x="1417" y="1374" type="line"/>
      <point x="979" y="1374" type="line"/>
      <point x="979" y="1286" type="line"/>
      <point x="1096" y="1278" type="line" smooth="yes"/>
      <point x="1124" y="1276"/>
      <point x="1139" y="1253"/>
      <point x="1139" y="1233" type="curve" smooth="yes"/>
      <point x="1139" y="293" type="line"/>
      <point x="457" y="1323" type="line"/>
      <point x="457" y="1374" type="line"/>
      <point x="51" y="1374" type="line"/>
      <point x="51" y="1286" type="line"/>
      <point x="172" y="1278" type="line" smooth="yes"/>
      <point x="201" y="1276"/>
      <point x="217" y="1253"/>
      <point x="217" y="1233" type="curve" smooth="yes"/>
      <point x="217" y="141" type="line" smooth="yes"/>
      <point x="217" y="121"/>
      <point x="201" y="98"/>
      <point x="172" y="96" type="curve" smooth="yes"/>
      <point x="55" y="88" type="line"/>
      <point x="55" y="0" type="line"/>
      <point x="498" y="0" type="line"/>
      <point x="498" y="88" type="line"/>
      <point x="381" y="96" type="line" smooth="yes"/>
      <point x="352" y="98"/>
      <point x="338" y="121"/>
      <point x="338" y="141" type="curve" smooth="yes"/>
      <point x="338" y="1147" type="line"/>
      <point x="1100" y="0" type="line"/>
      <point x="1260" y="0" type="line"/>
      <point x="1260" y="1233" type="line" smooth="yes"/>
      <point x="1260" y="1253"/>
      <point x="1274" y="1276"/>
      <point x="1303" y="1278" type="curve" smooth="yes"/>
    </contour>
  </outline>
</glyph>
<glyph name="Ograve" format="2">
  <advance width="1497"/>
  <unicode hex="00D2"/>
  <outline>
    <contour>
      <point x="856" y="1524" type="line"/>
      <point x="582" y="1841" type="line"/>
      <point x="552" y="1875"/>
      <point x="530" y="1896"/>
      <point x="475" y="1896" type="curve" smooth="yes"/>
      <point x="403" y="1896"/>
      <point x="381" y="1847"/>
      <point x="381" y="1806" type="curve" smooth="yes"/>
      <point x="381" y="1769"/>
      <point x="399" y="1741"/>
      <point x="428" y="1722" type="curve" smooth="yes"/>
      <point x="739" y="1524" type="line"/>
    </contour>
    <contour>
      <point x="1417" y="686" type="curve" smooth="yes"/>
      <point x="1417" y="1083"/>
      <point x="1153" y="1407"/>
      <point x="748" y="1407" type="curve" smooth="yes"/>
      <point x="340" y="1407"/>
      <point x="80" y="1087"/>
      <point x="80" y="688" type="curve" smooth="yes"/>
      <point x="80" y="276"/>
      <point x="348" y="-33"/>
      <point x="750" y="-33" type="curve" smooth="yes"/>
      <point x="1151" y="-33"/>
      <point x="1417" y="289"/>
    </contour>
    <contour>
      <point x="1180" y="684" type="curve" smooth="yes"/>
      <point x="1180" y="360"/>
      <point x="1040" y="80"/>
      <point x="745" y="80" type="curve" smooth="yes"/>
      <point x="455" y="80"/>
      <point x="315" y="360"/>
      <point x="315" y="688" type="curve" smooth="yes"/>
      <point x="315" y="1014"/>
      <point x="453" y="1290"/>
      <point x="750" y="1290" type="curve" smooth="yes"/>
      <point x="1036" y="1290"/>
      <point x="1180" y="1018"/>
    </contour>
  </outline>
</glyph>
<glyph name="Oacute" format="2">
  <advance width="1497"/>
  <unicode hex="00D3"/>
  <outline>
    <contour>
      <point x="1106" y="1806" type="curve" smooth="yes"/>
      <point x="1106" y="1847"/>
      <point x="1083" y="1896"/>
      <point x="1012" y="1896" type="curve" smooth="yes"/>
      <point x="956" y="1896"/>
      <point x="934" y="1876"/>
      <point x="905" y="1841" type="curve" smooth="yes"/>
      <point x="631" y="1524" type="line"/>
      <point x="748" y="1524" type="line"/>
      <point x="1059" y="1722" type="line" smooth="yes"/>
      <point x="1088" y="1740"/>
      <point x="1106" y="1769"/>
    </contour>
    <contour>
      <point x="1417" y="686" type="curve" smooth="yes"/>
      <point x="1417" y="1083"/>
      <point x="1153" y="1407"/>
      <point x="748" y="1407" type="curve" smooth="yes"/>
      <point x="340" y="1407"/>
      <point x="80" y="1087"/>
      <point x="80" y="688" type="curve" smooth="yes"/>
      <point x="80" y="276"/>
      <point x="348" y="-33"/>
      <point x="750" y="-33" type="curve" smooth="yes"/>
      <point x="1151" y="-33"/>
      <point x="1417" y="289"/>
    </contour>
    <contour>
      <point x="1180" y="684" type="curve" smooth="yes"/>
      <point x="1180" y="360"/>
      <point x="1040" y="80"/>
      <point x="745" y="80" type="curve" smooth="yes"/>
      <point x="455" y="80"/>
      <point x="315" y="360"/>
      <point x="315" y="688" type="curve" smooth="yes"/>
      <point x="315" y="1014"/>
      <point x="453" y="1290"/>
      <point x="750" y="1290" type="curve" smooth="yes"/>
      <point x="1036" y="1290"/>
      <point x="1180" y="1018"/>
    </contour>
  </outline>
</glyph>
<glyph name="Otilde" format="2">
  <advance width="1497"/>
  <unicode hex="00D5"/>
  <outline>
    <contour>
      <point x="1100" y="1812" type="curve"/>
      <point x="1018" y="1812" type="line"/>
      <point x="1012" y="1763"/>
      <point x="965" y="1714"/>
      <point x="909" y="1714" type="curve" smooth="yes"/>
      <point x="776" y="1714"/>
      <point x="735" y="1812"/>
      <point x="627" y="1812" type="curve" smooth="yes"/>
      <point x="494" y="1812"/>
      <point x="420" y="1708"/>
      <point x="389" y="1587" type="curve"/>
      <point x="471" y="1587" type="line"/>
      <point x="477" y="1636"/>
      <point x="522" y="1686"/>
      <point x="578" y="1686" type="curve" smooth="yes"/>
      <point x="711" y="1686"/>
      <point x="754" y="1587"/>
      <point x="862" y="1587" type="curve" smooth="yes"/>
      <point x="995" y="1587"/>
      <point x="1069" y="1692"/>
    </contour>
    <contour>
      <point x="1417" y="686" type="curve" smooth="yes"/>
      <point x="1417" y="1083"/>
      <point x="1153" y="1407"/>
      <point x="748" y="1407" type="curve" smooth="yes"/>
      <point x="340" y="1407"/>
      <point x="80" y="1087"/>
      <point x="80" y="688" type="curve" smooth="yes"/>
      <point x="80" y="276"/>
      <point x="348" y="-33"/>
      <point x="750" y="-33" type="curve" smooth="yes"/>
      <point x="1151" y="-33"/>
      <point x="1417" y="289"/>
    </contour>
    <contour>
      <point x="1180" y="684" type="curve" smooth="yes"/>
      <point x="1180" y="360"/>
      <point x="1040" y="80"/>
      <point x="745" y="80" type="curve" smooth="yes"/>
      <point x="455" y="80"/>
      <point x="315" y="360"/>
      <point x="315" y="688" type="curve" smooth="yes"/>
      <point x="315" y="1014"/>
      <point x="453" y="1290"/>
      <point x="750" y="1290" type="curve" smooth="yes"/>
      <point x="1036" y="1290"/>
      <point x="1180" y="1018"/>
    </contour>
  </outline>
</glyph>
<glyph name="Odieresis" format="2">
  <advance width="1499"/>
  <unicode hex="00D6"/>
  <outline>
    <contour>
      <point x="1069" y="1702" type="curve" smooth="yes"/>
      <point x="1069" y="1763"/>
      <point x="1018" y="1815"/>
      <point x="956" y="1815" type="curve" smooth="yes"/>
      <point x="899" y="1815"/>
      <point x="846" y="1759"/>
      <point x="846" y="1702" type="curve" smooth="yes"/>
      <point x="846" y="1640"/>
      <point x="897" y="1587"/>
      <point x="958" y="1587" type="curve" smooth="yes"/>
      <point x="1020" y="1587"/>
      <point x="1069" y="1640"/>
    </contour>
    <contour>
      <point x="645" y="1702" type="curve" smooth="yes"/>
      <point x="645" y="1763"/>
      <point x="594" y="1815"/>
      <point x="532" y="1815" type="curve" smooth="yes"/>
      <point x="473" y="1815"/>
      <point x="422" y="1759"/>
      <point x="422" y="1700" type="curve" smooth="yes"/>
      <point x="422" y="1640"/>
      <point x="473" y="1587"/>
      <point x="532" y="1587" type="curve" smooth="yes"/>
      <point x="594" y="1587"/>
      <point x="645" y="1640"/>
    </contour>
    <contour>
      <point x="1417" y="686" type="curve" smooth="yes"/>
      <point x="1417" y="1083"/>
      <point x="1153" y="1407"/>
      <point x="748" y="1407" type="curve" smooth="yes"/>
      <point x="340" y="1407"/>
      <point x="80" y="1087"/>
      <point x="80" y="688" type="curve" smooth="yes"/>
      <point x="80" y="276"/>
      <point x="348" y="-33"/>
      <point x="750" y="-33" type="curve" smooth="yes"/>
      <point x="1151" y="-33"/>
      <point x="1417" y="289"/>
    </contour>
    <contour>
      <point x="1180" y="684" type="curve" smooth="yes"/>
      <point x="1180" y="360"/>
      <point x="1040" y="80"/>
      <point x="745" y="80" type="curve" smooth="yes"/>
      <point x="455" y="80"/>
      <point x="315" y="360"/>
      <point x="315" y="688" type="curve" smooth="yes"/>
      <point x="315" y="1014"/>
      <point x="453" y="1290"/>
      <point x="750" y="1290" type="curve" smooth="yes"/>
      <point x="1036" y="1290"/>
      <point x="1180" y="1018"/>
    </contour>
  </outline>
</glyph>
<glyph name="multiply" format="2">
  <advance width="1202"/>
  <unicode hex="00D7"/>
  <outline>
    <contour>
      <point x="1063" y="309" type="line"/>
      <point x="760" y="604" type="line"/>
      <point x="1059" y="907" type="line"/>
      <point x="905" y="1061" type="line"/>
      <point x="606" y="758" type="line"/>
      <point x="307" y="1063" type="line"/>
      <point x="156" y="911" type="line"/>
      <point x="455" y="606" type="line"/>
      <point x="154" y="309" type="line"/>
      <point x="307" y="156" type="line"/>
      <point x="608" y="453" type="line"/>
      <point x="911" y="158" type="line"/>
    </contour>
  </outline>
</glyph>
<glyph name="Ugrave" format="2">
  <advance width="1458"/>
  <unicode hex="00D9"/>
  <outline>
    <contour>
      <point x="866" y="1524" type="line"/>
      <point x="592" y="1841" type="line"/>
      <point x="562" y="1875"/>
      <point x="541" y="1896"/>
      <point x="485" y="1896" type="curve" smooth="yes"/>
      <point x="414" y="1896"/>
      <point x="391" y="1847"/>
      <point x="391" y="1806" type="curve" smooth="yes"/>
      <point x="391" y="1769"/>
      <point x="410" y="1741"/>
      <point x="438" y="1722" type="curve"/>
      <point x="750" y="1524" type="line"/>
    </contour>
    <contour>
      <point x="1403" y="1286" type="line"/>
      <point x="1403" y="1374" type="line"/>
      <point x="958" y="1374" type="line"/>
      <point x="958" y="1286" type="line"/>
      <point x="1075" y="1278" type="line" smooth="yes"/>
      <point x="1104" y="1276"/>
      <point x="1120" y="1253"/>
      <point x="1120" y="1233" type="curve" smooth="yes"/>
      <point x="1120" y="508" type="line" smooth="yes"/>
      <point x="1120" y="281"/>
      <point x="1053" y="104"/>
      <point x="770" y="104" type="curve" smooth="yes"/>
      <point x="485" y="104"/>
      <point x="424" y="268"/>
      <point x="424" y="508" type="curve" smooth="yes"/>
      <point x="424" y="1233" type="line" smooth="yes"/>
      <point x="424" y="1253"/>
      <point x="438" y="1276"/>
      <point x="467" y="1278" type="curve" smooth="yes"/>
      <point x="584" y="1286" type="line"/>
      <point x="584" y="1374" type="line"/>
      <point x="63" y="1374" type="line"/>
      <point x="63" y="1286" type="line"/>
      <point x="172" y="1278" type="line" smooth="yes"/>
      <point x="201" y="1276"/>
      <point x="215" y="1253"/>
      <point x="215" y="1233" type="curve" smooth="yes"/>
      <point x="215" y="455" type="line" smooth="yes"/>
      <point x="215" y="133"/>
      <point x="377" y="-33"/>
      <point x="715" y="-33" type="curve" smooth="yes"/>
      <point x="1057" y="-33"/>
      <point x="1241" y="119"/>
      <point x="1241" y="455" type="curve" smooth="yes"/>
      <point x="1241" y="1233" type="line" smooth="yes"/>
      <point x="1241" y="1253"/>
      <point x="1255" y="1276"/>
      <point x="1284" y="1278" type="curve" smooth="yes"/>
    </contour>
  </outline>
</glyph>
<glyph name="Yacute" format="2">
  <advance width="1280"/>
  <unicode hex="00DD"/>
  <outline>
    <contour>
      <point x="975" y="1806" type="curve" smooth="yes"/>
      <point x="975" y="1847"/>
      <point x="952" y="1896"/>
      <point x="881" y="1896" type="curve" smooth="yes"/>
      <point x="825" y="1896"/>
      <point x="801" y="1876"/>
      <point x="772" y="1841" type="curve" smooth="yes"/>
      <point x="500" y="1524" type="line"/>
      <point x="616" y="1524" type="line"/>
      <point x="928" y="1722" type="line" smooth="yes"/>
      <point x="957" y="1740"/>
      <point x="975" y="1769"/>
    </contour>
    <contour>
      <point x="1262" y="1286" type="line"/>
      <point x="1262" y="1374" type="line"/>
      <point x="846" y="1374" type="line"/>
      <point x="846" y="1286" type="line"/>
      <point x="961" y="1272" type="line" smooth="yes"/>
      <point x="976" y="1270"/>
      <point x="989" y="1258"/>
      <point x="989" y="1243" type="curve" smooth="yes"/>
      <point x="989" y="1238"/>
      <point x="988" y="1234"/>
      <point x="985" y="1229" type="curve" smooth="yes"/>
      <point x="668" y="700" type="line"/>
      <point x="379" y="1235" type="line"/>
      <point x="376" y="1240"/>
      <point x="375" y="1246"/>
      <point x="375" y="1252" type="curve" smooth="yes"/>
      <point x="375" y="1263"/>
      <point x="382" y="1273"/>
      <point x="403" y="1276" type="curve"/>
      <point x="506" y="1286" type="line"/>
      <point x="506" y="1374" type="line"/>
      <point x="20" y="1374" type="line"/>
      <point x="20" y="1286" type="line"/>
      <point x="139" y="1262" type="line"/>
      <point x="532" y="553" type="line"/>
      <point x="532" y="141" type="line" smooth="yes"/>
      <point x="532" y="121"/>
      <point x="516" y="98"/>
      <point x="487" y="96" type="curve" smooth="yes"/>
      <point x="360" y="88" type="line"/>
      <point x="360" y="0" type="line"/>
      <point x="913" y="0" type="line"/>
      <point x="913" y="88" type="line"/>
      <point x="782" y="96" type="line" smooth="yes"/>
      <point x="754" y="98"/>
      <point x="739" y="121"/>
      <point x="739" y="141" type="curve" smooth="yes"/>
      <point x="739" y="584" type="line"/>
      <point x="1151" y="1266" type="line"/>
    </contour>
  </outline>
</glyph>
<glyph name="Thorn" format="2">
  <advance width="1184"/>
  <unicode hex="00DE"/>
  <outline>
    <contour>
      <point x="1104" y="709" type="curve" smooth="yes"/>
      <point x="1104" y="997"/>
      <point x="936" y="1110"/>
      <point x="563" y="1116" type="curve"/>
      <point x="424" y="1116" type="line"/>
      <point x="424" y="1233" type="line" smooth="yes"/>
      <point x="424" y="1257"/>
      <point x="444" y="1276"/>
      <point x="469" y="1278" type="curve" smooth="yes"/>
      <point x="588" y="1286" type="line"/>
      <point x="588" y="1374" type="line"/>
      <point x="66" y="1374" type="line"/>
      <point x="66" y="1286" type="line"/>
      <point x="170" y="1278" type="line" smooth="yes"/>
      <point x="195" y="1276"/>
      <point x="215" y="1257"/>
      <point x="215" y="1233" type="curve" smooth="yes"/>
      <point x="215" y="141" type="line" smooth="yes"/>
      <point x="215" y="117"/>
      <point x="195" y="98"/>
      <point x="170" y="96" type="curve" smooth="yes"/>
      <point x="66" y="88" type="line"/>
      <point x="66" y="-0" type="line"/>
      <point x="588" y="-0" type="line"/>
      <point x="588" y="88" type="line"/>
      <point x="469" y="96" type="line" smooth="yes"/>
      <point x="444" y="98"/>
      <point x="424" y="117"/>
      <point x="424" y="141" type="curve" smooth="yes"/>
      <point x="424" y="281" type="line"/>
      <point x="424" y="281"/>
      <point x="512" y="270"/>
      <point x="569" y="270" type="curve"/>
      <point x="575" y="270" type="line"/>
      <point x="886" y="270"/>
      <point x="1104" y="426"/>
    </contour>
    <contour>
      <point x="870" y="709" type="curve" smooth="yes"/>
      <point x="870" y="479"/>
      <point x="764" y="375"/>
      <point x="549" y="375" type="curve"/>
      <point x="543" y="375" type="line"/>
      <point x="504" y="375"/>
      <point x="424" y="383"/>
      <point x="424" y="383" type="curve"/>
      <point x="424" y="1016" type="line"/>
      <point x="424" y="1016"/>
      <point x="482" y="1021"/>
      <point x="508" y="1021" type="curve" smooth="yes"/>
      <point x="515" y="1021"/>
      <point x="519" y="1021"/>
      <point x="520" y="1020" type="curve"/>
      <point x="530" y="1020"/>
      <point x="541" y="1021"/>
      <point x="551" y="1021" type="curve" smooth="yes"/>
      <point x="791" y="1021"/>
      <point x="870" y="905"/>
    </contour>
  </outline>
</glyph>
<glyph name="acircumflex" format="2">
  <advance width="1042"/>
  <unicode hex="00E2"/>
  <outline>
    <contour>
      <point x="1008" y="-0" type="line"/>
      <point x="1008" y="80" type="line"/>
      <point x="909" y="86" type="line" smooth="yes"/>
      <point x="885" y="88"/>
      <point x="866" y="106"/>
      <point x="866" y="131" type="curve" smooth="yes"/>
      <point x="866" y="705" type="line" smooth="yes"/>
      <point x="866" y="883"/>
      <point x="797" y="1012"/>
      <point x="543" y="1012" type="curve" smooth="yes"/>
      <point x="340" y="1012"/>
      <point x="117" y="938"/>
      <point x="117" y="770" type="curve" smooth="yes"/>
      <point x="117" y="719"/>
      <point x="156" y="711"/>
      <point x="193" y="711" type="curve" smooth="yes"/>
      <point x="342" y="711" type="line"/>
      <point x="342" y="889" type="line"/>
      <point x="362" y="897"/>
      <point x="416" y="915"/>
      <point x="487" y="915" type="curve" smooth="yes"/>
      <point x="618" y="915"/>
      <point x="678" y="850"/>
      <point x="678" y="713" type="curve" smooth="yes"/>
      <point x="678" y="625" type="line"/>
      <point x="141" y="508"/>
      <point x="70" y="403"/>
      <point x="70" y="252" type="curve" smooth="yes"/>
      <point x="70" y="80"/>
      <point x="188" y="-25"/>
      <point x="336" y="-25" type="curve" smooth="yes"/>
      <point x="496" y="-25"/>
      <point x="678" y="121"/>
      <point x="678" y="121" type="curve"/>
      <point x="705" y="-0" type="line"/>
    </contour>
    <contour>
      <point x="678" y="193" type="line"/>
      <point x="678" y="193"/>
      <point x="535" y="96"/>
      <point x="426" y="96" type="curve" smooth="yes"/>
      <point x="328" y="96"/>
      <point x="272" y="182"/>
      <point x="272" y="266" type="curve" smooth="yes"/>
      <point x="272" y="367"/>
      <point x="309" y="455"/>
      <point x="678" y="547" type="curve"/>
    </contour>
    <contour>
      <point x="827" y="1128" type="line"/>
      <point x="571" y="1475" type="line"/>
      <point x="416" y="1475" type="line"/>
      <point x="158" y="1128" type="line"/>
      <point x="283" y="1128" type="line"/>
      <point x="494" y="1331" type="line"/>
      <point x="705" y="1128" type="line"/>
    </contour>
  </outline>
</glyph>
<glyph name="atilde" format="2">
  <advance width="1042"/>
  <unicode hex="00E3"/>
  <outline>
    <contour>
      <point x="1008" y="-0" type="line"/>
      <point x="1008" y="80" type="line"/>
      <point x="909" y="86" type="line" smooth="yes"/>
      <point x="885" y="88"/>
      <point x="866" y="106"/>
      <point x="866" y="131" type="curve" smooth="yes"/>
      <point x="866" y="705" type="line" smooth="yes"/>
      <point x="866" y="883"/>
      <point x="797" y="1012"/>
      <point x="543" y="1012" type="curve" smooth="yes"/>
      <point x="340" y="1012"/>
      <point x="117" y="938"/>
      <point x="117" y="770" type="curve" smooth="yes"/>
      <point x="117" y="719"/>
      <point x="156" y="711"/>
      <point x="193" y="711" type="curve" smooth="yes"/>
      <point x="342" y="711" type="line"/>
      <point x="342" y="889" type="line"/>
      <point x="362" y="897"/>
      <point x="416" y="915"/>
      <point x="487" y="915" type="curve" smooth="yes"/>
      <point x="618" y="915"/>
      <point x="678" y="850"/>
      <point x="678" y="713" type="curve" smooth="yes"/>
      <point x="678" y="625" type="line"/>
      <point x="141" y="508"/>
      <point x="70" y="403"/>
      <point x="70" y="252" type="curve" smooth="yes"/>
      <point x="70" y="80"/>
      <point x="188" y="-25"/>
      <point x="336" y="-25" type="curve" smooth="yes"/>
      <point x="496" y="-25"/>
      <point x="678" y="121"/>
      <point x="678" y="121" type="curve"/>
      <point x="705" y="-0" type="line"/>
    </contour>
    <contour>
      <point x="678" y="193" type="line"/>
      <point x="678" y="193"/>
      <point x="535" y="96"/>
      <point x="426" y="96" type="curve" smooth="yes"/>
      <point x="328" y="96"/>
      <point x="272" y="182"/>
      <point x="272" y="266" type="curve" smooth="yes"/>
      <point x="272" y="367"/>
      <point x="309" y="455"/>
      <point x="678" y="547" type="curve"/>
    </contour>
    <contour>
      <point x="864" y="1423" type="curve"/>
      <point x="782" y="1423" type="line"/>
      <point x="776" y="1374"/>
      <point x="729" y="1325"/>
      <point x="674" y="1325" type="curve" smooth="yes"/>
      <point x="541" y="1325"/>
      <point x="500" y="1423"/>
      <point x="391" y="1423" type="curve" smooth="yes"/>
      <point x="258" y="1423"/>
      <point x="184" y="1319"/>
      <point x="154" y="1198" type="curve"/>
      <point x="236" y="1198" type="line"/>
      <point x="242" y="1247"/>
      <point x="287" y="1296"/>
      <point x="342" y="1296" type="curve" smooth="yes"/>
      <point x="475" y="1296"/>
      <point x="518" y="1198"/>
      <point x="627" y="1198" type="curve" smooth="yes"/>
      <point x="760" y="1198"/>
      <point x="834" y="1303"/>
    </contour>
  </outline>
</glyph>
<glyph name="adieresis" format="2">
  <advance width="1042"/>
  <unicode hex="00E4"/>
  <outline>
    <contour>
      <point x="1008" y="0" type="line"/>
      <point x="1008" y="80" type="line"/>
      <point x="909" y="86" type="line" smooth="yes"/>
      <point x="885" y="88"/>
      <point x="866" y="106"/>
      <point x="866" y="131" type="curve" smooth="yes"/>
      <point x="866" y="705" type="line" smooth="yes"/>
      <point x="866" y="883"/>
      <point x="797" y="1012"/>
      <point x="543" y="1012" type="curve" smooth="yes"/>
      <point x="340" y="1012"/>
      <point x="117" y="938"/>
      <point x="117" y="770" type="curve" smooth="yes"/>
      <point x="117" y="719"/>
      <point x="156" y="711"/>
      <point x="193" y="711" type="curve" smooth="yes"/>
      <point x="342" y="711" type="line"/>
      <point x="342" y="889" type="line"/>
      <point x="362" y="897"/>
      <point x="416" y="915"/>
      <point x="487" y="915" type="curve" smooth="yes"/>
      <point x="618" y="915"/>
      <point x="678" y="850"/>
      <point x="678" y="713" type="curve" smooth="yes"/>
      <point x="678" y="625" type="line"/>
      <point x="141" y="508"/>
      <point x="70" y="403"/>
      <point x="70" y="252" type="curve" smooth="yes"/>
      <point x="70" y="80"/>
      <point x="188" y="-25"/>
      <point x="336" y="-25" type="curve" smooth="yes"/>
      <point x="496" y="-25"/>
      <point x="678" y="121"/>
      <point x="678" y="121" type="curve"/>
      <point x="705" y="0" type="line"/>
    </contour>
    <contour>
      <point x="678" y="193" type="line"/>
      <point x="678" y="193"/>
      <point x="535" y="96"/>
      <point x="426" y="96" type="curve" smooth="yes"/>
      <point x="328" y="96"/>
      <point x="272" y="182"/>
      <point x="272" y="266" type="curve" smooth="yes"/>
      <point x="272" y="367"/>
      <point x="309" y="455"/>
      <point x="678" y="547" type="curve"/>
    </contour>
    <contour>
      <point x="840" y="1313" type="curve" smooth="yes"/>
      <point x="840" y="1374"/>
      <point x="788" y="1425"/>
      <point x="727" y="1425" type="curve" smooth="yes"/>
      <point x="670" y="1425"/>
      <point x="616" y="1370"/>
      <point x="616" y="1313" type="curve" smooth="yes"/>
      <point x="616" y="1251"/>
      <point x="666" y="1198"/>
      <point x="727" y="1198" type="curve" smooth="yes"/>
      <point x="788" y="1198"/>
      <point x="840" y="1251"/>
    </contour>
    <contour>
      <point x="414" y="1313" type="curve" smooth="yes"/>
      <point x="414" y="1374"/>
      <point x="365" y="1425"/>
      <point x="303" y="1425" type="curve" smooth="yes"/>
      <point x="244" y="1425"/>
      <point x="193" y="1370"/>
      <point x="193" y="1311" type="curve" smooth="yes"/>
      <point x="193" y="1251"/>
      <point x="242" y="1198"/>
      <point x="301" y="1198" type="curve" smooth="yes"/>
      <point x="362" y="1198"/>
      <point x="414" y="1251"/>
    </contour>
  </outline>
</glyph>
<glyph name="aring" format="2">
  <advance width="1042"/>
  <unicode hex="00E5"/>
  <outline>
    <contour>
      <point x="1008" y="-0" type="line"/>
      <point x="1008" y="80" type="line"/>
      <point x="909" y="86" type="line" smooth="yes"/>
      <point x="885" y="88"/>
      <point x="866" y="106"/>
      <point x="866" y="131" type="curve" smooth="yes"/>
      <point x="866" y="705" type="line" smooth="yes"/>
      <point x="866" y="883"/>
      <point x="797" y="1012"/>
      <point x="543" y="1012" type="curve" smooth="yes"/>
      <point x="340" y="1012"/>
      <point x="117" y="938"/>
      <point x="117" y="770" type="curve" smooth="yes"/>
      <point x="117" y="719"/>
      <point x="156" y="711"/>
      <point x="193" y="711" type="curve" smooth="yes"/>
      <point x="342" y="711" type="line"/>
      <point x="342" y="889" type="line"/>
      <point x="362" y="897"/>
      <point x="416" y="915"/>
      <point x="487" y="915" type="curve" smooth="yes"/>
      <point x="618" y="915"/>
      <point x="678" y="850"/>
      <point x="678" y="713" type="curve" smooth="yes"/>
      <point x="678" y="625" type="line"/>
      <point x="141" y="508"/>
      <point x="70" y="403"/>
      <point x="70" y="252" type="curve" smooth="yes"/>
      <point x="70" y="80"/>
      <point x="188" y="-25"/>
      <point x="336" y="-25" type="curve" smooth="yes"/>
      <point x="496" y="-25"/>
      <point x="678" y="121"/>
      <point x="678" y="121" type="curve"/>
      <point x="705" y="-0" type="line"/>
    </contour>
    <contour>
      <point x="766" y="1372" type="curve" smooth="yes"/>
      <point x="766" y="1507"/>
      <point x="657" y="1616"/>
      <point x="522" y="1616" type="curve" smooth="yes"/>
      <point x="387" y="1616"/>
      <point x="279" y="1507"/>
      <point x="279" y="1372" type="curve" smooth="yes"/>
      <point x="279" y="1237"/>
      <point x="387" y="1128"/>
      <point x="522" y="1128" type="curve" smooth="yes"/>
      <point x="657" y="1128"/>
      <point x="766" y="1237"/>
    </contour>
    <contour>
      <point x="678" y="193" type="line"/>
      <point x="678" y="193"/>
      <point x="535" y="96"/>
      <point x="426" y="96" type="curve" smooth="yes"/>
      <point x="328" y="96"/>
      <point x="272" y="182"/>
      <point x="272" y="266" type="curve" smooth="yes"/>
      <point x="272" y="367"/>
      <point x="309" y="455"/>
      <point x="678" y="547" type="curve"/>
    </contour>
    <contour>
      <point x="666" y="1372" type="curve" smooth="yes"/>
      <point x="666" y="1292"/>
      <point x="602" y="1229"/>
      <point x="522" y="1229" type="curve" smooth="yes"/>
      <point x="442" y="1229"/>
      <point x="379" y="1292"/>
      <point x="379" y="1372" type="curve" smooth="yes"/>
      <point x="379" y="1452"/>
      <point x="442" y="1516"/>
      <point x="522" y="1516" type="curve" smooth="yes"/>
      <point x="602" y="1516"/>
      <point x="666" y="1452"/>
    </contour>
  </outline>
</glyph>
<glyph name="ccedilla" format="2">
  <advance width="954"/>
  <unicode hex="00E7"/>
  <outline>
    <contour>
      <point x="885" y="201" type="line"/>
      <point x="797" y="143"/>
      <point x="713" y="104"/>
      <point x="618" y="104" type="curve" smooth="yes"/>
      <point x="393" y="104"/>
      <point x="279" y="287"/>
      <point x="279" y="514" type="curve" smooth="yes"/>
      <point x="279" y="752"/>
      <point x="389" y="926"/>
      <point x="571" y="926" type="curve" smooth="yes"/>
      <point x="598" y="926"/>
      <point x="629" y="915"/>
      <point x="657" y="899" type="curve"/>
      <point x="657" y="719" type="line"/>
      <point x="682" y="702"/>
      <point x="715" y="686"/>
      <point x="760" y="686" type="curve" smooth="yes"/>
      <point x="821" y="686"/>
      <point x="881" y="725"/>
      <point x="881" y="805" type="curve" smooth="yes"/>
      <point x="881" y="938"/>
      <point x="743" y="1012"/>
      <point x="563" y="1012" type="curve" smooth="yes"/>
      <point x="301" y="1012"/>
      <point x="70" y="831"/>
      <point x="70" y="487" type="curve" smooth="yes"/>
      <point x="70" y="213"/>
      <point x="229" y="2"/>
      <point x="483" y="-23" type="curve"/>
      <point x="483" y="-229" type="line"/>
      <point x="483" y="-229"/>
      <point x="508" y="-217"/>
      <point x="528" y="-217" type="curve" smooth="yes"/>
      <point x="582" y="-217"/>
      <point x="627" y="-244"/>
      <point x="627" y="-293" type="curve" smooth="yes"/>
      <point x="627" y="-356"/>
      <point x="559" y="-377"/>
      <point x="494" y="-377" type="curve" smooth="yes"/>
      <point x="442" y="-377"/>
      <point x="369" y="-360"/>
      <point x="369" y="-360" type="curve"/>
      <point x="369" y="-440" type="line"/>
      <point x="369" y="-440"/>
      <point x="451" y="-461"/>
      <point x="522" y="-461" type="curve" smooth="yes"/>
      <point x="659" y="-461"/>
      <point x="760" y="-393"/>
      <point x="760" y="-266" type="curve" smooth="yes"/>
      <point x="760" y="-162"/>
      <point x="692" y="-121"/>
      <point x="610" y="-121" type="curve" smooth="yes"/>
      <point x="588" y="-121"/>
      <point x="578" y="-127"/>
      <point x="563" y="-129" type="curve"/>
      <point x="563" y="-25" type="line"/>
      <point x="690" y="-18"/>
      <point x="799" y="37"/>
      <point x="885" y="84" type="curve"/>
    </contour>
  </outline>
</glyph>
<glyph name="egrave" format="2">
  <advance width="1004"/>
  <unicode hex="00E8"/>
  <outline>
    <contour>
      <point x="655" y="1128" type="line"/>
      <point x="381" y="1446" type="line" smooth="yes"/>
      <point x="351" y="1480"/>
      <point x="330" y="1501"/>
      <point x="274" y="1501" type="curve" smooth="yes"/>
      <point x="203" y="1501"/>
      <point x="180" y="1450"/>
      <point x="180" y="1409" type="curve" smooth="yes"/>
      <point x="180" y="1372"/>
      <point x="199" y="1346"/>
      <point x="227" y="1327" type="curve" smooth="yes"/>
      <point x="539" y="1128" type="line"/>
    </contour>
    <contour>
      <point x="934" y="102" type="curve"/>
      <point x="934" y="227" type="line"/>
      <point x="842" y="166"/>
      <point x="727" y="100"/>
      <point x="610" y="100" type="curve" smooth="yes"/>
      <point x="346" y="100"/>
      <point x="268" y="326"/>
      <point x="268" y="535" type="curve"/>
      <point x="932" y="535" type="line"/>
      <point x="934" y="553"/>
      <point x="934" y="578"/>
      <point x="934" y="592" type="curve" smooth="yes"/>
      <point x="934" y="836"/>
      <point x="805" y="1012"/>
      <point x="551" y="1012" type="curve" smooth="yes"/>
      <point x="272" y="1012"/>
      <point x="70" y="803"/>
      <point x="70" y="483" type="curve" smooth="yes"/>
      <point x="70" y="141"/>
      <point x="297" y="-25"/>
      <point x="545" y="-25" type="curve" smooth="yes"/>
      <point x="684" y="-25"/>
      <point x="819" y="31"/>
    </contour>
    <contour>
      <point x="729" y="627" type="line"/>
      <point x="279" y="627" type="line"/>
      <point x="289" y="803"/>
      <point x="395" y="911"/>
      <point x="530" y="911" type="curve" smooth="yes"/>
      <point x="666" y="911"/>
      <point x="729" y="807"/>
      <point x="729" y="672" type="curve" smooth="yes"/>
    </contour>
  </outline>
</glyph>
<glyph name="edieresis" format="2">
  <advance width="1004"/>
  <unicode hex="00EB"/>
  <outline>
    <contour>
      <point x="846" y="1313" type="curve" smooth="yes"/>
      <point x="846" y="1374"/>
      <point x="793" y="1425"/>
      <point x="731" y="1425" type="curve" smooth="yes"/>
      <point x="674" y="1425"/>
      <point x="621" y="1370"/>
      <point x="621" y="1313" type="curve" smooth="yes"/>
      <point x="621" y="1251"/>
      <point x="672" y="1198"/>
      <point x="733" y="1198" type="curve" smooth="yes"/>
      <point x="795" y="1198"/>
      <point x="846" y="1251"/>
    </contour>
    <contour>
      <point x="420" y="1313" type="curve" smooth="yes"/>
      <point x="420" y="1374"/>
      <point x="369" y="1425"/>
      <point x="307" y="1425" type="curve" smooth="yes"/>
      <point x="248" y="1425"/>
      <point x="197" y="1370"/>
      <point x="197" y="1311" type="curve" smooth="yes"/>
      <point x="197" y="1251"/>
      <point x="248" y="1198"/>
      <point x="307" y="1198" type="curve" smooth="yes"/>
      <point x="369" y="1198"/>
      <point x="420" y="1251"/>
    </contour>
    <contour>
      <point x="934" y="102" type="curve"/>
      <point x="934" y="227" type="line"/>
      <point x="842" y="166"/>
      <point x="727" y="100"/>
      <point x="610" y="100" type="curve" smooth="yes"/>
      <point x="346" y="100"/>
      <point x="268" y="326"/>
      <point x="268" y="535" type="curve"/>
      <point x="932" y="535" type="line"/>
      <point x="934" y="553"/>
      <point x="934" y="578"/>
      <point x="934" y="592" type="curve" smooth="yes"/>
      <point x="934" y="836"/>
      <point x="805" y="1012"/>
      <point x="551" y="1012" type="curve" smooth="yes"/>
      <point x="272" y="1012"/>
      <point x="70" y="803"/>
      <point x="70" y="483" type="curve" smooth="yes"/>
      <point x="70" y="141"/>
      <point x="297" y="-25"/>
      <point x="545" y="-25" type="curve" smooth="yes"/>
      <point x="684" y="-25"/>
      <point x="819" y="31"/>
    </contour>
    <contour>
      <point x="729" y="627" type="line"/>
      <point x="279" y="627" type="line"/>
      <point x="289" y="803"/>
      <point x="395" y="911"/>
      <point x="530" y="911" type="curve" smooth="yes"/>
      <point x="666" y="911"/>
      <point x="729" y="807"/>
      <point x="729" y="672" type="curve" smooth="yes"/>
    </contour>
  </outline>
</glyph>
<glyph name="igrave" format="2">
  <advance width="621"/>
  <unicode hex="00EC"/>
  <outline>
    <contour>
      <point x="446" y="1128" type="line"/>
      <point x="174" y="1446" type="line" smooth="yes"/>
      <point x="145" y="1481"/>
      <point x="123" y="1501"/>
      <point x="68" y="1501" type="curve" smooth="yes"/>
      <point x="-4" y="1501"/>
      <point x="-29" y="1450"/>
      <point x="-29" y="1409" type="curve" smooth="yes"/>
      <point x="-29" y="1372"/>
      <point x="-8" y="1346"/>
      <point x="20" y="1327" type="curve" smooth="yes"/>
      <point x="332" y="1128" type="line"/>
    </contour>
    <contour>
      <point x="551" y="0" type="line"/>
      <point x="551" y="80" type="line"/>
      <point x="446" y="86" type="line" smooth="yes"/>
      <point x="422" y="88"/>
      <point x="403" y="106"/>
      <point x="403" y="131" type="curve" smooth="yes"/>
      <point x="403" y="1010" type="line"/>
      <point x="322" y="1010" type="line"/>
      <point x="72" y="932" type="line"/>
      <point x="72" y="862" type="line"/>
      <point x="213" y="862" type="line"/>
      <point x="213" y="131" type="line" smooth="yes"/>
      <point x="213" y="106"/>
      <point x="195" y="88"/>
      <point x="170" y="86" type="curve" smooth="yes"/>
      <point x="70" y="80" type="line"/>
      <point x="70" y="0" type="line"/>
    </contour>
  </outline>
</glyph>
<glyph name="iacute" format="2">
  <advance width="621"/>
  <unicode hex="00ED"/>
  <outline>
    <contour>
      <point x="553" y="1409" type="curve" smooth="yes"/>
      <point x="553" y="1450"/>
      <point x="530" y="1501"/>
      <point x="459" y="1501" type="curve" smooth="yes"/>
      <point x="403" y="1501"/>
      <point x="379" y="1481"/>
      <point x="350" y="1446" type="curve" smooth="yes"/>
      <point x="78" y="1128" type="line"/>
      <point x="195" y="1128" type="line"/>
      <point x="506" y="1327" type="line" smooth="yes"/>
      <point x="535" y="1346"/>
      <point x="553" y="1372"/>
    </contour>
    <contour>
      <point x="551" y="0" type="line"/>
      <point x="551" y="80" type="line"/>
      <point x="446" y="86" type="line" smooth="yes"/>
      <point x="422" y="88"/>
      <point x="403" y="106"/>
      <point x="403" y="131" type="curve" smooth="yes"/>
      <point x="403" y="1010" type="line"/>
      <point x="322" y="1010" type="line"/>
      <point x="72" y="932" type="line"/>
      <point x="72" y="862" type="line"/>
      <point x="213" y="862" type="line"/>
      <point x="213" y="131" type="line" smooth="yes"/>
      <point x="213" y="106"/>
      <point x="195" y="88"/>
      <point x="170" y="86" type="curve" smooth="yes"/>
      <point x="70" y="80" type="line"/>
      <point x="70" y="0" type="line"/>
    </contour>
  </outline>
</glyph>
<glyph name="icircumflex" format="2">
  <advance width="621"/>
  <unicode hex="00EE"/>
  <outline>
    <contour>
      <point x="645" y="1128" type="line"/>
      <point x="387" y="1475" type="line"/>
      <point x="233" y="1475" type="line"/>
      <point x="-25" y="1128" type="line"/>
      <point x="98" y="1128" type="line"/>
      <point x="309" y="1331" type="line"/>
      <point x="522" y="1128" type="line"/>
    </contour>
    <contour>
      <point x="553" y="0" type="line"/>
      <point x="553" y="80" type="line"/>
      <point x="446" y="86" type="line" smooth="yes"/>
      <point x="422" y="88"/>
      <point x="403" y="106"/>
      <point x="403" y="131" type="curve" smooth="yes"/>
      <point x="403" y="1010" type="line"/>
      <point x="324" y="1010" type="line"/>
      <point x="74" y="932" type="line"/>
      <point x="74" y="862" type="line"/>
      <point x="213" y="862" type="line"/>
      <point x="213" y="131" type="line" smooth="yes"/>
      <point x="213" y="106"/>
      <point x="197" y="88"/>
      <point x="170" y="86" type="curve" smooth="yes"/>
      <point x="72" y="80" type="line"/>
      <point x="72" y="0" type="line"/>
    </contour>
  </outline>
</glyph>
<glyph name="idieresis" format="2">
  <advance width="621"/>
  <unicode hex="00EF"/>
  <outline>
    <contour>
      <point x="633" y="1313" type="curve" smooth="yes"/>
      <point x="633" y="1374"/>
      <point x="582" y="1425"/>
      <point x="520" y="1425" type="curve" smooth="yes"/>
      <point x="463" y="1425"/>
      <point x="410" y="1370"/>
      <point x="410" y="1313" type="curve" smooth="yes"/>
      <point x="410" y="1251"/>
      <point x="459" y="1198"/>
      <point x="520" y="1198" type="curve" smooth="yes"/>
      <point x="582" y="1198"/>
      <point x="633" y="1251"/>
    </contour>
    <contour>
      <point x="209" y="1313" type="curve" smooth="yes"/>
      <point x="209" y="1374"/>
      <point x="158" y="1425"/>
      <point x="96" y="1425" type="curve" smooth="yes"/>
      <point x="37" y="1425"/>
      <point x="-14" y="1370"/>
      <point x="-14" y="1311" type="curve" smooth="yes"/>
      <point x="-14" y="1251"/>
      <point x="37" y="1198"/>
      <point x="96" y="1198" type="curve" smooth="yes"/>
      <point x="158" y="1198"/>
      <point x="209" y="1251"/>
    </contour>
    <contour>
      <point x="551" y="0" type="line"/>
      <point x="551" y="80" type="line"/>
      <point x="446" y="86" type="line" smooth="yes"/>
      <point x="422" y="88"/>
      <point x="403" y="106"/>
      <point x="403" y="131" type="curve" smooth="yes"/>
      <point x="403" y="1010" type="line"/>
      <point x="322" y="1010" type="line"/>
      <point x="72" y="932" type="line"/>
      <point x="72" y="862" type="line"/>
      <point x="213" y="862" type="line"/>
      <point x="213" y="131" type="line" smooth="yes"/>
      <point x="213" y="106"/>
      <point x="195" y="88"/>
      <point x="170" y="86" type="curve" smooth="yes"/>
      <point x="70" y="80" type="line"/>
      <point x="70" y="0" type="line"/>
    </contour>
  </outline>
</glyph>
<glyph name="ntilde" format="2">
  <advance width="1182"/>
  <unicode hex="00F1"/>
  <outline>
    <contour>
      <point x="940" y="1423" type="curve"/>
      <point x="858" y="1423" type="line"/>
      <point x="852" y="1374"/>
      <point x="807" y="1325"/>
      <point x="752" y="1325" type="curve" smooth="yes"/>
      <point x="618" y="1325"/>
      <point x="575" y="1423"/>
      <point x="467" y="1423" type="curve" smooth="yes"/>
      <point x="334" y="1423"/>
      <point x="260" y="1319"/>
      <point x="229" y="1198" type="curve"/>
      <point x="311" y="1198" type="line"/>
      <point x="317" y="1247"/>
      <point x="365" y="1296"/>
      <point x="420" y="1296" type="curve" smooth="yes"/>
      <point x="553" y="1296"/>
      <point x="594" y="1198"/>
      <point x="702" y="1198" type="curve" smooth="yes"/>
      <point x="836" y="1198"/>
      <point x="909" y="1303"/>
    </contour>
    <contour>
      <point x="1120" y="-0" type="line"/>
      <point x="1120" y="80" type="line"/>
      <point x="1030" y="86" type="line" smooth="yes"/>
      <point x="1006" y="88"/>
      <point x="987" y="106"/>
      <point x="987" y="131" type="curve" smooth="yes"/>
      <point x="987" y="696" type="line" smooth="yes"/>
      <point x="987" y="895"/>
      <point x="891" y="1012"/>
      <point x="713" y="1012" type="curve" smooth="yes"/>
      <point x="618" y="1012"/>
      <point x="489" y="950"/>
      <point x="375" y="885" type="curve"/>
      <point x="375" y="987" type="line"/>
      <point x="291" y="987" type="line"/>
      <point x="41" y="909" type="line"/>
      <point x="41" y="842" type="line"/>
      <point x="184" y="842" type="line"/>
      <point x="184" y="131" type="line" smooth="yes"/>
      <point x="184" y="106"/>
      <point x="166" y="88"/>
      <point x="141" y="86" type="curve" smooth="yes"/>
      <point x="41" y="80" type="line"/>
      <point x="41" y="-0" type="line"/>
      <point x="504" y="-0" type="line"/>
      <point x="504" y="80" type="line"/>
      <point x="418" y="86" type="line" smooth="yes"/>
      <point x="393" y="88"/>
      <point x="375" y="106"/>
      <point x="375" y="131" type="curve" smooth="yes"/>
      <point x="375" y="803" type="line"/>
      <point x="444" y="838"/>
      <point x="522" y="862"/>
      <point x="600" y="862" type="curve" smooth="yes"/>
      <point x="743" y="862"/>
      <point x="797" y="793"/>
      <point x="797" y="664" type="curve" smooth="yes"/>
      <point x="797" y="131" type="line" smooth="yes"/>
      <point x="797" y="106"/>
      <point x="778" y="88"/>
      <point x="754" y="86" type="curve" smooth="yes"/>
      <point x="668" y="80" type="line"/>
      <point x="668" y="-0" type="line"/>
    </contour>
  </outline>
</glyph>
<glyph name="oacute" format="2">
  <advance width="1114"/>
  <unicode hex="00F3"/>
  <outline>
    <contour>
      <point x="926" y="1409" type="curve" smooth="yes"/>
      <point x="926" y="1450"/>
      <point x="903" y="1501"/>
      <point x="831" y="1501" type="curve" smooth="yes"/>
      <point x="776" y="1501"/>
      <point x="752" y="1481"/>
      <point x="723" y="1446" type="curve" smooth="yes"/>
      <point x="451" y="1128" type="line"/>
      <point x="567" y="1128" type="line"/>
      <point x="879" y="1327" type="line"/>
      <point x="908" y="1345"/>
      <point x="926" y="1372"/>
    </contour>
    <contour>
      <point x="1044" y="492" type="curve" smooth="yes"/>
      <point x="1044" y="780"/>
      <point x="866" y="1012"/>
      <point x="561" y="1012" type="curve" smooth="yes"/>
      <point x="258" y="1012"/>
      <point x="70" y="784"/>
      <point x="70" y="492" type="curve" smooth="yes"/>
      <point x="70" y="197"/>
      <point x="256" y="-25"/>
      <point x="555" y="-25" type="curve" smooth="yes"/>
      <point x="854" y="-25"/>
      <point x="1044" y="201"/>
    </contour>
    <contour>
      <point x="831" y="494" type="curve" smooth="yes"/>
      <point x="831" y="270"/>
      <point x="745" y="68"/>
      <point x="557" y="68" type="curve" smooth="yes"/>
      <point x="373" y="68"/>
      <point x="285" y="272"/>
      <point x="285" y="494" type="curve" smooth="yes"/>
      <point x="285" y="717"/>
      <point x="369" y="920"/>
      <point x="559" y="920" type="curve" smooth="yes"/>
      <point x="743" y="920"/>
      <point x="831" y="717"/>
    </contour>
  </outline>
</glyph>
<glyph name="otilde" format="2">
  <advance width="1114"/>
  <unicode hex="00F5"/>
  <outline>
    <contour>
      <point x="924" y="1423" type="curve"/>
      <point x="842" y="1423" type="line"/>
      <point x="836" y="1374"/>
      <point x="791" y="1325"/>
      <point x="735" y="1325" type="curve" smooth="yes"/>
      <point x="602" y="1325"/>
      <point x="559" y="1423"/>
      <point x="451" y="1423" type="curve" smooth="yes"/>
      <point x="317" y="1423"/>
      <point x="244" y="1319"/>
      <point x="213" y="1198" type="curve"/>
      <point x="295" y="1198" type="line"/>
      <point x="301" y="1247"/>
      <point x="348" y="1296"/>
      <point x="403" y="1296" type="curve" smooth="yes"/>
      <point x="537" y="1296"/>
      <point x="578" y="1198"/>
      <point x="686" y="1198" type="curve" smooth="yes"/>
      <point x="819" y="1198"/>
      <point x="893" y="1303"/>
    </contour>
    <contour>
      <point x="1044" y="492" type="curve" smooth="yes"/>
      <point x="1044" y="780"/>
      <point x="866" y="1012"/>
      <point x="561" y="1012" type="curve" smooth="yes"/>
      <point x="258" y="1012"/>
      <point x="70" y="784"/>
      <point x="70" y="492" type="curve" smooth="yes"/>
      <point x="70" y="197"/>
      <point x="256" y="-25"/>
      <point x="555" y="-25" type="curve" smooth="yes"/>
      <point x="854" y="-25"/>
      <point x="1044" y="201"/>
    </contour>
    <contour>
      <point x="831" y="494" type="curve" smooth="yes"/>
      <point x="831" y="270"/>
      <point x="745" y="68"/>
      <point x="557" y="68" type="curve" smooth="yes"/>
      <point x="373" y="68"/>
      <point x="285" y="272"/>
      <point x="285" y="494" type="curve" smooth="yes"/>
      <point x="285" y="717"/>
      <point x="369" y="920"/>
      <point x="559" y="920" type="curve" smooth="yes"/>
      <point x="743" y="920"/>
      <point x="831" y="717"/>
    </contour>
  </outline>
</glyph>
<glyph name="odieresis" format="2">
  <advance width="1114"/>
  <unicode hex="00F6"/>
  <outline>
    <contour>
      <point x="887" y="1313" type="curve" smooth="yes"/>
      <point x="887" y="1374"/>
      <point x="836" y="1425"/>
      <point x="774" y="1425" type="curve" smooth="yes"/>
      <point x="717" y="1425"/>
      <point x="664" y="1370"/>
      <point x="664" y="1313" type="curve" smooth="yes"/>
      <point x="664" y="1251"/>
      <point x="713" y="1198"/>
      <point x="774" y="1198" type="curve" smooth="yes"/>
      <point x="836" y="1198"/>
      <point x="887" y="1251"/>
    </contour>
    <contour>
      <point x="463" y="1313" type="curve" smooth="yes"/>
      <point x="463" y="1374"/>
      <point x="412" y="1425"/>
      <point x="350" y="1425" type="curve" smooth="yes"/>
      <point x="291" y="1425"/>
      <point x="240" y="1370"/>
      <point x="240" y="1311" type="curve" smooth="yes"/>
      <point x="240" y="1251"/>
      <point x="291" y="1198"/>
      <point x="350" y="1198" type="curve" smooth="yes"/>
      <point x="412" y="1198"/>
      <point x="463" y="1251"/>
    </contour>
    <contour>
      <point x="1044" y="492" type="curve" smooth="yes"/>
      <point x="1044" y="780"/>
      <point x="866" y="1012"/>
      <point x="561" y="1012" type="curve" smooth="yes"/>
      <point x="258" y="1012"/>
      <point x="70" y="784"/>
      <point x="70" y="492" type="curve" smooth="yes"/>
      <point x="70" y="197"/>
      <point x="256" y="-25"/>
      <point x="555" y="-25" type="curve" smooth="yes"/>
      <point x="854" y="-25"/>
      <point x="1044" y="201"/>
    </contour>
    <contour>
      <point x="831" y="494" type="curve" smooth="yes"/>
      <point x="831" y="270"/>
      <point x="745" y="68"/>
      <point x="557" y="68" type="curve" smooth="yes"/>
      <point x="373" y="68"/>
      <point x="285" y="272"/>
      <point x="285" y="494" type="curve" smooth="yes"/>
      <point x="285" y="717"/>
      <point x="369" y="920"/>
      <point x="559" y="920" type="curve" smooth="yes"/>
      <point x="743" y="920"/>
      <point x="831" y="717"/>
    </contour>
  </outline>
</glyph>
<glyph name="divide" format="2">
  <advance width="1706"/>
  <unicode hex="00F7"/>
  <outline>
    <contour>
      <point x="977" y="967" type="curve" smooth="yes"/>
      <point x="977" y="1034"/>
      <point x="922" y="1090"/>
      <point x="854" y="1090" type="curve" smooth="yes"/>
      <point x="786" y="1090"/>
      <point x="729" y="1034"/>
      <point x="729" y="967" type="curve" smooth="yes"/>
      <point x="729" y="897"/>
      <point x="786" y="844"/>
      <point x="854" y="844" type="curve" smooth="yes"/>
      <point x="922" y="844"/>
      <point x="977" y="897"/>
    </contour>
    <contour>
      <point x="1452" y="553" type="line"/>
      <point x="1452" y="670" type="line"/>
      <point x="254" y="670" type="line"/>
      <point x="254" y="553" type="line"/>
    </contour>
    <contour>
      <point x="977" y="256" type="curve" smooth="yes"/>
      <point x="977" y="326"/>
      <point x="922" y="381"/>
      <point x="854" y="381" type="curve" smooth="yes"/>
      <point x="786" y="381"/>
      <point x="729" y="326"/>
      <point x="729" y="256" type="curve" smooth="yes"/>
      <point x="729" y="188"/>
      <point x="786" y="135"/>
      <point x="854" y="135" type="curve" smooth="yes"/>
      <point x="922" y="135"/>
      <point x="977" y="188"/>
    </contour>
  </outline>
</glyph>
<glyph name="uacute" format="2">
  <advance width="1165"/>
  <unicode hex="00FA"/>
  <outline>
    <contour>
      <point x="942" y="1409" type="curve" smooth="yes"/>
      <point x="942" y="1450"/>
      <point x="922" y="1501"/>
      <point x="850" y="1501" type="curve" smooth="yes"/>
      <point x="795" y="1501"/>
      <point x="770" y="1481"/>
      <point x="741" y="1446" type="curve" smooth="yes"/>
      <point x="469" y="1128" type="line"/>
      <point x="586" y="1128" type="line"/>
      <point x="897" y="1327" type="line" smooth="yes"/>
      <point x="926" y="1346"/>
      <point x="942" y="1372"/>
    </contour>
    <contour>
      <point x="1122" y="-0" type="line"/>
      <point x="1122" y="80" type="line"/>
      <point x="1032" y="86" type="line" smooth="yes"/>
      <point x="1008" y="88"/>
      <point x="987" y="106"/>
      <point x="987" y="131" type="curve" smooth="yes"/>
      <point x="987" y="1012" type="line"/>
      <point x="905" y="1012" type="line"/>
      <point x="655" y="932" type="line"/>
      <point x="655" y="862" type="line"/>
      <point x="799" y="862" type="line"/>
      <point x="799" y="176" type="line"/>
      <point x="750" y="152"/>
      <point x="659" y="115"/>
      <point x="575" y="115" type="curve" smooth="yes"/>
      <point x="430" y="115"/>
      <point x="379" y="201"/>
      <point x="379" y="346" type="curve" smooth="yes"/>
      <point x="379" y="1012" type="line"/>
      <point x="295" y="1012" type="line"/>
      <point x="43" y="932" type="line"/>
      <point x="43" y="862" type="line"/>
      <point x="186" y="862" type="line"/>
      <point x="186" y="307" type="line" smooth="yes"/>
      <point x="186" y="76"/>
      <point x="293" y="-25"/>
      <point x="469" y="-25" type="curve" smooth="yes"/>
      <point x="590" y="-25"/>
      <point x="729" y="63"/>
      <point x="799" y="117" type="curve"/>
      <point x="799" y="-0" type="line"/>
    </contour>
  </outline>
</glyph>
<glyph name="udieresis" format="2">
  <advance width="1165"/>
  <unicode hex="00FC"/>
  <outline>
    <contour>
      <point x="905" y="1313" type="curve" smooth="yes"/>
      <point x="905" y="1374"/>
      <point x="854" y="1425"/>
      <point x="793" y="1425" type="curve" smooth="yes"/>
      <point x="735" y="1425"/>
      <point x="682" y="1370"/>
      <point x="682" y="1313" type="curve" smooth="yes"/>
      <point x="682" y="1251"/>
      <point x="731" y="1198"/>
      <point x="793" y="1198" type="curve" smooth="yes"/>
      <point x="854" y="1198"/>
      <point x="905" y="1251"/>
    </contour>
    <contour>
      <point x="481" y="1313" type="curve" smooth="yes"/>
      <point x="481" y="1374"/>
      <point x="430" y="1425"/>
      <point x="369" y="1425" type="curve" smooth="yes"/>
      <point x="309" y="1425"/>
      <point x="258" y="1370"/>
      <point x="258" y="1311" type="curve" smooth="yes"/>
      <point x="258" y="1251"/>
      <point x="307" y="1198"/>
      <point x="367" y="1198" type="curve" smooth="yes"/>
      <point x="428" y="1198"/>
      <point x="481" y="1251"/>
    </contour>
    <contour>
      <point x="1122" y="0" type="line"/>
      <point x="1122" y="80" type="line"/>
      <point x="1032" y="86" type="line" smooth="yes"/>
      <point x="1008" y="88"/>
      <point x="987" y="106"/>
      <point x="987" y="131" type="curve" smooth="yes"/>
      <point x="987" y="1012" type="line"/>
      <point x="905" y="1012" type="line"/>
      <point x="655" y="932" type="line"/>
      <point x="655" y="862" type="line"/>
      <point x="799" y="862" type="line"/>
      <point x="799" y="176" type="line"/>
      <point x="750" y="152"/>
      <point x="659" y="115"/>
      <point x="575" y="115" type="curve" smooth="yes"/>
      <point x="430" y="115"/>
      <point x="379" y="201"/>
      <point x="379" y="346" type="curve" smooth="yes"/>
      <point x="379" y="1012" type="line"/>
      <point x="295" y="1012" type="line"/>
      <point x="43" y="932" type="line"/>
      <point x="43" y="862" type="line"/>
      <point x="186" y="862" type="line"/>
      <point x="186" y="307" type="line" smooth="yes"/>
      <point x="186" y="76"/>
      <point x="293" y="-25"/>
      <point x="469" y="-25" type="curve" smooth="yes"/>
      <point x="590" y="-25"/>
      <point x="729" y="63"/>
      <point x="799" y="117" type="curve"/>
      <point x="799" y="0" type="line"/>
    </contour>
  </outline>
</glyph>
<glyph name="yacute" format="2">
  <advance width="1085"/>
  <unicode hex="00FD"/>
  <outline>
    <contour>
      <point x="903" y="1409" type="curve" smooth="yes"/>
      <point x="903" y="1450"/>
      <point x="881" y="1501"/>
      <point x="809" y="1501" type="curve" smooth="yes"/>
      <point x="754" y="1501"/>
      <point x="729" y="1481"/>
      <point x="700" y="1446" type="curve" smooth="yes"/>
      <point x="428" y="1128" type="line"/>
      <point x="545" y="1128" type="line"/>
      <point x="854" y="1327" type="line" smooth="yes"/>
      <point x="883" y="1346"/>
      <point x="903" y="1372"/>
    </contour>
    <contour>
      <point x="1065" y="907" type="line"/>
      <point x="1065" y="987" type="line"/>
      <point x="700" y="987" type="line"/>
      <point x="700" y="907" type="line"/>
      <point x="797" y="901" type="line" smooth="yes"/>
      <point x="815" y="900"/>
      <point x="828" y="885"/>
      <point x="828" y="869" type="curve" smooth="yes"/>
      <point x="828" y="865"/>
      <point x="827" y="860"/>
      <point x="825" y="856" type="curve"/>
      <point x="582" y="252" type="line"/>
      <point x="344" y="856" type="line"/>
      <point x="342" y="860"/>
      <point x="342" y="864"/>
      <point x="342" y="868" type="curve" smooth="yes"/>
      <point x="342" y="885"/>
      <point x="356" y="899"/>
      <point x="375" y="901" type="curve"/>
      <point x="473" y="907" type="line"/>
      <point x="473" y="987" type="line"/>
      <point x="20" y="987" type="line"/>
      <point x="20" y="907" type="line"/>
      <point x="133" y="895" type="line"/>
      <point x="481" y="2" type="line"/>
      <point x="451" y="-88"/>
      <point x="377" y="-250"/>
      <point x="309" y="-317" type="curve"/>
      <point x="117" y="-229" type="line"/>
      <point x="70" y="-268"/>
      <point x="51" y="-305"/>
      <point x="51" y="-352" type="curve" smooth="yes"/>
      <point x="51" y="-414"/>
      <point x="104" y="-469"/>
      <point x="201" y="-469" type="curve" smooth="yes"/>
      <point x="270" y="-469"/>
      <point x="330" y="-440"/>
      <point x="379" y="-391" type="curve" smooth="yes"/>
      <point x="465" y="-305"/>
      <point x="539" y="-129"/>
      <point x="565" y="-63" type="curve" smooth="yes"/>
      <point x="958" y="895" type="line"/>
    </contour>
  </outline>
</glyph>
<glyph name="ydieresis" format="2">
  <advance width="1085"/>
  <unicode hex="00FF"/>
  <outline>
    <contour>
      <point x="899" y="1313" type="curve" smooth="yes"/>
      <point x="899" y="1374"/>
      <point x="850" y="1425"/>
      <point x="788" y="1425" type="curve" smooth="yes"/>
      <point x="731" y="1425"/>
      <point x="676" y="1370"/>
      <point x="676" y="1313" type="curve" smooth="yes"/>
      <point x="676" y="1251"/>
      <point x="727" y="1198"/>
      <point x="788" y="1198" type="curve" smooth="yes"/>
      <point x="850" y="1198"/>
      <point x="899" y="1251"/>
    </contour>
    <contour>
      <point x="475" y="1313" type="curve" smooth="yes"/>
      <point x="475" y="1374"/>
      <point x="424" y="1425"/>
      <point x="362" y="1425" type="curve" smooth="yes"/>
      <point x="303" y="1425"/>
      <point x="252" y="1370"/>
      <point x="252" y="1311" type="curve" smooth="yes"/>
      <point x="252" y="1251"/>
      <point x="303" y="1198"/>
      <point x="362" y="1198" type="curve" smooth="yes"/>
      <point x="424" y="1198"/>
      <point x="475" y="1251"/>
    </contour>
    <contour>
      <point x="1065" y="907" type="line"/>
      <point x="1065" y="987" type="line"/>
      <point x="700" y="987" type="line"/>
      <point x="700" y="907" type="line"/>
      <point x="797" y="901" type="line" smooth="yes"/>
      <point x="815" y="900"/>
      <point x="828" y="885"/>
      <point x="828" y="869" type="curve" smooth="yes"/>
      <point x="828" y="865"/>
      <point x="827" y="860"/>
      <point x="825" y="856" type="curve" smooth="yes"/>
      <point x="582" y="252" type="line"/>
      <point x="344" y="856" type="line"/>
      <point x="342" y="860"/>
      <point x="342" y="864"/>
      <point x="342" y="868" type="curve" smooth="yes"/>
      <point x="342" y="885"/>
      <point x="356" y="899"/>
      <point x="375" y="901" type="curve"/>
      <point x="473" y="907" type="line"/>
      <point x="473" y="987" type="line"/>
      <point x="20" y="987" type="line"/>
      <point x="20" y="907" type="line"/>
      <point x="133" y="895" type="line"/>
      <point x="481" y="2" type="line"/>
      <point x="451" y="-88"/>
      <point x="377" y="-250"/>
      <point x="309" y="-317" type="curve"/>
      <point x="117" y="-229" type="line"/>
      <point x="70" y="-268"/>
      <point x="51" y="-305"/>
      <point x="51" y="-352" type="curve" smooth="yes"/>
      <point x="51" y="-414"/>
      <point x="104" y="-469"/>
      <point x="201" y="-469" type="curve" smooth="yes"/>
      <point x="270" y="-469"/>
      <point x="330" y="-440"/>
      <point x="379" y="-391" type="curve" smooth="yes"/>
      <point x="465" y="-305"/>
      <point x="539" y="-129"/>
      <point x="565" y="-63" type="curve"/>
      <point x="958" y="895" type="line"/>
    </contour>
  </outline>
</glyph>
<glyph name="Ydieresis" format="2">
  <advance width="1280"/>
  <unicode hex="0178"/>
  <outline>
    <contour>
      <point x="991" y="1702" type="curve" smooth="yes"/>
      <point x="991" y="1763"/>
      <point x="940" y="1815"/>
      <point x="879" y="1815" type="curve" smooth="yes"/>
      <point x="821" y="1815"/>
      <point x="768" y="1759"/>
      <point x="768" y="1702" type="curve" smooth="yes"/>
      <point x="768" y="1640"/>
      <point x="817" y="1587"/>
      <point x="879" y="1587" type="curve" smooth="yes"/>
      <point x="940" y="1587"/>
      <point x="991" y="1640"/>
    </contour>
    <contour>
      <point x="565" y="1702" type="curve" smooth="yes"/>
      <point x="565" y="1763"/>
      <point x="516" y="1815"/>
      <point x="455" y="1815" type="curve" smooth="yes"/>
      <point x="395" y="1815"/>
      <point x="342" y="1759"/>
      <point x="342" y="1700" type="curve" smooth="yes"/>
      <point x="342" y="1640"/>
      <point x="393" y="1587"/>
      <point x="453" y="1587" type="curve" smooth="yes"/>
      <point x="514" y="1587"/>
      <point x="565" y="1640"/>
    </contour>
    <contour>
      <point x="1260" y="1288" type="line"/>
      <point x="1260" y="1374" type="line"/>
      <point x="844" y="1374" type="line"/>
      <point x="844" y="1288" type="line"/>
      <point x="958" y="1274" type="line" smooth="yes"/>
      <point x="974" y="1272"/>
      <point x="987" y="1260"/>
      <point x="987" y="1245" type="curve" smooth="yes"/>
      <point x="987" y="1240"/>
      <point x="986" y="1236"/>
      <point x="983" y="1231" type="curve" smooth="yes"/>
      <point x="666" y="700" type="line"/>
      <point x="379" y="1237" type="line" smooth="yes"/>
      <point x="376" y="1242"/>
      <point x="375" y="1248"/>
      <point x="375" y="1254" type="curve" smooth="yes"/>
      <point x="375" y="1265"/>
      <point x="386" y="1275"/>
      <point x="407" y="1278" type="curve"/>
      <point x="506" y="1288" type="line"/>
      <point x="506" y="1374" type="line"/>
      <point x="20" y="1374" type="line"/>
      <point x="20" y="1288" type="line"/>
      <point x="139" y="1264" type="line"/>
      <point x="532" y="553" type="line"/>
      <point x="532" y="141" type="line" smooth="yes"/>
      <point x="532" y="121"/>
      <point x="516" y="98"/>
      <point x="487" y="96" type="curve" smooth="yes"/>
      <point x="360" y="88" type="line"/>
      <point x="360" y="-0" type="line"/>
      <point x="911" y="-0" type="line"/>
      <point x="911" y="88" type="line"/>
      <point x="780" y="96" type="line" smooth="yes"/>
      <point x="752" y="98"/>
      <point x="737" y="121"/>
      <point x="737" y="141" type="curve" smooth="yes"/>
      <point x="737" y="584" type="line"/>
      <point x="1149" y="1268" type="line"/>
    </contour>
  </outline>
</glyph>
<glyph name="Zcaron" format="2">
  <advance width="1178"/>
  <unicode hex="017D"/>
  <anchor x="610" y="1900" name="U"/>
  <outline>
    <contour>
      <point x="1098" y="0" type="line"/>
      <point x="1098" y="379" type="line"/>
      <point x="977" y="379" type="line"/>
      <point x="942" y="141" type="line" smooth="yes"/>
      <point x="939" y="121"/>
      <point x="926" y="104"/>
      <point x="907" y="104" type="curve" smooth="yes"/>
      <point x="324" y="104" type="line"/>
      <point x="1087" y="1280" type="line"/>
      <point x="1087" y="1374" type="line"/>
      <point x="123" y="1374" type="line"/>
      <point x="123" y="1047" type="line"/>
      <point x="244" y="1047" type="line"/>
      <point x="274" y="1237" type="line"/>
      <point x="279" y="1257"/>
      <point x="291" y="1272"/>
      <point x="309" y="1272" type="curve" smooth="yes"/>
      <point x="842" y="1272" type="line"/>
      <point x="80" y="90" type="line"/>
      <point x="80" y="0" type="line"/>
    </contour>
    <contour>
      <point x="945" y="1875" type="line"/>
      <point x="822" y="1875" type="line"/>
      <point x="611" y="1672" type="line"/>
      <point x="398" y="1875" type="line"/>
      <point x="275" y="1875" type="line"/>
      <point x="533" y="1528" type="line"/>
      <point x="687" y="1528" type="line"/>
    </contour>
  </outline>
</glyph>
<glyph name="florin" format="2">
  <advance width="877"/>
  <unicode hex="0192"/>
  <outline>
    <contour>
      <point x="1008" y="1280" type="curve" smooth="yes"/>
      <point x="1008" y="1327"/>
      <point x="958" y="1407"/>
      <point x="819" y="1407" type="curve" smooth="yes"/>
      <point x="535" y="1407"/>
      <point x="436" y="1174"/>
      <point x="401" y="936" type="curve"/>
      <point x="209" y="936" type="line"/>
      <point x="209" y="834" type="line"/>
      <point x="387" y="834" type="line"/>
      <point x="350" y="584"/>
      <point x="311" y="293"/>
      <point x="282" y="127" type="curve"/>
      <point x="248" y="-63"/>
      <point x="205" y="-211"/>
      <point x="133" y="-297" type="curve"/>
      <point x="-76" y="-244" type="line"/>
      <point x="-106" y="-266"/>
      <point x="-129" y="-291"/>
      <point x="-129" y="-342" type="curve" smooth="yes"/>
      <point x="-129" y="-362"/>
      <point x="-104" y="-446"/>
      <point x="0" y="-446" type="curve" smooth="yes"/>
      <point x="203" y="-446"/>
      <point x="389" y="-184"/>
      <point x="445" y="45" type="curve"/>
      <point x="475" y="168"/>
      <point x="541" y="618"/>
      <point x="571" y="834" type="curve"/>
      <point x="817" y="834" type="line"/>
      <point x="817" y="936" type="line"/>
      <point x="586" y="936" type="line"/>
      <point x="600" y="1042"/>
      <point x="631" y="1227"/>
      <point x="719" y="1298" type="curve"/>
      <point x="879" y="1169" type="line"/>
      <point x="954" y="1180"/>
      <point x="1008" y="1217"/>
    </contour>
  </outline>
</glyph>
<glyph name="circumflex" format="2">
  <advance width="670"/>
  <unicode hex="02C6"/>
  <outline>
    <contour>
      <point x="670" y="1128" type="line"/>
      <point x="412" y="1475" type="line"/>
      <point x="258" y="1475" type="line"/>
      <point x="0" y="1128" type="line"/>
      <point x="123" y="1128" type="line"/>
      <point x="336" y="1331" type="line"/>
      <point x="547" y="1128" type="line"/>
    </contour>
  </outline>
</glyph>
<glyph name="caron" format="2">
  <advance width="670"/>
  <unicode hex="02C7"/>
  <anchor x="335" y="1500" name="U"/>
  <outline>
    <contour>
      <point x="670" y="1475" type="line"/>
      <point x="547" y="1475" type="line"/>
      <point x="336" y="1272" type="line"/>
      <point x="123" y="1475" type="line"/>
      <point x="0" y="1475" type="line"/>
      <point x="258" y="1128" type="line"/>
      <point x="412" y="1128" type="line"/>
    </contour>
  </outline>
</glyph>
<glyph name="uni02C9" format="2">
  <advance width="686"/>
  <unicode hex="02C9"/>
  <anchor x="343" y="1470" name="U"/>
  <outline>
    <contour>
      <point x="686" y="1200" type="line"/>
      <point x="686" y="1330" type="line"/>
      <point x="-0" y="1330" type="line"/>
      <point x="-0" y="1200" type="line"/>
    </contour>
  </outline>
</glyph>
<glyph name="breve" format="2">
  <advance width="610"/>
  <unicode hex="02D8"/>
  <anchor x="305" y="1500" name="U"/>
  <outline>
    <contour>
      <point x="528" y="1432" type="line"/>
      <point x="504" y="1315"/>
      <point x="406" y="1266"/>
      <point x="305" y="1266" type="curve" smooth="yes"/>
      <point x="205" y="1266"/>
      <point x="104" y="1315"/>
      <point x="80" y="1432" type="curve"/>
      <point x="0" y="1432" type="line"/>
      <point x="0" y="1288"/>
      <point x="100" y="1128"/>
      <point x="305" y="1128" type="curve" smooth="yes"/>
      <point x="508" y="1128"/>
      <point x="610" y="1288"/>
      <point x="610" y="1432" type="curve"/>
    </contour>
  </outline>
</glyph>
<glyph name="ogonek" format="2">
  <advance width="381"/>
  <unicode hex="02DB"/>
  <outline>
    <contour>
      <point x="332" y="-252" type="line"/>
      <point x="332" y="-252"/>
      <point x="279" y="-289"/>
      <point x="248" y="-289" type="curve" smooth="yes"/>
      <point x="174" y="-289"/>
      <point x="129" y="-256"/>
      <point x="129" y="-188" type="curve" smooth="yes"/>
      <point x="129" y="-102"/>
      <point x="193" y="-33"/>
      <point x="240" y="2" type="curve"/>
      <point x="143" y="2" type="line"/>
      <point x="86" y="-37"/>
      <point x="-0" y="-127"/>
      <point x="-0" y="-242" type="curve" smooth="yes"/>
      <point x="-0" y="-340"/>
      <point x="78" y="-391"/>
      <point x="205" y="-391" type="curve" smooth="yes"/>
      <point x="266" y="-391"/>
      <point x="381" y="-334"/>
      <point x="381" y="-334" type="curve"/>
    </contour>
  </outline>
</glyph>
<glyph name="gravecomb" format="2">
  <advance width="2"/>
  <unicode hex="0300"/>
  <anchor x="-830" y="1450" name="_U"/>
  <outline>
    <contour>
      <point x="-725" y="1558" type="line"/>
      <point x="-999" y="1876" type="line"/>
      <point x="-1029" y="1910"/>
      <point x="-1048" y="1931"/>
      <point x="-1106" y="1931" type="curve" smooth="yes"/>
      <point x="-1175" y="1931"/>
      <point x="-1200" y="1882"/>
      <point x="-1200" y="1839" type="curve" smooth="yes"/>
      <point x="-1200" y="1802"/>
      <point x="-1182" y="1776"/>
      <point x="-1153" y="1757" type="curve" smooth="yes"/>
      <point x="-842" y="1558" type="line"/>
    </contour>
  </outline>
</glyph>
<glyph name="acutecomb" format="2">
  <unicode hex="0301"/>
  <anchor x="-830" y="1450" name="_U"/>
  <outline>
    <contour>
      <point x="-573" y="1839" type="curve" smooth="yes"/>
      <point x="-573" y="1882"/>
      <point x="-596" y="1931"/>
      <point x="-667" y="1931" type="curve" smooth="yes"/>
      <point x="-725" y="1931"/>
      <point x="-745" y="1911"/>
      <point x="-776" y="1876" type="curve"/>
      <point x="-1048" y="1558" type="line"/>
      <point x="-932" y="1558" type="line"/>
      <point x="-620" y="1757" type="line"/>
      <point x="-594" y="1776"/>
      <point x="-573" y="1802"/>
    </contour>
  </outline>
</glyph>
<glyph name="uni0302" format="2">
  <unicode hex="0302"/>
  <anchor x="-830" y="1450" name="_U"/>
  <anchor x="-830" y="1986" name="U"/>
  <outline>
    <contour>
      <point x="-535" y="1589" type="line"/>
      <point x="-793" y="1936" type="line"/>
      <point x="-947" y="1936" type="line"/>
      <point x="-1205" y="1589" type="line"/>
      <point x="-1082" y="1589" type="line"/>
      <point x="-869" y="1792" type="line"/>
      <point x="-658" y="1589" type="line"/>
    </contour>
  </outline>
</glyph>
<glyph name="tildecomb" format="2">
  <unicode hex="0303"/>
  <anchor x="-830" y="1450" name="_U"/>
  <anchor x="-830" y="1862" name="U"/>
  <outline>
    <contour>
      <point x="-601" y="1812" type="line"/>
      <point x="-607" y="1763"/>
      <point x="-655" y="1714"/>
      <point x="-710" y="1714" type="curve" smooth="yes"/>
      <point x="-843" y="1714"/>
      <point x="-884" y="1812"/>
      <point x="-992" y="1812" type="curve" smooth="yes"/>
      <point x="-1126" y="1812"/>
      <point x="-1199" y="1708"/>
      <point x="-1230" y="1587" type="curve"/>
      <point x="-1148" y="1587" type="line"/>
      <point x="-1142" y="1636"/>
      <point x="-1097" y="1686"/>
      <point x="-1042" y="1686" type="curve" smooth="yes"/>
      <point x="-908" y="1686"/>
      <point x="-865" y="1587"/>
      <point x="-757" y="1587" type="curve" smooth="yes"/>
      <point x="-624" y="1587"/>
      <point x="-550" y="1692"/>
      <point x="-519" y="1812" type="curve"/>
    </contour>
  </outline>
</glyph>
<glyph name="uni0304" format="2">
  <unicode hex="0304"/>
  <anchor x="-830" y="1450" name="_U"/>
  <outline>
    <contour>
      <point x="-524" y="1610" type="line"/>
      <point x="-524" y="1740" type="line"/>
      <point x="-1210" y="1740" type="line"/>
      <point x="-1210" y="1610" type="line"/>
    </contour>
  </outline>
</glyph>
<glyph name="uni0307" format="2">
  <unicode hex="0307"/>
  <anchor x="-830" y="1848" name="U"/>
  <anchor x="-830" y="1450" name="_U"/>
  <outline>
    <contour>
      <point x="-869" y="1798" type="curve" smooth="yes"/>
      <point x="-926" y="1798"/>
      <point x="-985" y="1752"/>
      <point x="-985" y="1687" type="curve" smooth="yes"/>
      <point x="-985" y="1621"/>
      <point x="-935" y="1575"/>
      <point x="-869" y="1575" type="curve" smooth="yes"/>
      <point x="-804" y="1575"/>
      <point x="-761" y="1621"/>
      <point x="-761" y="1687" type="curve" smooth="yes"/>
      <point x="-761" y="1752"/>
      <point x="-804" y="1798"/>
    </contour>
  </outline>
</glyph>
<glyph name="uni0308" format="2">
  <advance width="2"/>
  <unicode hex="0308"/>
  <anchor x="-830" y="1450" name="_U"/>
  <outline>
    <contour>
      <point x="-996" y="1776" type="curve" smooth="yes"/>
      <point x="-1054" y="1776"/>
      <point x="-1112" y="1731"/>
      <point x="-1112" y="1665" type="curve" smooth="yes"/>
      <point x="-1112" y="1600"/>
      <point x="-1062" y="1554"/>
      <point x="-996" y="1554" type="curve" smooth="yes"/>
      <point x="-931" y="1554"/>
      <point x="-888" y="1600"/>
      <point x="-888" y="1665" type="curve" smooth="yes"/>
      <point x="-888" y="1731"/>
      <point x="-931" y="1776"/>
    </contour>
    <contour>
      <point x="-676" y="1798" type="curve" smooth="yes"/>
      <point x="-733" y="1798"/>
      <point x="-792" y="1752"/>
      <point x="-792" y="1687" type="curve" smooth="yes"/>
      <point x="-792" y="1621"/>
      <point x="-742" y="1575"/>
      <point x="-676" y="1575" type="curve" smooth="yes"/>
      <point x="-611" y="1575"/>
      <point x="-568" y="1621"/>
      <point x="-568" y="1687" type="curve" smooth="yes"/>
      <point x="-568" y="1752"/>
      <point x="-611" y="1798"/>
    </contour>
  </outline>
</glyph>
<glyph name="uni030B" format="2">
  <unicode hex="030B"/>
  <anchor x="-830" y="1450" name="_U"/>
  <outline>
    <contour>
      <point x="-326" y="1839" type="curve" smooth="yes"/>
      <point x="-326" y="1882"/>
      <point x="-348" y="1931"/>
      <point x="-420" y="1931" type="curve" smooth="yes"/>
      <point x="-475" y="1931"/>
      <point x="-498" y="1911"/>
      <point x="-526" y="1876" type="curve"/>
      <point x="-801" y="1558" type="line"/>
      <point x="-684" y="1558" type="line"/>
      <point x="-373" y="1757" type="line" smooth="yes"/>
      <point x="-345" y="1775"/>
      <point x="-326" y="1802"/>
    </contour>
    <contour>
      <point x="-725" y="1839" type="curve" smooth="yes"/>
      <point x="-725" y="1882"/>
      <point x="-749" y="1931"/>
      <point x="-819" y="1931" type="curve" smooth="yes"/>
      <point x="-876" y="1931"/>
      <point x="-897" y="1911"/>
      <point x="-928" y="1876" type="curve" smooth="yes"/>
      <point x="-1200" y="1558" type="line"/>
      <point x="-1083" y="1558" type="line"/>
      <point x="-774" y="1757" type="line" smooth="yes"/>
      <point x="-745" y="1776"/>
      <point x="-725" y="1802"/>
    </contour>
  </outline>
</glyph>
<glyph name="uni030C" format="2">
  <unicode hex="030C"/>
  <anchor x="-830" y="1450" name="_U"/>
  <anchor x="-830" y="1975" name="U"/>
  <outline>
    <contour>
      <point x="-534" y="1925" type="line"/>
      <point x="-657" y="1925" type="line"/>
      <point x="-868" y="1722" type="line"/>
      <point x="-1081" y="1925" type="line"/>
      <point x="-1204" y="1925" type="line"/>
      <point x="-946" y="1578" type="line"/>
      <point x="-792" y="1578" type="line"/>
    </contour>
  </outline>
</glyph>
<glyph name="uni030F" format="2">
  <unicode hex="030F"/>
  <anchor x="-830" y="1450" name="_U"/>
  <outline>
    <contour>
      <point x="-558" y="1558" type="line"/>
      <point x="-830" y="1876" type="line" smooth="yes"/>
      <point x="-859" y="1911"/>
      <point x="-881" y="1931"/>
      <point x="-936" y="1931" type="curve" smooth="yes"/>
      <point x="-1008" y="1931"/>
      <point x="-1033" y="1882"/>
      <point x="-1033" y="1839" type="curve" smooth="yes"/>
      <point x="-1033" y="1802"/>
      <point x="-1012" y="1776"/>
      <point x="-983" y="1757" type="curve" smooth="yes"/>
      <point x="-672" y="1558" type="line"/>
    </contour>
    <contour>
      <point x="-957" y="1558" type="line"/>
      <point x="-1229" y="1876" type="line"/>
      <point x="-1259" y="1912"/>
      <point x="-1280" y="1931"/>
      <point x="-1338" y="1931" type="curve" smooth="yes"/>
      <point x="-1407" y="1931"/>
      <point x="-1432" y="1882"/>
      <point x="-1432" y="1839" type="curve" smooth="yes"/>
      <point x="-1432" y="1802"/>
      <point x="-1412" y="1776"/>
      <point x="-1385" y="1757" type="curve"/>
      <point x="-1074" y="1558" type="line"/>
    </contour>
  </outline>
</glyph>
<glyph name="uni1200" format="2">
  <advance width="1092"/>
  <unicode hex="1200"/>
  <anchor x="587" y="1241" name="U"/>
  <outline>
    <contour>
      <point x="1034" y="956" type="curve" smooth="yes"/>
      <point x="1034" y="1070"/>
      <point x="1034" y="1200"/>
      <point x="965" y="1200" type="curve" smooth="yes"/>
      <point x="916" y="1200"/>
      <point x="780" y="1171"/>
      <point x="709" y="1157" type="curve"/>
      <point x="709" y="1124" type="line"/>
      <point x="749" y="1082"/>
      <point x="764" y="1010"/>
      <point x="764" y="940" type="curve" smooth="yes"/>
      <point x="764" y="827"/>
      <point x="707" y="518"/>
      <point x="674" y="377" type="curve" smooth="yes"/>
      <point x="638" y="225"/>
      <point x="604" y="94"/>
      <point x="479" y="94" type="curve" smooth="yes"/>
      <point x="370" y="94"/>
      <point x="367" y="206"/>
      <point x="367" y="289" type="curve" smooth="yes"/>
      <point x="367" y="434"/>
      <point x="489" y="932"/>
      <point x="489" y="1001" type="curve" smooth="yes"/>
      <point x="489" y="1044"/>
      <point x="484" y="1090"/>
      <point x="430" y="1090" type="curve" smooth="yes"/>
      <point x="386" y="1090"/>
      <point x="232" y="1051"/>
      <point x="164" y="1034" type="curve"/>
      <point x="164" y="1010" type="line"/>
      <point x="194" y="1004"/>
      <point x="205" y="961"/>
      <point x="205" y="938" type="curve" smooth="yes"/>
      <point x="205" y="853"/>
      <point x="96" y="397"/>
      <point x="96" y="289" type="curve" smooth="yes"/>
      <point x="96" y="116"/>
      <point x="219" y="0"/>
      <point x="391" y="0" type="curve" smooth="yes"/>
      <point x="709" y="0"/>
      <point x="902" y="256"/>
      <point x="981" y="538" type="curve" smooth="yes"/>
      <point x="1019" y="674"/>
      <point x="1034" y="815"/>
    </contour>
  </outline>
</glyph>
<glyph name="uni1201" format="2">
  <advance width="1597"/>
  <unicode hex="1201"/>
  <anchor x="610" y="1236" name="U"/>
  <outline>
    <contour>
      <point x="1544" y="554" type="curve"/>
      <point x="1487" y="581"/>
      <point x="1481" y="640"/>
      <point x="1481" y="697" type="curve" smooth="yes"/>
      <point x="1481" y="749"/>
      <point x="1487" y="802"/>
      <point x="1495" y="853" type="curve"/>
      <point x="1034" y="767" type="line"/>
      <point x="1041" y="833"/>
      <point x="1045" y="899"/>
      <point x="1045" y="965" type="curve" smooth="yes"/>
      <point x="1045" y="1010"/>
      <point x="1041" y="1191"/>
      <point x="969" y="1191" type="curve" smooth="yes"/>
      <point x="919" y="1191"/>
      <point x="779" y="1161"/>
      <point x="713" y="1148" type="curve"/>
      <point x="713" y="1115" type="line"/>
      <point x="749" y="1102"/>
      <point x="764" y="1006"/>
      <point x="764" y="931" type="curve" smooth="yes"/>
      <point x="764" y="772"/>
      <point x="682" y="84"/>
      <point x="479" y="84" type="curve" smooth="yes"/>
      <point x="370" y="84"/>
      <point x="367" y="196"/>
      <point x="367" y="279" type="curve" smooth="yes"/>
      <point x="367" y="416"/>
      <point x="492" y="925"/>
      <point x="492" y="996" type="curve" smooth="yes"/>
      <point x="492" y="1041"/>
      <point x="486" y="1080"/>
      <point x="432" y="1080" type="curve" smooth="yes"/>
      <point x="377" y="1080"/>
      <point x="234" y="1049"/>
      <point x="166" y="1035" type="curve"/>
      <point x="166" y="1010" type="line"/>
      <point x="198" y="1002"/>
      <point x="207" y="983"/>
      <point x="207" y="945" type="curve" smooth="yes"/>
      <point x="207" y="872"/>
      <point x="96" y="345"/>
      <point x="96" y="254" type="curve" smooth="yes"/>
      <point x="96" y="84"/>
      <point x="233" y="0"/>
      <point x="391" y="0" type="curve" smooth="yes"/>
      <point x="575" y="0"/>
      <point x="742" y="105"/>
      <point x="854" y="246" type="curve" smooth="yes"/>
      <point x="933" y="345"/>
      <point x="1001" y="560"/>
      <point x="1022" y="685" type="curve"/>
      <point x="1192" y="715" type="line"/>
      <point x="1193" y="575"/>
      <point x="1257" y="519"/>
      <point x="1393" y="519" type="curve" smooth="yes"/>
      <point x="1440" y="519"/>
      <point x="1505" y="525"/>
    </contour>
  </outline>
</glyph>
<glyph name="uni1202" format="2">
  <advance width="1243"/>
  <unicode hex="1202"/>
  <anchor x="577" y="1383" name="U"/>
  <outline>
    <contour>
      <point x="1161" y="-47" type="curve"/>
      <point x="1161" y="-47"/>
      <point x="1094" y="-14"/>
      <point x="1094" y="96" type="curve" smooth="yes"/>
      <point x="1094" y="184"/>
      <point x="1120" y="223"/>
      <point x="1120" y="223" type="curve"/>
      <point x="1120" y="223"/>
      <point x="1073" y="231"/>
      <point x="1032" y="231" type="curve" smooth="yes"/>
      <point x="881" y="231"/>
      <point x="834" y="188"/>
      <point x="786" y="113" type="curve"/>
      <point x="786" y="113"/>
      <point x="651" y="96"/>
      <point x="616" y="96" type="curve" smooth="yes"/>
      <point x="582" y="96"/>
      <point x="569" y="152"/>
      <point x="569" y="168" type="curve" smooth="yes"/>
      <point x="569" y="184"/>
      <point x="575" y="205"/>
      <point x="582" y="221" type="curve" smooth="yes"/>
      <point x="963" y="1103" type="line"/>
      <point x="990" y="1166"/>
      <point x="1004" y="1211"/>
      <point x="1004" y="1238" type="curve" smooth="yes"/>
      <point x="1004" y="1301"/>
      <point x="971" y="1336"/>
      <point x="915" y="1336" type="curve" smooth="yes"/>
      <point x="895" y="1336"/>
      <point x="860" y="1327"/>
      <point x="834" y="1320" type="curve" smooth="yes"/>
      <point x="655" y="1269" type="line"/>
      <point x="655" y="1246" type="line"/>
      <point x="676" y="1238"/>
      <point x="684" y="1217"/>
      <point x="684" y="1191" type="curve" smooth="yes"/>
      <point x="684" y="1164"/>
      <point x="668" y="1119"/>
      <point x="653" y="1082" type="curve"/>
      <point x="561" y="877" type="line"/>
      <point x="418" y="846" type="line"/>
      <point x="418" y="1164" type="line"/>
      <point x="424" y="1166"/>
      <point x="424" y="1169"/>
      <point x="424" y="1171" type="curve"/>
      <point x="424" y="1245"/>
      <point x="391" y="1263"/>
      <point x="348" y="1263" type="curve" smooth="yes"/>
      <point x="305" y="1263"/>
      <point x="82" y="1197"/>
      <point x="82" y="1197" type="curve"/>
      <point x="82" y="1162" type="line"/>
      <point x="110" y="1150"/>
      <point x="121" y="1127"/>
      <point x="123" y="1080" type="curve"/>
      <point x="123" y="822" type="line"/>
      <point x="133" y="756"/>
      <point x="164" y="721"/>
      <point x="225" y="721" type="curve" smooth="yes"/>
      <point x="242" y="721"/>
      <point x="270" y="727"/>
      <point x="289" y="732" type="curve" smooth="yes"/>
      <point x="526" y="791" type="line"/>
      <point x="285" y="221" type="line" smooth="yes"/>
      <point x="268" y="181"/>
      <point x="260" y="143"/>
      <point x="260" y="125" type="curve" smooth="yes"/>
      <point x="260" y="14"/>
      <point x="360" y="0"/>
      <point x="410" y="0" type="curve" smooth="yes"/>
      <point x="436" y="0"/>
      <point x="457" y="4"/>
      <point x="473" y="6" type="curve" smooth="yes"/>
      <point x="778" y="41" type="line"/>
      <point x="778" y="-57"/>
      <point x="837" y="-109"/>
      <point x="958" y="-109" type="curve" smooth="yes"/>
      <point x="1106" y="-109"/>
    </contour>
  </outline>
</glyph>
<glyph name="uni1203" format="2">
  <advance width="1024"/>
  <unicode hex="1203"/>
  <anchor x="545" y="1333" name="U"/>
  <outline>
    <contour>
      <point x="969" y="1158" type="curve" smooth="yes"/>
      <point x="969" y="1219"/>
      <point x="949" y="1281"/>
      <point x="877" y="1281" type="curve" smooth="yes"/>
      <point x="824" y="1281"/>
      <point x="694" y="1243"/>
      <point x="631" y="1226" type="curve"/>
      <point x="631" y="1203" type="line"/>
      <point x="659" y="1181"/>
      <point x="670" y="1154"/>
      <point x="670" y="1119" type="curve" smooth="yes"/>
      <point x="670" y="1049"/>
      <point x="589" y="885"/>
      <point x="557" y="824" type="curve"/>
      <point x="389" y="785" type="line"/>
      <point x="389" y="900"/>
      <point x="436" y="993"/>
      <point x="436" y="1103" type="curve" smooth="yes"/>
      <point x="436" y="1160"/>
      <point x="411" y="1209"/>
      <point x="348" y="1209" type="curve" smooth="yes"/>
      <point x="304" y="1209"/>
      <point x="136" y="1160"/>
      <point x="82" y="1144" type="curve"/>
      <point x="82" y="1109" type="line"/>
      <point x="135" y="1096"/>
      <point x="150" y="1049"/>
      <point x="150" y="1000" type="curve" smooth="yes"/>
      <point x="150" y="933"/>
      <point x="129" y="866"/>
      <point x="129" y="799" type="curve" smooth="yes"/>
      <point x="129" y="731"/>
      <point x="162" y="676"/>
      <point x="236" y="676" type="curve" smooth="yes"/>
      <point x="257" y="676"/>
      <point x="279" y="682"/>
      <point x="299" y="687" type="curve" smooth="yes"/>
      <point x="518" y="742" type="line"/>
      <point x="231" y="160" type="line" smooth="yes"/>
      <point x="224" y="145"/>
      <point x="207" y="100"/>
      <point x="207" y="84" type="curve" smooth="yes"/>
      <point x="207" y="16"/>
      <point x="236" y="0"/>
      <point x="299" y="0" type="curve" smooth="yes"/>
      <point x="320" y="0"/>
      <point x="341" y="3"/>
      <point x="362" y="6" type="curve" smooth="yes"/>
      <point x="573" y="31" type="line"/>
      <point x="573" y="63" type="line"/>
      <point x="548" y="78"/>
      <point x="532" y="108"/>
      <point x="532" y="137" type="curve" smooth="yes"/>
      <point x="532" y="156"/>
      <point x="539" y="190"/>
      <point x="547" y="207" type="curve" smooth="yes"/>
      <point x="932" y="980" type="line" smooth="yes"/>
      <point x="957" y="1031"/>
      <point x="969" y="1101"/>
    </contour>
  </outline>
</glyph>
<glyph name="uni1204" format="2">
  <advance width="1159"/>
  <unicode hex="1204"/>
  <anchor x="525" y="1405" name="U"/>
  <outline>
    <contour>
      <point x="1087" y="362" type="curve" smooth="yes"/>
      <point x="1087" y="481"/>
      <point x="1012" y="526"/>
      <point x="901" y="526" type="curve" smooth="yes"/>
      <point x="811" y="526"/>
      <point x="716" y="502"/>
      <point x="629" y="479" type="curve"/>
      <point x="936" y="1088" type="line" smooth="yes"/>
      <point x="956" y="1127"/>
      <point x="977" y="1180"/>
      <point x="977" y="1224" type="curve" smooth="yes"/>
      <point x="977" y="1281"/>
      <point x="949" y="1322"/>
      <point x="889" y="1322" type="curve" smooth="yes"/>
      <point x="845" y="1322"/>
      <point x="677" y="1268"/>
      <point x="629" y="1254" type="curve"/>
      <point x="629" y="1232" type="line"/>
      <point x="651" y="1223"/>
      <point x="657" y="1199"/>
      <point x="657" y="1177" type="curve" smooth="yes"/>
      <point x="657" y="1146"/>
      <point x="640" y="1096"/>
      <point x="627" y="1068" type="curve" smooth="yes"/>
      <point x="526" y="846" type="line"/>
      <point x="391" y="814" type="line"/>
      <point x="391" y="933"/>
      <point x="392" y="1052"/>
      <point x="392" y="1171" type="curve" smooth="yes"/>
      <point x="392" y="1221"/>
      <point x="373" y="1248"/>
      <point x="322" y="1248" type="curve" smooth="yes"/>
      <point x="276" y="1248"/>
      <point x="110" y="1199"/>
      <point x="55" y="1183" type="curve"/>
      <point x="55" y="1148" type="line"/>
      <point x="90" y="1134"/>
      <point x="95" y="1100"/>
      <point x="96" y="1066" type="curve" smooth="yes"/>
      <point x="106" y="791" type="line" smooth="yes"/>
      <point x="108" y="729"/>
      <point x="136" y="691"/>
      <point x="201" y="691" type="curve" smooth="yes"/>
      <point x="222" y="691"/>
      <point x="244" y="696"/>
      <point x="264" y="701" type="curve" smooth="yes"/>
      <point x="496" y="762" type="line"/>
      <point x="242" y="236" type="line" smooth="yes"/>
      <point x="228" y="206"/>
      <point x="217" y="158"/>
      <point x="217" y="125" type="curve" smooth="yes"/>
      <point x="217" y="34"/>
      <point x="286" y="0"/>
      <point x="367" y="0" type="curve" smooth="yes"/>
      <point x="455" y="0"/>
      <point x="594" y="67"/>
      <point x="680" y="96" type="curve" smooth="yes"/>
      <point x="770" y="126"/>
      <point x="865" y="137"/>
      <point x="950" y="180" type="curve" smooth="yes"/>
      <point x="1028" y="219"/>
      <point x="1087" y="268"/>
    </contour>
    <contour>
      <point x="805" y="334" type="curve" smooth="yes"/>
      <point x="805" y="218"/>
      <point x="684" y="150"/>
      <point x="580" y="150" type="curve" smooth="yes"/>
      <point x="544" y="150"/>
      <point x="512" y="165"/>
      <point x="512" y="205" type="curve" smooth="yes"/>
      <point x="512" y="243"/>
      <point x="551" y="316"/>
      <point x="582" y="379" type="curve"/>
      <point x="623" y="396"/>
      <point x="685" y="418"/>
      <point x="729" y="418" type="curve" smooth="yes"/>
      <point x="791" y="418"/>
      <point x="805" y="390"/>
    </contour>
  </outline>
</glyph>
<glyph name="uni1205" format="2">
  <advance width="1133"/>
  <unicode hex="1205"/>
  <anchor x="565" y="1303" name="U"/>
  <outline>
    <contour>
      <point x="1075" y="825" type="curve" smooth="yes"/>
      <point x="1075" y="983"/>
      <point x="1075" y="1202"/>
      <point x="997" y="1202" type="curve" smooth="yes"/>
      <point x="950" y="1202"/>
      <point x="794" y="1158"/>
      <point x="739" y="1143" type="curve"/>
      <point x="739" y="1110" type="line"/>
      <point x="780" y="1087"/>
      <point x="793" y="986"/>
      <point x="793" y="852" type="curve" smooth="yes"/>
      <point x="793" y="702"/>
      <point x="764" y="96"/>
      <point x="555" y="96" type="curve" smooth="yes"/>
      <point x="464" y="96"/>
      <point x="434" y="162"/>
      <point x="434" y="244" type="curve" smooth="yes"/>
      <point x="434" y="272"/>
      <point x="451" y="366"/>
      <point x="462" y="423" type="curve" smooth="yes"/>
      <point x="482" y="533"/>
      <point x="503" y="644"/>
      <point x="524" y="754" type="curve"/>
      <point x="371" y="723" type="line"/>
      <point x="382" y="782"/>
      <point x="420" y="945"/>
      <point x="420" y="999" type="curve" smooth="yes"/>
      <point x="420" y="1044"/>
      <point x="415" y="1087"/>
      <point x="360" y="1087" type="curve" smooth="yes"/>
      <point x="313" y="1087"/>
      <point x="158" y="1048"/>
      <point x="94" y="1032" type="curve"/>
      <point x="94" y="1008" type="line"/>
      <point x="124" y="1002"/>
      <point x="135" y="959"/>
      <point x="135" y="936" type="curve" smooth="yes"/>
      <point x="135" y="886"/>
      <point x="93" y="687"/>
      <point x="74" y="588" type="curve"/>
      <point x="219" y="614" type="line"/>
      <point x="201" y="509"/>
      <point x="166" y="313"/>
      <point x="166" y="252" type="curve" smooth="yes"/>
      <point x="166" y="83"/>
      <point x="237" y="0"/>
      <point x="414" y="0" type="curve" smooth="yes"/>
      <point x="579" y="0"/>
      <point x="754" y="46"/>
      <point x="877" y="160" type="curve" smooth="yes"/>
      <point x="1051" y="321"/>
      <point x="1075" y="603"/>
    </contour>
  </outline>
</glyph>
<glyph name="uni1206" format="2">
  <advance width="1419"/>
  <unicode hex="1206"/>
  <anchor x="564" y="1329" name="U"/>
  <outline>
    <contour>
      <point x="1417" y="1077" type="curve" smooth="yes"/>
      <point x="1417" y="1237"/>
      <point x="1327" y="1282"/>
      <point x="1245" y="1282" type="curve" smooth="yes"/>
      <point x="1214" y="1282"/>
      <point x="1151" y="1268"/>
      <point x="1151" y="1268" type="curve"/>
      <point x="1108" y="1262"/>
      <point x="631" y="1157"/>
      <point x="631" y="1157" type="curve"/>
      <point x="631" y="1124" type="line"/>
      <point x="631" y="1124"/>
      <point x="696" y="1106"/>
      <point x="696" y="981" type="curve" smooth="yes"/>
      <point x="696" y="969"/>
      <point x="692" y="932"/>
      <point x="688" y="881" type="curve" smooth="yes"/>
      <point x="678" y="750"/>
      <point x="639" y="324"/>
      <point x="639" y="324" type="curve"/>
      <point x="625" y="168"/>
      <point x="569" y="82"/>
      <point x="487" y="82" type="curve" smooth="yes"/>
      <point x="420" y="82"/>
      <point x="360" y="123"/>
      <point x="360" y="240" type="curve" smooth="yes"/>
      <point x="360" y="383"/>
      <point x="422" y="950"/>
      <point x="422" y="1010" type="curve" smooth="yes"/>
      <point x="422" y="1069"/>
      <point x="406" y="1102"/>
      <point x="360" y="1102" type="curve" smooth="yes"/>
      <point x="315" y="1102"/>
      <point x="94" y="1038"/>
      <point x="94" y="1038" type="curve"/>
      <point x="94" y="1014" type="line"/>
      <point x="121" y="1006"/>
      <point x="152" y="977"/>
      <point x="152" y="915" type="curve" smooth="yes"/>
      <point x="152" y="854"/>
      <point x="98" y="422"/>
      <point x="98" y="348" type="curve" smooth="yes"/>
      <point x="98" y="217"/>
      <point x="137" y="-0"/>
      <point x="391" y="-0" type="curve" smooth="yes"/>
      <point x="729" y="-0"/>
      <point x="897" y="233"/>
      <point x="920" y="481" type="curve" smooth="yes"/>
      <point x="950" y="811" type="line"/>
      <point x="976" y="808"/>
      <point x="1001" y="807"/>
      <point x="1025" y="807" type="curve" smooth="yes"/>
      <point x="1274" y="807"/>
      <point x="1417" y="939"/>
    </contour>
    <contour>
      <point x="1133" y="1059" type="curve" smooth="yes"/>
      <point x="1133" y="968"/>
      <point x="1078" y="872"/>
      <point x="958" y="872" type="curve"/>
      <point x="954" y="872" type="line"/>
      <point x="967" y="1012" type="line" smooth="yes"/>
      <point x="979" y="1147"/>
      <point x="1001" y="1161"/>
      <point x="1049" y="1161" type="curve" smooth="yes"/>
      <point x="1108" y="1161"/>
      <point x="1133" y="1112"/>
    </contour>
  </outline>
</glyph>
<glyph name="uni1207" format="2">
  <advance width="1810"/>
  <unicode hex="1207"/>
  <unicode hex="E207"/>
  <anchor x="917" y="1350" name="U"/>
  <outline>
    <contour>
      <point x="1808" y="1077" type="curve" smooth="yes"/>
      <point x="1808" y="1237"/>
      <point x="1718" y="1282"/>
      <point x="1636" y="1282" type="curve" smooth="yes"/>
      <point x="1605" y="1282"/>
      <point x="1542" y="1268"/>
      <point x="1542" y="1268" type="curve"/>
      <point x="1499" y="1262"/>
      <point x="1022" y="1157"/>
      <point x="1022" y="1157" type="curve"/>
      <point x="1022" y="1124" type="line"/>
      <point x="1022" y="1124"/>
      <point x="1087" y="1106"/>
      <point x="1087" y="981" type="curve" smooth="yes"/>
      <point x="1087" y="969"/>
      <point x="1083" y="932"/>
      <point x="1079" y="881" type="curve" smooth="yes"/>
      <point x="1069" y="750"/>
      <point x="1030" y="324"/>
      <point x="1030" y="324" type="curve"/>
      <point x="1016" y="168"/>
      <point x="960" y="82"/>
      <point x="878" y="82" type="curve" smooth="yes"/>
      <point x="811" y="82"/>
      <point x="751" y="123"/>
      <point x="751" y="240" type="curve" smooth="yes"/>
      <point x="751" y="383"/>
      <point x="813" y="950"/>
      <point x="813" y="1010" type="curve" smooth="yes"/>
      <point x="813" y="1069"/>
      <point x="797" y="1102"/>
      <point x="751" y="1102" type="curve" smooth="yes"/>
      <point x="706" y="1102"/>
      <point x="485" y="1038"/>
      <point x="485" y="1038" type="curve"/>
      <point x="485" y="1014" type="line"/>
      <point x="512" y="1006"/>
      <point x="543" y="977"/>
      <point x="543" y="915" type="curve" smooth="yes"/>
      <point x="543" y="893"/>
      <point x="536" y="827"/>
      <point x="528" y="747" type="curve"/>
      <point x="76" y="685" type="line"/>
      <point x="76" y="685"/>
      <point x="109" y="621"/>
      <point x="109" y="537" type="curve" smooth="yes"/>
      <point x="109" y="439"/>
      <point x="76" y="398"/>
      <point x="55" y="382" type="curve"/>
      <point x="72" y="369"/>
      <point x="106" y="363"/>
      <point x="141" y="363" type="curve" smooth="yes"/>
      <point x="252" y="363"/>
      <point x="393" y="429"/>
      <point x="408" y="656" type="curve"/>
      <point x="520" y="673" type="line"/>
      <point x="505" y="537"/>
      <point x="489" y="388"/>
      <point x="489" y="348" type="curve" smooth="yes"/>
      <point x="489" y="217"/>
      <point x="528" y="0"/>
      <point x="782" y="0" type="curve" smooth="yes"/>
      <point x="1120" y="0"/>
      <point x="1288" y="233"/>
      <point x="1311" y="481" type="curve" smooth="yes"/>
      <point x="1341" y="811" type="line"/>
      <point x="1367" y="808"/>
      <point x="1392" y="807"/>
      <point x="1416" y="807" type="curve" smooth="yes"/>
      <point x="1665" y="807"/>
      <point x="1808" y="939"/>
    </contour>
    <contour>
      <point x="1524" y="1059" type="curve" smooth="yes"/>
      <point x="1524" y="968"/>
      <point x="1469" y="872"/>
      <point x="1349" y="872" type="curve"/>
      <point x="1345" y="872" type="line"/>
      <point x="1358" y="1012" type="line" smooth="yes"/>
      <point x="1370" y="1147"/>
      <point x="1392" y="1161"/>
      <point x="1440" y="1161" type="curve" smooth="yes"/>
      <point x="1499" y="1161"/>
      <point x="1524" y="1112"/>
    </contour>
  </outline>
</glyph>
<glyph name="uni1208" format="2">
  <advance width="1159"/>
  <unicode hex="1208"/>
  <anchor x="540" y="1396" name="U"/>
  <outline>
    <contour>
      <point x="1075" y="41" type="line"/>
      <point x="1075" y="78" type="line"/>
      <point x="872" y="135"/>
      <point x="1085" y="889"/>
      <point x="715" y="1083" type="curve"/>
      <point x="621" y="1296" type="line"/>
      <point x="369" y="1210" type="line"/>
      <point x="453" y="1057" type="line"/>
      <point x="145" y="801"/>
      <point x="96" y="512"/>
      <point x="96" y="147" type="curve" smooth="yes"/>
      <point x="96" y="46"/>
      <point x="127" y="1"/>
      <point x="195" y="1" type="curve" smooth="yes"/>
      <point x="205" y="1"/>
      <point x="217" y="2"/>
      <point x="229" y="4" type="curve" smooth="yes"/>
      <point x="436" y="43" type="line"/>
      <point x="436" y="74" type="line"/>
      <point x="371" y="96"/>
      <point x="367" y="156"/>
      <point x="367" y="244" type="curve" smooth="yes"/>
      <point x="367" y="606"/>
      <point x="455" y="750"/>
      <point x="598" y="862" type="curve"/>
      <point x="772" y="626"/>
      <point x="611" y="4"/>
      <point x="838" y="4" type="curve" smooth="yes"/>
      <point x="846" y="4"/>
      <point x="854" y="5"/>
      <point x="862" y="6" type="curve" smooth="yes"/>
    </contour>
  </outline>
</glyph>
<glyph name="uni1209" format="2">
  <advance width="1583"/>
  <unicode hex="1209"/>
  <anchor x="578" y="1334" name="U"/>
  <outline>
    <contour>
      <point x="1532" y="608" type="curve"/>
      <point x="1460" y="657"/>
      <point x="1427" y="719"/>
      <point x="1427" y="807" type="curve" smooth="yes"/>
      <point x="1427" y="872"/>
      <point x="1446" y="901"/>
      <point x="1446" y="901" type="curve"/>
      <point x="940" y="743" type="line"/>
      <point x="909" y="889"/>
      <point x="850" y="1018"/>
      <point x="725" y="1083" type="curve"/>
      <point x="631" y="1296" type="line"/>
      <point x="379" y="1210" type="line"/>
      <point x="463" y="1057" type="line"/>
      <point x="156" y="801"/>
      <point x="106" y="512"/>
      <point x="106" y="147" type="curve" smooth="yes"/>
      <point x="106" y="46"/>
      <point x="137" y="1"/>
      <point x="206" y="1" type="curve" smooth="yes"/>
      <point x="217" y="1"/>
      <point x="228" y="2"/>
      <point x="240" y="4" type="curve" smooth="yes"/>
      <point x="446" y="43" type="line"/>
      <point x="446" y="74" type="line"/>
      <point x="381" y="96"/>
      <point x="377" y="156"/>
      <point x="377" y="244" type="curve" smooth="yes"/>
      <point x="377" y="606"/>
      <point x="465" y="750"/>
      <point x="608" y="862" type="curve"/>
      <point x="782" y="626"/>
      <point x="621" y="4"/>
      <point x="848" y="4" type="curve" smooth="yes"/>
      <point x="856" y="4"/>
      <point x="864" y="5"/>
      <point x="872" y="6" type="curve" smooth="yes"/>
      <point x="1085" y="41" type="line"/>
      <point x="1085" y="78" type="line"/>
      <point x="963" y="113"/>
      <point x="991" y="401"/>
      <point x="952" y="666" type="curve"/>
      <point x="1155" y="733" type="line"/>
      <point x="1169" y="610"/>
      <point x="1210" y="532"/>
      <point x="1358" y="532" type="curve" smooth="yes"/>
      <point x="1450" y="532"/>
      <point x="1499" y="575"/>
    </contour>
  </outline>
</glyph>
